<svg width="259" height="88" viewBox="0 0 259 88" fill="none" xmlns="http://www.w3.org/2000/svg">
<path d="M137.557 51.2852C137.557 50.2891 137.205 49.5273 136.502 49C135.799 48.4609 134.533 47.8984 132.705 47.3125C130.877 46.7148 129.43 46.1289 128.363 45.5547C125.457 43.9844 124.004 41.8691 124.004 39.209C124.004 37.8262 124.391 36.5957 125.164 35.5176C125.949 34.4277 127.068 33.5781 128.521 32.9688C129.986 32.3594 131.627 32.0547 133.443 32.0547C135.271 32.0547 136.9 32.3887 138.33 33.0566C139.76 33.7129 140.867 34.6445 141.652 35.8516C142.449 37.0586 142.848 38.4297 142.848 39.9648H137.574C137.574 38.793 137.205 37.8848 136.467 37.2402C135.729 36.584 134.691 36.2559 133.355 36.2559C132.066 36.2559 131.064 36.5312 130.35 37.082C129.635 37.6211 129.277 38.3359 129.277 39.2266C129.277 40.0586 129.693 40.7559 130.525 41.3184C131.369 41.8809 132.605 42.4082 134.234 42.9004C137.234 43.8027 139.42 44.9219 140.791 46.2578C142.162 47.5938 142.848 49.2578 142.848 51.25C142.848 53.4648 142.01 55.2051 140.334 56.4707C138.658 57.7246 136.402 58.3516 133.566 58.3516C131.598 58.3516 129.805 57.9941 128.188 57.2793C126.57 56.5527 125.334 55.5625 124.479 54.3086C123.635 53.0547 123.213 51.6016 123.213 49.9492H128.504C128.504 52.7734 130.191 54.1855 133.566 54.1855C134.82 54.1855 135.799 53.9336 136.502 53.4297C137.205 52.9141 137.557 52.1992 137.557 51.2852ZM154.01 54.2559C154.947 54.2559 155.709 53.998 156.295 53.4824C156.881 52.9668 157.186 52.2812 157.209 51.4258H161.973C161.961 52.7148 161.609 53.8984 160.918 54.9766C160.227 56.043 159.277 56.875 158.07 57.4727C156.875 58.0586 155.551 58.3516 154.098 58.3516C151.379 58.3516 149.234 57.4902 147.664 55.7676C146.094 54.0332 145.309 51.6426 145.309 48.5957V48.2617C145.309 45.332 146.088 42.9941 147.646 41.248C149.205 39.502 151.344 38.6289 154.062 38.6289C156.441 38.6289 158.346 39.3086 159.775 40.668C161.217 42.0156 161.949 43.8145 161.973 46.0645H157.209C157.186 45.0801 156.881 44.2832 156.295 43.6738C155.709 43.0527 154.936 42.7422 153.975 42.7422C152.791 42.7422 151.895 43.1758 151.285 44.043C150.688 44.8984 150.389 46.293 150.389 48.2266V48.7539C150.389 50.7109 150.688 52.1172 151.285 52.9727C151.883 53.8281 152.791 54.2559 154.01 54.2559ZM169.83 41.0547C171.178 39.4375 172.871 38.6289 174.91 38.6289C179.035 38.6289 181.127 41.0254 181.186 45.8184V58H176.105V45.959C176.105 44.8691 175.871 44.0664 175.402 43.5508C174.934 43.0234 174.154 42.7598 173.064 42.7598C171.576 42.7598 170.498 43.334 169.83 44.4824V58H164.75V31H169.83V41.0547ZM193.771 58.3516C190.982 58.3516 188.709 57.4961 186.951 55.7852C185.205 54.0742 184.332 51.7949 184.332 48.9473V48.4551C184.332 46.5449 184.701 44.8398 185.439 43.3398C186.178 41.8281 187.221 40.668 188.568 39.8594C189.928 39.0391 191.475 38.6289 193.209 38.6289C195.811 38.6289 197.855 39.4492 199.344 41.0898C200.844 42.7305 201.594 45.0566 201.594 48.0684V50.1426H189.482C189.646 51.3848 190.139 52.3809 190.959 53.1309C191.791 53.8809 192.84 54.2559 194.105 54.2559C196.062 54.2559 197.592 53.5469 198.693 52.1289L201.189 54.9238C200.428 56.002 199.396 56.8457 198.096 57.4551C196.795 58.0527 195.354 58.3516 193.771 58.3516ZM193.191 42.7422C192.184 42.7422 191.363 43.082 190.73 43.7617C190.109 44.4414 189.711 45.4141 189.535 46.6797H196.602V46.2754C196.578 45.1504 196.273 44.2832 195.688 43.6738C195.102 43.0527 194.27 42.7422 193.191 42.7422ZM203.703 48.3496C203.703 45.3848 204.365 43.0234 205.689 41.2656C207.025 39.5078 208.848 38.6289 211.156 38.6289C213.008 38.6289 214.537 39.3203 215.744 40.7031V31H220.842V58H216.254L216.008 55.9785C214.742 57.5605 213.113 58.3516 211.121 58.3516C208.883 58.3516 207.084 57.4727 205.725 55.7148C204.377 53.9453 203.703 51.4902 203.703 48.3496ZM208.783 48.7188C208.783 50.5 209.094 51.8652 209.715 52.8145C210.336 53.7637 211.238 54.2383 212.422 54.2383C213.992 54.2383 215.1 53.5762 215.744 52.252V44.7461C215.111 43.4219 214.016 42.7598 212.457 42.7598C210.008 42.7598 208.783 44.7461 208.783 48.7188ZM234.658 49.0879H224.762V44.9922H234.658V49.0879ZM244.678 58H239.404V32.4062H244.678V58ZM255.33 34.3047V38.9805H258.582V42.707H255.33V52.1992C255.33 52.9023 255.465 53.4062 255.734 53.7109C256.004 54.0156 256.52 54.168 257.281 54.168C257.844 54.168 258.342 54.127 258.775 54.0449V57.8945C257.779 58.1992 256.754 58.3516 255.699 58.3516C252.137 58.3516 250.32 56.5527 250.25 52.9551V42.707H247.473V38.9805H250.25V34.3047H255.33Z" fill="white"/>
<path d="M79.0625 9.45312H8.76562V24.0625H79.0625V9.45312Z" fill="white"/>
<path d="M23.375 27.6719H8.76562V42.2812H23.375V27.6719Z" fill="white"/>
<path d="M79.0625 27.6719H64.4531V42.2812H79.0625V27.6719Z" fill="white"/>
<path d="M23.375 45.8906H8.76562V60.5H23.375V45.8906Z" fill="white"/>
<path d="M23.375 64.1094H8.76562V78.7188H23.375V64.1094Z" fill="white"/>
<path d="M79.0625 64.1094H64.4531V78.7188H79.0625V64.1094Z" fill="white"/>
<path d="M60.5 64.1094H45.8906V78.7188H60.5V64.1094Z" fill="white"/>
<path d="M41.9375 64.1094H27.3281V78.7188H41.9375V64.1094Z" fill="white"/>
<path d="M60.5 45.8906H45.8906V60.5H60.5V45.8906Z" fill="white"/>
<path d="M41.9375 45.8906H27.3281V60.5H41.9375V45.8906Z" fill="white"/>
<path d="M79.0625 45.8906H64.4531V60.5H79.0625V45.8906Z" fill="white"/>
<path d="M60.5 27.6719H45.8906V42.2812H60.5V27.6719Z" fill="white"/>
<path d="M41.9375 27.6719H27.3281V42.2812H41.9375V27.6719Z" fill="white"/>
</svg>
