<svg width="327" height="179" viewBox="0 0 327 179" fill="none" xmlns="http://www.w3.org/2000/svg">
<g clip-path="url(#clip0)">
<path d="M127.336 35.5985L113.167 53.1779L124.46 33.5782C122.736 32.5166 120.903 31.6434 118.993 30.9734C119.373 27.1192 118.957 23.2277 117.771 19.5416C116.584 15.8554 114.652 12.4535 112.096 9.54793C109.539 6.64234 106.413 4.29531 102.911 2.65311C99.409 1.01091 95.6071 0.108733 91.7419 0.00280087C87.8768 -0.103131 84.0312 0.589456 80.445 2.0374C76.8588 3.48533 73.6087 5.6576 70.8973 8.41881C68.186 11.18 66.0714 14.471 64.6854 18.0867C63.2994 21.7023 62.6716 25.5652 62.8413 29.4345L88.4346 31.1209L63.2914 33.3834C64 37.1623 65.4714 40.7565 67.6154 43.9458C69.7595 47.1351 72.531 49.8524 75.7602 51.9312L89.7709 42.8256L78.1189 53.2893C79.2748 53.8851 80.4705 54.4002 81.6973 54.831C81.0797 61.1234 82.5913 67.4412 85.9892 72.7697C89.3872 78.0982 94.4744 82.1282 100.434 84.2125C99.9591 89.0175 100.724 93.864 102.655 98.288C104.586 102.712 107.619 106.565 111.463 109.479C115.306 112.392 119.833 114.269 124.608 114.928C129.383 115.587 134.247 115.007 138.735 113.243C138.984 114.348 139.425 115.4 140.038 116.352C140.91 117.754 142.141 118.896 143.602 119.661C143.696 121.308 144.211 122.903 145.097 124.294C145.982 125.684 147.21 126.824 148.661 127.603C148.757 129.249 149.273 130.843 150.158 132.233C151.044 133.623 152.27 134.762 153.721 135.543C153.815 137.19 154.329 138.785 155.214 140.176C156.1 141.567 157.326 142.707 158.777 143.488C158.856 145.137 159.372 146.735 160.272 148.118C162.558 151.706 166.631 153.197 169.368 151.458C172.104 149.719 172.468 145.383 170.182 141.793C169.31 140.391 168.082 139.248 166.623 138.479C166.528 136.83 166.012 135.233 165.125 133.841C164.238 132.449 163.009 131.308 161.555 130.528C161.46 128.881 160.944 127.287 160.058 125.897C159.172 124.507 157.944 123.368 156.493 122.588C156.399 120.942 155.884 119.347 154.998 117.957C154.113 116.567 152.885 115.428 151.434 114.649C151.355 112.999 150.838 111.401 149.937 110.018C149.344 109.073 148.592 108.239 147.714 107.553C151.244 104.235 153.86 100.062 155.31 95.4366C156.759 90.8111 156.994 85.8893 155.991 81.1464C154.989 76.4035 152.782 71.9996 149.584 68.3601C146.387 64.7205 142.307 61.9682 137.737 60.3689C138.196 55.7001 137.485 50.9904 135.669 46.6659C133.854 42.3414 130.99 38.5386 127.338 35.6013L127.336 35.5985Z" fill="#F2F2F2"/>
<path d="M185.468 21.4865L182.939 23.0923L184.476 20.2955C184.042 19.944 183.503 19.7481 182.945 19.7389H182.906C182.73 19.7414 182.555 19.7283 182.381 19.6999L181.523 20.2565L181.892 19.5858C181.285 19.374 180.76 18.9757 180.392 18.4476L178.858 19.4216L179.828 17.6573C179.42 17.1299 178.9 16.6999 178.305 16.3986C177.711 16.0973 177.057 15.9322 176.391 15.9152C174.794 15.9152 173.374 16.867 172.457 18.3475C172.185 18.7884 171.8 19.1494 171.344 19.3937C170.887 19.6381 170.374 19.7572 169.857 19.7389H169.77C168.009 19.7389 166.581 21.7398 166.581 24.1915C166.581 26.6432 168.009 28.658 169.77 28.658C170.158 28.6567 170.539 28.5612 170.882 28.3797C171.481 28.088 172.137 27.9302 172.803 27.9172C173.469 27.9042 174.131 28.0364 174.741 28.3046C175.257 28.5348 175.816 28.6538 176.381 28.6538C176.947 28.6538 177.506 28.5348 178.022 28.3046C178.628 28.0418 179.283 27.9125 179.943 27.9254C180.603 27.9384 181.253 28.0933 181.848 28.3797C182.19 28.5613 182.571 28.6568 182.959 28.658C184.72 28.658 186.148 26.6599 186.148 24.1915C186.151 23.247 185.917 22.3169 185.468 21.4865Z" fill="#F2F2F2"/>
<path opacity="0.03" d="M180.703 28.0236C179.783 27.8496 178.833 27.9532 177.972 28.3213C177.456 28.5516 176.897 28.6706 176.331 28.6706C175.766 28.6706 175.207 28.5516 174.691 28.3213C174.08 28.0531 173.418 27.9209 172.752 27.9339C172.085 27.9469 171.429 28.1047 170.829 28.3965C170.487 28.5787 170.105 28.6742 169.718 28.6748C168.151 28.6748 166.851 27.0969 166.578 25.0153C166.89 24.7892 167.156 24.5059 167.362 24.1804C168.279 22.6999 169.701 21.751 171.296 21.751C172.891 21.751 174.294 22.6888 175.21 24.1526C175.484 24.5954 175.867 24.9598 176.323 25.2104C176.778 25.4611 177.291 25.5894 177.811 25.583H177.852C179.1 25.5635 180.17 26.5653 180.703 28.0236Z" fill="black"/>
<path d="M279.095 10.6333L276.566 12.239L278.103 9.44226C277.669 9.09082 277.13 8.8949 276.572 8.88568H276.533C276.357 8.88815 276.181 8.87511 276.008 8.84672L275.149 9.40329L275.519 8.73262C274.912 8.52075 274.387 8.12246 274.019 7.59442L272.485 8.56843L273.455 6.80409C273.047 6.27665 272.527 5.84671 271.932 5.54541C271.338 5.24411 270.684 5.07899 270.018 5.06201C268.421 5.06201 267.001 6.01376 266.084 7.49425C265.811 7.93521 265.427 8.29617 264.971 8.54053C264.514 8.78489 264.001 8.90396 263.484 8.88568H263.397C261.636 8.88568 260.208 10.8866 260.208 13.3383C260.208 15.79 261.636 17.8048 263.397 17.8048C263.785 17.8034 264.166 17.7079 264.509 17.5265C265.108 17.2348 265.764 17.077 266.43 17.064C267.096 17.051 267.757 17.1832 268.368 17.4514C268.884 17.6816 269.443 17.8006 270.008 17.8006C270.574 17.8006 271.132 17.6816 271.649 17.4514C272.255 17.1886 272.91 17.0593 273.57 17.0722C274.23 17.0852 274.879 17.2401 275.474 17.5265C275.817 17.7081 276.198 17.8036 276.586 17.8048C278.347 17.8048 279.775 15.8067 279.775 13.3383C279.778 12.3938 279.544 11.4637 279.095 10.6333Z" fill="#F2F2F2"/>
<path opacity="0.03" d="M274.33 17.1703C273.41 16.9963 272.46 17.1 271.599 17.4681C271.083 17.6983 270.524 17.8173 269.958 17.8173C269.393 17.8173 268.834 17.6983 268.318 17.4681C267.707 17.1998 267.045 17.0676 266.379 17.0806C265.712 17.0936 265.056 17.2514 264.456 17.5432C264.114 17.7254 263.732 17.8209 263.345 17.8215C261.778 17.8215 260.478 16.2436 260.205 14.162C260.517 13.936 260.783 13.6526 260.989 13.3272C261.906 11.8467 263.328 10.8977 264.923 10.8977C266.518 10.8977 267.921 11.8355 268.837 13.2993C269.111 13.7421 269.494 14.1065 269.95 14.3572C270.405 14.6078 270.918 14.7361 271.438 14.7297H271.479C272.727 14.7102 273.797 15.7121 274.33 17.1703Z" fill="black"/>
<path d="M216.659 36.9037L220.732 39.4973L218.265 35.003C218.965 34.4452 219.83 34.1368 220.724 34.1264H220.788C221.067 34.1306 221.346 34.1101 221.621 34.0652L222.996 34.939L222.399 33.8648C223.373 33.5216 224.216 32.8812 224.808 32.0337L227.272 33.5976L225.733 30.7619C227.175 29.0309 229.117 27.979 231.253 27.979C233.818 27.979 236.099 29.504 237.574 31.875C238.008 32.5855 238.623 33.1684 239.355 33.5647C240.086 33.961 240.91 34.1567 241.741 34.1319H241.88C244.708 34.1319 247 37.3434 247 41.3062C247 45.269 244.708 48.4832 241.88 48.4832C241.257 48.4808 240.644 48.3271 240.094 48.0352C239.131 47.5666 238.078 47.3132 237.008 47.2926C235.937 47.2719 234.875 47.4845 233.895 47.9155C233.065 48.2873 232.166 48.4795 231.256 48.4795C230.346 48.4795 229.447 48.2873 228.617 47.9155C227.644 47.4933 226.591 47.2855 225.531 47.3061C224.471 47.3267 223.427 47.5754 222.471 48.0352C221.926 48.3193 221.321 48.4691 220.707 48.4721C217.876 48.4721 215.584 45.2607 215.584 41.2951C215.569 39.7641 215.939 38.2539 216.659 36.9037Z" fill="#F2F2F2"/>
<path opacity="0.03" d="M224.313 47.4146C225.791 47.1355 227.319 47.3021 228.703 47.8932C229.533 48.265 230.432 48.4572 231.342 48.4572C232.252 48.4572 233.151 48.265 233.981 47.8932C234.962 47.4621 236.024 47.2495 237.095 47.2702C238.166 47.2909 239.219 47.5443 240.182 48.0129C240.732 48.3048 241.344 48.4585 241.966 48.4609C244.48 48.4609 246.57 45.9257 247.006 42.5807C246.504 42.2129 246.078 41.7519 245.75 41.2227C244.275 38.8461 241.994 37.3267 239.429 37.3267C236.865 37.3267 234.615 38.835 233.139 41.1893C232.701 41.8986 232.086 42.4825 231.356 42.8846C230.626 43.2868 229.805 43.4936 228.972 43.4852H228.908C226.891 43.4657 225.158 45.0742 224.313 47.4146Z" fill="black"/>
<path d="M163.5 179C253.799 179 327 176.384 327 173.156C327 169.928 253.799 167.312 163.5 167.312C73.2014 167.312 0 169.928 0 173.156C0 176.384 73.2014 179 163.5 179Z" fill="#3F3D56"/>
<path d="M273.68 43.4045H53.3202C50.1869 43.4045 47.647 45.9487 47.647 49.0871V164.621C47.647 167.759 50.1869 170.304 53.3202 170.304H273.68C276.813 170.304 279.353 167.759 279.353 164.621V49.0871C279.353 45.9487 276.813 43.4045 273.68 43.4045Z" fill="#F2F2F2"/>
<path d="M279.353 49.0871V52.3097H47.647V49.0871C47.647 47.58 48.2447 46.1346 49.3086 45.0689C50.3725 44.0032 51.8155 43.4045 53.3202 43.4045H273.68C275.184 43.4045 276.627 44.0032 277.691 45.0689C278.755 46.1346 279.353 47.58 279.353 49.0871Z" fill="#3F3D56"/>
<path d="M53.6203 49.6659C54.541 49.6659 55.2873 48.9184 55.2873 47.9962C55.2873 47.074 54.541 46.3265 53.6203 46.3265C52.6997 46.3265 51.9534 47.074 51.9534 47.9962C51.9534 48.9184 52.6997 49.6659 53.6203 49.6659Z" fill="#6C63FF"/>
<path d="M57.7876 49.6659C58.7082 49.6659 59.4545 48.9184 59.4545 47.9962C59.4545 47.074 58.7082 46.3265 57.7876 46.3265C56.8669 46.3265 56.1206 47.074 56.1206 47.9962C56.1206 48.9184 56.8669 49.6659 57.7876 49.6659Z" fill="#6C63FF"/>
<path d="M61.955 49.6659C62.8757 49.6659 63.622 48.9184 63.622 47.9962C63.622 47.074 62.8757 46.3265 61.955 46.3265C61.0344 46.3265 60.2881 47.074 60.2881 47.9962C60.2881 48.9184 61.0344 49.6659 61.955 49.6659Z" fill="#6C63FF"/>
<path d="M107.021 67.0589H85.5117C84.0862 67.0589 82.9307 68.2164 82.9307 69.6442V86.18C82.9307 87.6078 84.0862 88.7653 85.5117 88.7653H107.021C108.446 88.7653 109.602 87.6078 109.602 86.18V69.6442C109.602 68.2164 108.446 67.0589 107.021 67.0589Z" fill="white"/>
<path d="M138.137 67.0589H116.628C115.203 67.0589 114.047 68.2164 114.047 69.6442V86.18C114.047 87.6078 115.203 88.7653 116.628 88.7653H138.137C139.563 88.7653 140.718 87.6078 140.718 86.18V69.6442C140.718 68.2164 139.563 67.0589 138.137 67.0589Z" fill="#6C63FF"/>
<path d="M169.254 67.0589H147.745C146.319 67.0589 145.164 68.2164 145.164 69.6442V86.18C145.164 87.6078 146.319 88.7653 147.745 88.7653H169.254C170.679 88.7653 171.835 87.6078 171.835 86.18V69.6442C171.835 68.2164 170.679 67.0589 169.254 67.0589Z" fill="white"/>
<path d="M200.37 67.0589H178.861C177.436 67.0589 176.28 68.2164 176.28 69.6442V86.18C176.28 87.6078 177.436 88.7653 178.861 88.7653H200.37C201.796 88.7653 202.951 87.6078 202.951 86.18V69.6442C202.951 68.2164 201.796 67.0589 200.37 67.0589Z" fill="white"/>
<path d="M231.486 67.0589H209.977C208.552 67.0589 207.396 68.2164 207.396 69.6442V86.18C207.396 87.6078 208.552 88.7653 209.977 88.7653H231.486C232.912 88.7653 234.067 87.6078 234.067 86.18V69.6442C234.067 68.2164 232.912 67.0589 231.486 67.0589Z" fill="#6C63FF"/>
<path d="M107.021 103.515H85.5117C84.0862 103.515 82.9307 104.672 82.9307 106.1V122.636C82.9307 124.064 84.0862 125.221 85.5117 125.221H107.021C108.446 125.221 109.602 124.064 109.602 122.636V106.1C109.602 104.672 108.446 103.515 107.021 103.515Z" fill="white"/>
<path d="M138.137 103.515H116.628C115.203 103.515 114.047 104.672 114.047 106.1V122.636C114.047 124.064 115.203 125.221 116.628 125.221H138.137C139.563 125.221 140.718 124.064 140.718 122.636V106.1C140.718 104.672 139.563 103.515 138.137 103.515Z" fill="white"/>
<path d="M169.254 103.515H147.745C146.319 103.515 145.164 104.672 145.164 106.1V122.636C145.164 124.064 146.319 125.221 147.745 125.221H169.254C170.679 125.221 171.835 124.064 171.835 122.636V106.1C171.835 104.672 170.679 103.515 169.254 103.515Z" fill="#6C63FF"/>
<path d="M200.37 103.515H178.861C177.436 103.515 176.28 104.672 176.28 106.1V122.636C176.28 124.064 177.436 125.221 178.861 125.221H200.37C201.796 125.221 202.951 124.064 202.951 122.636V106.1C202.951 104.672 201.796 103.515 200.37 103.515Z" fill="white"/>
<path d="M231.486 103.515H209.977C208.552 103.515 207.396 104.672 207.396 106.1V122.636C207.396 124.064 208.552 125.221 209.977 125.221H231.486C232.912 125.221 234.067 124.064 234.067 122.636V106.1C234.067 104.672 232.912 103.515 231.486 103.515Z" fill="white"/>
<path d="M107.021 139.97H85.5117C84.0862 139.97 82.9307 141.128 82.9307 142.556V159.091C82.9307 160.519 84.0862 161.677 85.5117 161.677H107.021C108.446 161.677 109.602 160.519 109.602 159.091V142.556C109.602 141.128 108.446 139.97 107.021 139.97Z" fill="white"/>
<path d="M138.137 139.97H116.628C115.203 139.97 114.047 141.128 114.047 142.556V159.091C114.047 160.519 115.203 161.677 116.628 161.677H138.137C139.563 161.677 140.718 160.519 140.718 159.091V142.556C140.718 141.128 139.563 139.97 138.137 139.97Z" fill="white"/>
<path d="M169.254 139.97H147.745C146.319 139.97 145.164 141.128 145.164 142.556V159.091C145.164 160.519 146.319 161.677 147.745 161.677H169.254C170.679 161.677 171.835 160.519 171.835 159.091V142.556C171.835 141.128 170.679 139.97 169.254 139.97Z" fill="white"/>
<path opacity="0.3" d="M200.37 139.97H178.861C177.436 139.97 176.28 141.128 176.28 142.556V159.091C176.28 160.519 177.436 161.677 178.861 161.677H200.37C201.796 161.677 202.951 160.519 202.951 159.091V142.556C202.951 141.128 201.796 139.97 200.37 139.97Z" fill="#6C63FF"/>
<path d="M231.486 139.97H209.977C208.552 139.97 207.396 141.128 207.396 142.556V159.091C207.396 160.519 208.552 161.677 209.977 161.677H231.486C232.912 161.677 234.067 160.519 234.067 159.091V142.556C234.067 141.128 232.912 139.97 231.486 139.97Z" fill="white"/>
<path d="M146.892 63.0627L145.486 61.6462C145.417 61.5761 145.334 61.5205 145.243 61.4825C145.152 61.4445 145.055 61.425 144.957 61.425C144.858 61.425 144.761 61.4445 144.67 61.4825C144.579 61.5205 144.497 61.5761 144.427 61.6462L135.604 70.4095L131.872 66.6415C131.804 66.572 131.722 66.5168 131.632 66.4792C131.542 66.4415 131.445 66.4221 131.347 66.4221C131.25 66.4221 131.153 66.4415 131.063 66.4792C130.973 66.5168 130.891 66.572 130.822 66.6415L129.402 68.0468C129.263 68.1885 129.185 68.3794 129.185 68.5784C129.185 68.7773 129.263 68.9682 129.402 69.1099L135.067 74.8287C135.209 74.9684 135.399 75.0467 135.598 75.0467C135.797 75.0467 135.987 74.9684 136.129 74.8287L146.892 64.1258C146.962 64.0564 147.018 63.9736 147.056 63.8824C147.094 63.7911 147.114 63.6932 147.114 63.5942C147.114 63.4953 147.094 63.3973 147.056 63.3061C147.018 63.2148 146.962 63.1321 146.892 63.0627Z" fill="#3ACC6C"/>
<path d="M241.352 63.0627L239.946 61.6462C239.877 61.5761 239.795 61.5205 239.704 61.4825C239.613 61.4445 239.516 61.425 239.417 61.425C239.319 61.425 239.221 61.4445 239.13 61.4825C239.04 61.5205 238.957 61.5761 238.888 61.6462L230.064 70.4095L226.333 66.6415C226.264 66.572 226.183 66.5168 226.092 66.4792C226.002 66.4415 225.906 66.4221 225.808 66.4221C225.71 66.4221 225.614 66.4415 225.523 66.4792C225.433 66.5168 225.352 66.572 225.283 66.6415L223.863 68.0468C223.724 68.1885 223.646 68.3794 223.646 68.5784C223.646 68.7773 223.724 68.9682 223.863 69.1099L229.528 74.8287C229.669 74.9684 229.86 75.0467 230.059 75.0467C230.257 75.0467 230.448 74.9684 230.589 74.8287L241.352 64.1258C241.423 64.0564 241.479 63.9736 241.517 63.8824C241.555 63.7911 241.575 63.6932 241.575 63.5942C241.575 63.4953 241.555 63.3973 241.517 63.3061C241.479 63.2148 241.423 63.1321 241.352 63.0627Z" fill="#3ACC6C"/>
<path d="M178.008 99.2401L176.602 97.8236C176.533 97.7535 176.451 97.6978 176.36 97.6599C176.269 97.6219 176.171 97.6024 176.073 97.6024C175.975 97.6024 175.877 97.6219 175.786 97.6599C175.695 97.6978 175.613 97.7535 175.544 97.8236L166.72 106.587L162.989 102.819C162.92 102.749 162.838 102.694 162.748 102.657C162.658 102.619 162.561 102.599 162.464 102.599C162.366 102.599 162.269 102.619 162.179 102.657C162.089 102.694 162.007 102.749 161.939 102.819L160.519 104.224C160.379 104.366 160.301 104.557 160.301 104.756C160.301 104.955 160.379 105.146 160.519 105.287L166.184 111.006C166.325 111.146 166.516 111.224 166.714 111.224C166.913 111.224 167.104 111.146 167.245 111.006L178.008 100.303C178.078 100.234 178.134 100.151 178.172 100.06C178.211 99.9685 178.23 99.8705 178.23 99.7716C178.23 99.6727 178.211 99.5747 178.172 99.4835C178.134 99.3922 178.078 99.3095 178.008 99.2401Z" fill="#3ACC6C"/>
<path d="M208.847 137.087L207.441 135.671C207.372 135.601 207.289 135.545 207.198 135.507C207.107 135.469 207.01 135.449 206.912 135.449C206.813 135.449 206.716 135.469 206.625 135.507C206.534 135.545 206.452 135.601 206.382 135.671L197.559 144.434L193.827 140.666C193.759 140.596 193.677 140.541 193.587 140.504C193.497 140.466 193.4 140.447 193.302 140.447C193.205 140.447 193.108 140.466 193.018 140.504C192.928 140.541 192.846 140.596 192.777 140.666L191.358 142.057C191.218 142.199 191.14 142.39 191.14 142.589C191.14 142.788 191.218 142.979 191.358 143.12L197.022 148.839C197.164 148.979 197.354 149.057 197.553 149.057C197.752 149.057 197.942 148.979 198.084 148.839L208.847 138.136C208.985 137.997 209.062 137.808 209.062 137.612C209.062 137.415 208.985 137.227 208.847 137.087Z" fill="#3ACC6C"/>
<path d="M281.27 172.09C280.437 170.557 281.381 168.676 282.462 167.309C283.543 165.943 284.854 164.526 284.826 162.776C284.785 160.271 282.131 158.791 280.012 157.463C278.438 156.479 276.986 155.31 275.689 153.982C275.145 153.471 274.695 152.868 274.361 152.201C273.922 151.221 273.933 150.108 273.961 149.037C274.055 145.464 274.232 141.893 274.491 138.326" stroke="#3F3D56" stroke-width="4" stroke-miterlimit="10"/>
<path d="M270.463 138.131C270.492 137.477 270.686 136.84 271.026 136.281C271.366 135.722 271.841 135.257 272.407 134.93L273.28 136.661L273.252 134.566C273.669 134.443 274.104 134.391 274.538 134.41C275.306 134.448 276.045 134.712 276.663 135.17C277.28 135.628 277.749 136.259 278.009 136.983C278.269 137.708 278.309 138.493 278.124 139.24C277.938 139.987 277.536 140.662 276.969 141.181C276.401 141.699 275.692 142.038 274.932 142.153C274.173 142.269 273.396 142.156 272.7 141.83C272.004 141.504 271.42 140.978 271.022 140.32C270.624 139.661 270.429 138.9 270.463 138.131Z" fill="#57B894"/>
<path d="M277.408 164.565C277.817 165.359 278.486 165.988 279.303 166.347C280.12 166.706 281.035 166.772 281.896 166.536C282.756 166.299 283.508 165.773 284.028 165.046C284.547 164.32 284.801 163.437 284.747 162.545C284.694 161.653 284.336 160.807 283.733 160.148C283.131 159.489 282.321 159.057 281.438 158.925C280.556 158.794 279.655 158.97 278.887 159.424C278.119 159.878 277.53 160.583 277.219 161.421L279.656 163.405L276.975 162.784C276.976 163.404 277.124 164.014 277.408 164.565Z" fill="#57B894"/>
<path d="M279.353 156.982C280.311 157.032 281.254 156.725 282 156.12C282.747 155.516 283.243 154.656 283.395 153.707C283.546 152.758 283.342 151.786 282.822 150.978C282.302 150.171 281.501 149.584 280.575 149.332L280.598 150.94L279.714 149.19C279.203 149.165 278.691 149.241 278.209 149.415C277.727 149.588 277.284 149.855 276.905 150.201C276.527 150.546 276.22 150.963 276.002 151.428C275.785 151.892 275.661 152.395 275.638 152.908C275.616 153.358 275.672 153.81 275.805 154.241C276.042 155.008 276.51 155.684 277.145 156.174C277.781 156.665 278.552 156.947 279.353 156.982Z" fill="#57B894"/>
<path d="M269.873 150.673C270.472 150.695 271.068 150.578 271.614 150.332C272.16 150.086 272.642 149.716 273.022 149.253C273.402 148.789 273.67 148.244 273.805 147.66C273.941 147.075 273.939 146.467 273.802 145.883C273.664 145.3 273.393 144.756 273.011 144.294C272.629 143.832 272.145 143.464 271.598 143.22C271.051 142.976 270.455 142.862 269.857 142.887C269.258 142.912 268.674 143.074 268.148 143.362L268.837 145.255L267.42 143.891C266.661 144.588 266.208 145.558 266.162 146.588C266.143 146.95 266.176 147.312 266.259 147.665C266.451 148.492 266.909 149.234 267.561 149.778C268.214 150.321 269.026 150.635 269.873 150.673Z" fill="#57B894"/>
<path opacity="0.1" d="M270.985 139.171C271.885 139.269 272.76 139.55 273.663 139.606C274.566 139.661 275.558 139.447 276.13 138.743C276.436 138.364 276.591 137.886 276.85 137.471C277.097 137.086 277.434 136.768 277.833 136.544C278.069 137.037 278.198 137.574 278.213 138.119C278.228 138.665 278.128 139.208 277.92 139.713C277.712 140.218 277.4 140.673 277.005 141.049C276.61 141.425 276.14 141.714 275.626 141.897C275.113 142.08 274.566 142.152 274.023 142.11C273.479 142.068 272.951 141.911 272.472 141.651C271.992 141.391 271.573 141.033 271.241 140.6C270.909 140.167 270.671 139.669 270.543 139.138C270.691 139.144 270.839 139.155 270.985 139.171Z" fill="black"/>
<path opacity="0.1" d="M269.874 150.673C270.546 150.707 271.216 150.566 271.818 150.263C272.419 149.96 272.932 149.506 273.306 148.945C273.68 148.384 273.902 147.736 273.95 147.063C273.999 146.39 273.872 145.716 273.583 145.107C273.273 145.316 273.007 145.582 272.799 145.892C272.521 146.312 272.352 146.799 272.027 147.183C271.418 147.899 270.382 148.132 269.44 148.091C268.499 148.049 267.59 147.779 266.662 147.693C266.532 147.693 266.401 147.673 266.268 147.67C266.461 148.496 266.917 149.235 267.568 149.777C268.219 150.319 269.028 150.634 269.874 150.673Z" fill="black"/>
<path opacity="0.1" d="M279.353 156.982C280.019 157.016 280.683 156.877 281.28 156.58C281.878 156.283 282.389 155.836 282.764 155.284C283.14 154.732 283.367 154.092 283.425 153.427C283.482 152.761 283.368 152.092 283.092 151.483C282.769 151.695 282.486 151.963 282.259 152.276C281.956 152.705 281.767 153.197 281.425 153.592C280.767 154.327 279.661 154.586 278.667 154.564C277.672 154.541 276.769 154.305 275.811 154.23C276.045 154.998 276.512 155.676 277.146 156.168C277.78 156.661 278.551 156.945 279.353 156.982Z" fill="black"/>
<path opacity="0.1" d="M277.408 164.565C277.83 165.51 278.609 166.247 279.574 166.616C280.539 166.985 281.611 166.955 282.554 166.533C283.496 166.11 284.233 165.33 284.601 164.363C284.97 163.397 284.94 162.323 284.518 161.379C284.195 161.589 283.907 161.847 283.662 162.144C283.29 162.595 283.045 163.11 282.617 163.536C281.82 164.32 280.534 164.649 279.386 164.674C278.725 164.677 278.065 164.641 277.408 164.565Z" fill="black"/>
<path d="M287.152 170.323C287.152 170.323 284.073 170.228 283.145 169.566C282.217 168.904 278.422 168.116 278.183 169.176C277.944 170.237 273.558 174.464 277.03 174.481C280.503 174.497 285.104 173.924 286.032 173.367C286.96 172.811 287.152 170.323 287.152 170.323Z" fill="#656380"/>
<path opacity="0.2" d="M276.969 174.113C280.445 174.141 285.043 173.571 285.968 173C286.674 172.569 286.954 171.027 287.049 170.315H287.152C287.152 170.315 286.957 172.803 286.04 173.376C285.123 173.949 280.514 174.511 277.039 174.489C276.036 174.489 275.691 174.124 275.711 173.596C275.841 173.907 276.222 174.099 276.969 174.113Z" fill="black"/>
<path d="M51.2005 170.721C49.9809 168.461 51.3644 165.69 52.9536 163.672C54.5427 161.654 56.482 159.559 56.4431 156.993C56.3819 153.3 52.4702 151.121 49.3419 149.162C47.0225 147.71 44.8832 145.987 42.9686 144.03C42.1721 143.275 41.5139 142.386 41.0238 141.403C40.3765 139.959 40.3959 138.317 40.4376 136.734C40.5709 131.465 40.8302 126.201 41.2155 120.941" stroke="#3F3D56" stroke-width="4" stroke-miterlimit="10"/>
<path d="M35.2587 120.649C35.3015 119.682 35.5869 118.742 36.0885 117.915C36.5901 117.088 37.2918 116.401 38.1287 115.918L39.4178 118.47L39.3789 115.381C40.5484 115.036 41.797 115.072 42.9446 115.484C44.0922 115.896 45.0793 116.663 45.7635 117.674C46.4476 118.685 46.7934 119.887 46.7509 121.108C46.7084 122.328 46.2798 123.503 45.5269 124.464C44.7741 125.424 43.736 126.12 42.5625 126.451C41.389 126.783 40.1409 126.732 38.9982 126.306C37.8556 125.88 36.8776 125.101 36.2055 124.083C35.5333 123.064 35.2018 121.857 35.2587 120.638V120.649Z" fill="#57B894"/>
<path d="M45.5132 159.628C46.1165 160.803 47.1046 161.734 48.312 162.266C49.5193 162.797 50.8724 162.897 52.1443 162.548C53.4162 162.198 54.5295 161.422 55.2975 160.348C56.0656 159.274 56.4416 157.968 56.3626 156.65C56.2836 155.331 55.7543 154.08 54.8636 153.106C53.9728 152.131 52.7747 151.494 51.4703 151.299C50.1658 151.105 48.8343 151.366 47.6991 152.038C46.5639 152.711 45.694 153.754 45.2354 154.992L48.8249 157.917L44.8687 157.001C44.8713 157.916 45.0923 158.817 45.5132 159.628Z" fill="#57B894"/>
<path d="M48.3528 148.447C49.7623 148.511 51.1461 148.053 52.2409 147.162C53.3356 146.27 54.0649 145.006 54.2899 143.611C54.515 142.216 54.2201 140.786 53.4615 139.595C52.7028 138.403 51.5332 137.532 50.1753 137.148L50.2059 139.519L48.9029 136.94H48.889C48.1277 136.892 47.3646 136.997 46.6441 137.248C45.9237 137.498 45.2602 137.89 44.6923 138.4C44.1244 138.91 43.6635 139.528 43.3364 140.219C43.0093 140.909 42.8226 141.657 42.787 142.42C42.7515 143.184 42.8678 143.946 43.1293 144.664C43.3908 145.382 43.7922 146.04 44.3102 146.601C44.8281 147.162 45.4523 147.614 46.1463 147.931C46.8404 148.248 47.5904 148.423 48.3528 148.447Z" fill="#57B894"/>
<path d="M34.3948 139.144C35.918 139.214 37.4067 138.676 38.534 137.647C39.6613 136.619 40.3349 135.184 40.4069 133.659C40.4505 132.717 40.2596 131.778 39.8513 130.929C39.5151 130.214 39.0355 129.576 38.4423 129.055C37.8491 128.534 37.1551 128.141 36.4036 127.9C35.652 127.66 34.8591 127.577 34.0742 127.657C33.2893 127.737 32.5293 127.978 31.8416 128.366L32.8556 131.148L30.7664 129.139C29.93 129.908 29.3393 130.907 29.0688 132.011C28.7983 133.115 28.86 134.275 29.2462 135.344C29.6323 136.413 30.3257 137.344 31.2389 138.019C32.1521 138.694 33.2444 139.084 34.3781 139.138L34.3948 139.144Z" fill="#57B894"/>
<path opacity="0.1" d="M36.0337 122.182C37.359 122.33 38.6509 122.739 39.9816 122.825C41.3124 122.911 42.7766 122.588 43.6184 121.55C44.0712 120.994 44.299 120.287 44.6824 119.677C45.0458 119.11 45.5428 118.641 46.1299 118.311C46.5002 119.041 46.7108 119.842 46.7476 120.66C46.7845 121.478 46.6468 122.295 46.3437 123.055C46.0406 123.816 45.5791 124.503 44.9899 125.071C44.4008 125.639 43.6975 126.074 42.9271 126.348C42.1566 126.622 41.3367 126.729 40.522 126.66C39.7073 126.592 38.9165 126.35 38.2023 125.952C37.4882 125.553 36.8672 125.006 36.3807 124.348C35.8941 123.69 35.5533 122.935 35.3809 122.135C35.5976 122.143 35.817 122.16 36.0337 122.182Z" fill="black"/>
<path opacity="0.1" d="M34.3947 139.144C35.9179 139.214 37.4066 138.676 38.5339 137.647C39.6612 136.619 40.3349 135.184 40.4069 133.659C40.4504 132.717 40.2595 131.778 39.8512 130.929C39.3952 131.237 39.0028 131.63 38.6955 132.086C38.2871 132.707 38.037 133.422 37.5564 133.99C36.6618 135.045 35.131 135.381 33.7446 135.326C32.3583 135.27 31.0164 134.869 29.6356 134.741C29.4439 134.724 29.2494 134.711 29.0549 134.705C29.3406 135.927 30.0169 137.021 30.9808 137.822C31.9446 138.624 33.1434 139.088 34.3947 139.144Z" fill="black"/>
<path opacity="0.1" d="M48.3527 148.447C49.334 148.493 50.3109 148.287 51.19 147.847C52.069 147.408 52.821 146.75 53.3741 145.937C53.9272 145.124 54.263 144.182 54.3494 143.202C54.4357 142.221 54.2699 141.235 53.8675 140.338C53.3948 140.65 52.9833 141.048 52.6534 141.509C52.2061 142.141 51.9283 142.867 51.4032 143.457C50.4336 144.54 48.8028 144.921 47.3331 144.888C45.9106 144.854 44.5382 144.506 43.124 144.398C43.4745 145.529 44.1645 146.525 45.1001 147.249C46.0357 147.974 47.1714 148.392 48.3527 148.447Z" fill="black"/>
<path opacity="0.1" d="M45.5132 159.628C46.1867 160.938 47.3355 161.94 48.7235 162.427C50.1115 162.914 51.6331 162.85 52.9755 162.248C54.3179 161.646 55.379 160.552 55.9408 159.191C56.5025 157.829 56.5221 156.304 55.9955 154.928C55.5224 155.236 55.0966 155.611 54.7314 156.041C54.1758 156.709 53.8257 157.466 53.1923 158.089C52.0171 159.244 50.1195 159.72 48.4303 159.759C47.4562 159.773 46.4822 159.73 45.5132 159.628Z" fill="black"/>
<path d="M59.8712 168.119C59.8712 168.119 55.3343 167.98 53.9646 167.006C52.5949 166.032 46.9856 164.866 46.6467 166.43C46.3077 167.994 39.8261 174.222 44.9492 174.252C50.0723 174.283 56.854 173.454 58.2181 172.619C59.5822 171.784 59.8712 168.119 59.8712 168.119Z" fill="#656380"/>
<path opacity="0.2" d="M44.8689 173.704C49.992 173.746 56.7737 172.905 58.1378 172.073C59.1769 171.439 59.5936 169.163 59.7297 168.113H59.8825C59.8825 168.113 59.6047 171.778 58.2295 172.611C56.8542 173.443 50.0836 174.28 44.9606 174.244C43.4825 174.244 42.9713 173.704 42.9991 172.925C43.2019 173.401 43.7576 173.696 44.8689 173.704Z" fill="black"/>
<path d="M239.28 156.846C239.233 156.962 239.203 157.085 239.191 157.21C238.749 160.124 236.207 162.275 235.279 165.072C234.684 166.89 234.801 168.867 235.607 170.601C235.752 170.844 235.838 171.118 235.86 171.4C235.86 171.678 235.637 171.982 235.357 171.957C234.684 171.912 234.154 171.4 233.593 171.038C232.891 170.605 232.281 170.038 231.798 169.369C231.558 169.032 231.388 168.652 231.297 168.249C231.206 167.846 231.196 167.429 231.267 167.023C231.601 165.503 232.759 164.148 233.12 162.634L234.068 158.707C234.197 157.967 234.46 157.257 234.846 156.612C234.994 156.357 235.226 156.16 235.501 156.055C235.663 156.016 235.83 156.003 235.996 156.016C237.093 156.064 238.235 156.475 239.28 156.846Z" fill="#FFC1C7"/>
<path d="M235.387 170.139C235.487 170.117 235.592 170.125 235.687 170.162C235.814 170.249 235.912 170.373 235.965 170.518C236.265 171.074 236.719 171.532 237.274 171.834C237.498 171.934 237.712 172.055 237.913 172.196C238.013 172.268 238.093 172.363 238.147 172.474C238.201 172.585 238.226 172.707 238.221 172.83C238.177 173.195 237.779 173.387 237.429 173.495C236.678 173.715 235.89 173.785 235.112 173.699C234.821 173.682 234.537 173.602 234.279 173.465C234.026 173.29 233.808 173.069 233.637 172.814C233.028 171.971 232.34 171.189 231.581 170.479C231.195 170.174 230.834 169.838 230.503 169.474C230.338 169.291 230.213 169.076 230.135 168.842C230.057 168.609 230.028 168.362 230.05 168.116C230.159 167.393 230.842 166.92 231.273 166.327C231.964 167.217 232.662 168.122 233.084 169.168C233.223 169.589 233.396 169.997 233.601 170.39C233.798 170.715 234.081 171.091 234.434 170.88C234.787 170.668 234.873 170.228 235.387 170.139Z" fill="#FF6584"/>
<path d="M243.739 135.493C243.946 136.015 244.031 136.579 243.986 137.14L243.961 141.295C243.977 142.103 243.934 142.911 243.833 143.713C243.614 145.157 243.022 146.524 242.763 147.963C242.519 149.312 242.566 150.715 242.169 152.028C241.552 154.063 239.919 155.674 239.343 157.722C239.322 157.846 239.265 157.961 239.18 158.053C239.112 158.107 239.032 158.142 238.946 158.153C238.486 158.196 238.023 158.11 237.61 157.903L234.623 156.729C234.418 156.818 234.276 156.581 234.287 156.353C234.322 156.129 234.426 155.922 234.584 155.76C234.948 155.295 235.27 154.799 235.546 154.277C236.379 152.605 236.853 150.776 236.935 148.909C237.01 147.052 236.955 145.192 236.771 143.343C236.669 142.004 236.567 140.666 236.465 139.33C236.418 138.693 236.382 138.003 236.743 137.471C237.104 136.94 237.718 136.72 238.31 136.536C240.076 135.992 241.897 135.642 243.739 135.493Z" fill="#3C354C"/>
<path opacity="0.1" d="M243.739 135.493C243.946 136.015 244.031 136.579 243.986 137.14L243.961 141.295C243.977 142.103 243.934 142.911 243.833 143.713C243.614 145.157 243.022 146.524 242.763 147.963C242.519 149.312 242.566 150.715 242.169 152.028C241.552 154.063 239.919 155.674 239.343 157.722C239.322 157.846 239.265 157.961 239.18 158.053C239.112 158.107 239.032 158.142 238.946 158.153C238.486 158.196 238.023 158.11 237.61 157.903L234.623 156.729C234.418 156.818 234.276 156.581 234.287 156.353C234.322 156.129 234.426 155.922 234.584 155.76C234.948 155.295 235.27 154.799 235.546 154.277C236.379 152.605 236.853 150.776 236.935 148.909C237.01 147.052 236.955 145.192 236.771 143.343C236.669 142.004 236.567 140.666 236.465 139.33C236.418 138.693 236.382 138.003 236.743 137.471C237.104 136.94 237.718 136.72 238.31 136.536C240.076 135.992 241.897 135.642 243.739 135.493Z" fill="black"/>
<path d="M250.279 141.787C249.867 142.384 249.532 143.03 249.281 143.71C249.129 144.222 249.016 144.745 248.945 145.274C248.556 147.732 248.164 150.211 248.314 152.694C248.072 152.751 247.82 152.75 247.578 152.69C247.336 152.63 247.112 152.513 246.925 152.348C246.551 152.017 246.243 151.617 246.017 151.171C245.735 150.689 245.485 150.189 245.269 149.674C244.792 148.517 244.552 147.277 244.561 146.026C244.553 145.924 244.57 145.822 244.611 145.728C244.65 145.662 244.7 145.602 244.758 145.553C246.389 144.005 247.328 141.882 248.225 139.82C248.547 139.146 248.797 138.44 248.97 137.713C249.117 136.979 249.128 136.166 249.592 135.579C250.009 135.056 250.704 134.836 251.354 134.744C251.826 134.66 252.312 134.68 252.776 134.802C253.282 134.958 254.479 135.551 254.549 136.149C254.618 136.748 253.551 137.513 253.204 137.911C252.138 139.131 251.16 140.427 250.279 141.787Z" fill="#FFC1C7"/>
<path d="M249.287 152.671C249.642 153.27 250.14 153.937 249.887 154.583C249.634 155.229 248.709 155.373 248.153 154.975C247.994 154.853 247.848 154.713 247.72 154.558C246.186 152.842 244.792 151.005 243.553 149.065C243.091 148.344 242.641 147.576 242.563 146.724C242.549 146.63 242.563 146.533 242.602 146.446C242.657 146.366 242.732 146.303 242.819 146.262C243.578 145.832 244.386 145.496 245.225 145.26C245.205 146.214 245.451 147.153 245.936 147.974C246.291 148.568 246.598 149.19 246.853 149.833C247.042 150.3 247.237 150.336 247.723 150.342C248.114 150.342 248.395 150.295 248.584 150.693C248.884 151.316 248.906 152.031 249.287 152.671Z" fill="#FF6584"/>
<path d="M238.874 128.46C242.447 128.516 246.014 128.766 249.578 129.017L251.896 129.181C252.578 129.201 253.256 129.302 253.915 129.482C254.543 129.709 255.143 130.007 255.705 130.369C255.897 130.467 256.067 130.603 256.205 130.77C256.311 130.94 256.383 131.129 256.416 131.327C256.547 131.742 256.591 132.179 256.546 132.612C256.478 132.922 256.362 133.219 256.205 133.494L254.582 136.706C254.063 136.536 253.66 136.197 253.151 135.996C252.539 135.789 251.902 135.668 251.257 135.634L249.567 135.467C249.512 135.366 249.495 135.247 249.52 135.134C248.037 135.651 246.559 136.133 245.075 136.65C242.352 137.599 239.624 138.551 237.001 139.753C236.612 139.931 236.168 140.118 235.771 139.967C235.627 139.906 235.497 139.82 235.384 139.711C234.735 139.092 234.314 138.271 234.19 137.382C234.067 136.499 234.08 135.603 234.229 134.724C234.479 132.913 235.026 131.018 236.41 129.824C237.14 129.175 237.907 128.435 238.874 128.46Z" fill="#3C354C"/>
<path opacity="0.1" d="M253.087 131.588C252.289 131.977 251.521 132.427 250.792 132.935C250.683 133.007 250.582 133.09 250.49 133.183C250.422 133.26 250.36 133.342 250.303 133.428C249.945 133.894 249.679 134.425 249.52 134.992" stroke="black" stroke-miterlimit="10"/>
<path d="M216.315 127.25C215.815 127.67 215.52 128.277 215.167 128.828C214.32 130.163 213.103 131.238 212.267 132.582C211.908 133.16 211.611 133.801 211.1 134.251C210.489 134.808 209.644 135 208.827 135.064C208.091 135.117 207.313 135.081 206.663 135.434C206.107 135.74 205.718 136.294 205.363 136.826V136.842C205.289 136.953 205.252 137.085 205.258 137.219C205.264 137.353 205.312 137.481 205.396 137.585C205.479 137.689 205.594 137.764 205.723 137.799C205.852 137.833 205.989 137.826 206.113 137.777C206.71 137.546 207.327 137.366 207.955 137.24C208.51 137.155 209.057 137.031 209.594 136.867C210.11 136.661 210.602 136.398 211.061 136.085C211.465 135.844 211.85 135.573 212.214 135.275C212.661 134.894 213.047 134.441 213.47 134.037C214.089 133.527 214.738 133.054 215.415 132.623C217.193 131.376 218.676 129.752 219.76 127.867C219.89 127.683 219.959 127.462 219.957 127.236C219.917 127.028 219.821 126.835 219.679 126.679C219.187 126.053 218.74 125.541 218.057 126.123C217.518 126.571 216.843 126.79 216.315 127.25Z" fill="#FFC1C7"/>
<path d="M230.292 113.689C230.298 113.867 230.36 114.038 230.47 114.178C230.653 114.365 230.956 114.326 231.217 114.309C231.574 114.274 231.934 114.316 232.273 114.434C232.612 114.551 232.921 114.742 233.179 114.991C233.654 115.489 233.84 116.193 233.951 116.875C234.076 117.442 234.059 118.031 233.901 118.589C233.637 119.235 233.129 119.749 232.487 120.02C231.851 120.286 231.178 120.451 230.492 120.51C229.922 120.61 229.339 120.61 228.769 120.51C228.094 120.354 227.508 119.953 226.9 119.616C226.474 119.413 226.063 119.181 225.669 118.921C225.272 118.655 224.986 118.253 224.866 117.791C224.831 117.674 224.831 117.549 224.868 117.433C224.904 117.316 224.974 117.213 225.069 117.137C225.168 117.091 225.272 117.059 225.38 117.042C225.606 116.985 225.813 116.868 225.98 116.704C226.146 116.541 226.266 116.335 226.327 116.11C226.514 115.389 226.066 114.663 226.022 113.92C226 113.704 226.045 113.487 226.152 113.299C226.314 113.094 226.531 112.939 226.777 112.854L228.167 112.23C228.585 111.999 229.023 111.805 229.475 111.649C229.917 111.535 229.947 111.841 230.031 112.205C230.134 112.704 230.225 113.196 230.292 113.689Z" fill="#FFC1C7"/>
<path opacity="0.1" d="M230.292 113.689C230.298 113.867 230.36 114.038 230.47 114.178C230.653 114.365 230.956 114.326 231.217 114.309C231.574 114.274 231.934 114.316 232.273 114.434C232.612 114.551 232.921 114.742 233.179 114.991C233.654 115.489 233.84 116.193 233.951 116.875C234.076 117.442 234.059 118.031 233.901 118.589C233.637 119.235 233.129 119.749 232.487 120.02C231.851 120.286 231.178 120.451 230.492 120.51C229.922 120.61 229.339 120.61 228.769 120.51C228.094 120.354 227.508 119.953 226.9 119.616C226.474 119.413 226.063 119.181 225.669 118.921C225.272 118.655 224.986 118.253 224.866 117.791C224.831 117.674 224.831 117.549 224.868 117.433C224.904 117.316 224.974 117.213 225.069 117.137C225.168 117.091 225.272 117.059 225.38 117.042C225.606 116.985 225.813 116.868 225.98 116.704C226.146 116.541 226.266 116.335 226.327 116.11C226.514 115.389 226.066 114.663 226.022 113.92C226 113.704 226.045 113.487 226.152 113.299C226.314 113.094 226.531 112.939 226.777 112.854L228.167 112.23C228.585 111.999 229.023 111.805 229.475 111.649C229.917 111.535 229.947 111.841 230.031 112.205C230.134 112.704 230.225 113.196 230.292 113.689Z" fill="black"/>
<path d="M226.677 114.852C228.591 114.852 230.142 113.298 230.142 111.382C230.142 109.465 228.591 107.911 226.677 107.911C224.764 107.911 223.213 109.465 223.213 111.382C223.213 113.298 224.764 114.852 226.677 114.852Z" fill="#FFC1C7"/>
<path d="M230.703 114.546C231.217 114.313 231.768 114.174 232.331 114.134C232.612 114.117 232.894 114.162 233.156 114.266C233.418 114.37 233.654 114.53 233.848 114.735C234.173 115.116 234.281 115.631 234.54 116.057C235.051 116.892 236.048 117.273 236.846 117.844C237.034 117.967 237.196 118.126 237.323 118.311C237.601 118.734 237.526 119.277 237.521 119.778C237.548 121.018 237.899 122.229 238.54 123.29C239.182 124.347 239.916 125.344 240.735 126.27C240.928 126.482 241.089 126.721 241.213 126.98C241.408 127.447 241.352 128.012 241.641 128.427C240.946 128.34 240.24 128.436 239.593 128.705C238.59 129.12 238.543 130.589 238.071 131.569C237.198 133.38 235.987 135.003 234.834 136.65C234.531 137.043 234.274 137.47 234.067 137.922C233.862 137.485 234.003 136.965 233.978 136.483C233.923 135.406 233.301 134.441 233.126 133.378C233.066 132.845 233.035 132.31 233.034 131.775C232.987 130.964 232.811 130.165 232.514 129.409C232.171 128.602 231.758 127.827 231.281 127.091C231.058 126.655 230.74 126.275 230.35 125.978C229.889 125.677 229.253 125.591 228.961 125.124C228.89 124.961 228.797 124.809 228.683 124.673C228.586 124.6 228.477 124.544 228.361 124.509C227.793 124.241 227.244 123.936 226.716 123.596C226.16 123.292 225.53 123.067 224.916 123.203C223.778 124.527 222.488 125.711 221.074 126.732C220.635 127.055 220.162 127.386 219.946 127.887C219.254 127.555 218.634 127.091 218.12 126.521C218.039 126.441 217.973 126.346 217.926 126.242C217.784 125.836 218.204 125.471 218.537 125.215C219.785 124.273 220.742 122.997 221.299 121.534C221.657 120.59 221.893 119.505 222.71 118.912C222.969 118.763 223.213 118.591 223.441 118.397C223.642 118.119 223.827 117.829 223.996 117.529C224.173 117.299 224.414 117.127 224.688 117.034C224.963 116.941 225.258 116.931 225.538 117.006C225.855 117.13 226.163 117.278 226.458 117.448C227.227 117.796 228.111 117.727 228.958 117.632L232.212 117.301C232.265 117.119 232.271 116.926 232.229 116.741C232.187 116.556 232.099 116.385 231.973 116.243C231.839 116.117 231.695 116.003 231.542 115.901C231.116 115.559 230.82 115.08 230.703 114.546Z" fill="#FF6584"/>
<path d="M228.511 105.385C228.905 105.531 229.263 105.759 229.563 106.053C229.864 106.348 230.099 106.702 230.253 107.093C230.351 107.428 230.473 107.754 230.62 108.07C230.879 108.441 231.182 108.779 231.523 109.078C231.834 109.409 232.101 109.84 232.028 110.288C232.001 110.455 231.928 110.611 231.906 110.775C231.809 111.496 232.626 111.991 232.876 112.673C233.201 113.569 232.492 114.638 232.926 115.484C233.09 115.801 233.387 116.04 233.573 116.319C233.759 116.597 233.779 117.098 233.465 117.268C232.976 117.532 232.409 116.758 231.889 116.961C231.756 117.014 231.653 117.128 231.523 117.187C231.159 117.351 230.734 117.028 230.614 116.647C230.538 116.255 230.546 115.851 230.636 115.461C230.681 115.267 230.684 115.065 230.645 114.869C230.607 114.673 230.528 114.487 230.414 114.323C230.203 114.081 229.858 113.987 229.639 113.767C229.239 113.36 229.314 112.706 229.361 112.139C229.447 110.992 229.242 109.737 228.422 108.93C228.405 108.907 228.382 108.888 228.357 108.874C228.332 108.86 228.304 108.852 228.275 108.849C228.216 108.86 228.163 108.893 228.128 108.941C227.754 109.333 227.337 109.679 226.883 109.974C226.755 110.072 226.6 110.128 226.438 110.135C226.28 110.135 226.122 109.974 226.161 109.821C225.767 110.003 225.414 110.262 225.122 110.583C225.058 110.432 225.03 110.268 225.038 110.104C224.886 110.408 224.699 110.694 224.483 110.956C224.261 111.194 224.057 111.447 223.871 111.713C223.78 111.847 223.718 111.999 223.691 112.159C223.664 112.319 223.673 112.483 223.716 112.64C224.027 113.533 225.613 113.327 225.958 114.209C226.033 114.407 226.03 114.624 226.108 114.819C226.261 115.197 226.664 115.375 226.997 115.626C227.33 115.876 227.619 116.302 227.419 116.655C227.244 116.959 226.836 116.992 226.497 117.07C226.207 117.142 225.935 117.272 225.696 117.451C225.457 117.631 225.257 117.857 225.108 118.116C225.028 118.306 224.906 118.475 224.749 118.609C224.609 118.681 224.454 118.719 224.296 118.72C223.824 118.759 223.282 118.77 222.957 118.442C222.521 117.983 222.727 117.148 222.282 116.697C222.179 116.597 222.052 116.525 221.954 116.419C221.853 116.288 221.779 116.138 221.737 115.978C221.694 115.818 221.684 115.651 221.707 115.487C221.752 114.56 222.093 113.653 222.041 112.726C221.959 112.113 221.841 111.505 221.688 110.906C221.552 110.207 221.57 109.486 221.741 108.794C221.912 108.103 222.231 107.457 222.677 106.901C223.432 106.014 224.419 105.666 225.536 105.51C226.53 105.362 227.491 105.015 228.511 105.385Z" fill="#3C354C"/>
</g>
<defs>
<clipPath id="clip0">
<rect width="327" height="179" fill="white"/>
</clipPath>
</defs>
</svg>
