<svg width="845" height="635" viewBox="0 0 845 635" fill="none" xmlns="http://www.w3.org/2000/svg">
<g clip-path="url(#clip0)">
<path d="M249.377 627.819C262.999 616.329 271.273 598.178 269.103 580.508C266.933 562.837 253.493 546.593 236.06 542.841C218.627 539.088 198.754 549.475 193.459 566.475C190.544 533.7 187.186 499.552 169.73 471.641C153.924 446.369 126.548 428.285 96.8785 425.05C67.2088 421.815 35.9704 434.034 17.4665 457.41C-1.03738 480.787 -5.56801 514.772 7.39165 541.61C16.9386 561.381 34.5273 576.094 52.956 588.065C112.506 626.419 183.928 642.016 254.081 631.987L249.377 627.819Z" fill="#6FCF97"/>
<path d="M46.8063 434.711C71.2874 454.616 93.7463 476.878 113.858 501.176C145.333 539.071 170.803 581.559 189.38 627.158C190.74 630.485 185.329 631.933 183.984 628.643C153.588 554.534 105.064 489.216 42.8492 438.661C40.0555 436.39 44.0355 432.459 46.8063 434.711Z" fill="white"/>
<path d="M999.711 359.463C966.087 386.803 935.239 417.38 907.616 450.753C879.988 484.091 855.664 520.026 834.987 558.052C823.43 579.383 813.047 601.328 803.886 623.789C802.018 628.358 809.451 630.347 811.298 625.829C827.524 586.23 847.599 548.314 871.235 512.625C894.756 477.065 921.678 443.866 951.621 413.496C968.557 396.326 986.426 380.1 1005.15 364.889C1008.98 361.77 1003.52 356.37 999.711 359.463L999.711 359.463Z" fill="white"/>
<path d="M300.244 633.61H746.635V176.41C746.635 79.1369 667.358 0 569.913 0H476.965C379.521 0 300.244 79.1369 300.244 176.41V633.61Z" fill="#F2F2F2"/>
<path d="M393.191 633.61H746.634V176.41C746.732 139.137 734.908 102.806 712.885 72.7072C712.073 71.6027 711.264 70.5124 710.429 69.434C699.776 55.4873 687.099 43.2047 672.817 32.9916C672.01 32.4056 671.2 31.8298 670.378 31.2539C658.426 22.998 645.498 16.2489 631.888 11.1603C631.079 10.8545 630.256 10.5481 629.434 10.2542C617.124 5.86909 604.364 2.86531 591.388 1.29832C590.584 1.18862 589.758 1.10279 588.932 1.01695C576.288 -0.332637 563.535 -0.332637 550.891 1.01695C550.067 1.10279 549.241 1.18861 548.427 1.29949C535.455 2.86658 522.698 5.87 510.392 10.2543C509.569 10.5482 508.746 10.8546 507.935 11.161C494.492 16.1853 481.716 22.8337 469.892 30.9577C469.071 31.521 468.249 32.0969 467.439 32.6727C459.433 38.3773 451.913 44.7326 444.956 51.6737C439.377 57.2411 434.178 63.1758 429.394 69.4377C428.562 70.5125 427.752 71.6027 426.941 72.7055C404.917 102.805 393.093 139.136 393.191 176.41V633.61Z" fill="#CCCCCC"/>
<path d="M421.931 429.121C411.124 429.121 402.363 420.376 402.363 409.588C402.363 398.8 411.124 390.055 421.931 390.055C432.738 390.055 441.499 398.8 441.499 409.588C441.499 420.376 432.738 429.121 421.931 429.121Z" fill="#6C63FF"/>
<path d="M336.812 619.916H351.806L358.94 562.185L336.81 562.187L336.812 619.916Z" fill="#FFB8B8"/>
<path d="M362.516 615.639H333.6V633.814H380.723C380.723 631.427 380.252 629.064 379.337 626.859C378.422 624.653 377.081 622.65 375.39 620.962C373.7 619.275 371.692 617.936 369.484 617.023C367.275 616.109 364.907 615.639 362.516 615.639V615.639Z" fill="#2F2E41"/>
<path d="M262.21 619.916H277.204L284.337 562.185L262.207 562.187L262.21 619.916Z" fill="#FFB8B8"/>
<path d="M287.914 615.639H258.998V633.814H306.12C306.12 631.427 305.649 629.064 304.734 626.859C303.819 624.653 302.478 622.65 300.788 620.962C299.097 619.275 297.09 617.936 294.881 617.023C292.672 616.109 290.305 615.639 287.914 615.639V615.639Z" fill="#2F2E41"/>
<path d="M412.028 413.458C413.106 411.871 413.823 410.068 414.128 408.175C414.433 406.282 414.319 404.345 413.793 402.501C413.267 400.657 412.343 398.951 411.084 397.502C409.826 396.053 408.265 394.897 406.511 394.116L355.542 253.883L330.462 267.546L388.658 401.557C387.538 404.586 387.57 407.919 388.748 410.925C389.926 413.932 392.167 416.402 395.048 417.869C397.928 419.336 401.248 419.697 404.378 418.884C407.507 418.071 410.229 416.14 412.028 413.458V413.458Z" fill="#FFB8B8"/>
<path d="M269.869 439.808C271.535 438.854 272.972 437.547 274.077 435.98C275.183 434.412 275.931 432.621 276.268 430.734C276.606 428.846 276.524 426.908 276.03 425.055C275.536 423.202 274.64 421.48 273.407 420.01L289.197 271.668L260.655 272.97L254.093 418.884C251.756 421.115 250.321 424.125 250.059 427.342C249.797 430.56 250.726 433.762 252.671 436.341C254.615 438.92 257.44 440.697 260.61 441.336C263.78 441.975 267.074 441.432 269.869 439.808V439.808Z" fill="#FFB8B8"/>
<path d="M315.402 227.909C298.812 227.909 285.364 214.484 285.364 197.924C285.364 181.364 298.812 167.939 315.402 167.939C331.991 167.939 345.439 181.364 345.439 197.924C345.439 214.484 331.991 227.909 315.402 227.909Z" fill="#FFB8B8"/>
<path d="M270.061 406.07H360.619L360.51 405.367C360.348 404.315 344.371 299.84 356.154 265.66C357.337 262.301 357.233 258.625 355.862 255.338C354.492 252.051 351.952 249.386 348.732 247.856H348.731C331.889 239.939 299.558 230.189 272.27 253.85C268.254 257.389 265.119 261.812 263.111 266.769C261.103 271.726 260.278 277.082 260.701 282.412L270.061 406.07Z" fill="#6C63FF"/>
<path d="M343.226 315.28L383.997 307.023L364.886 261.816C363.742 257.437 360.906 253.69 356.998 251.397C353.091 249.103 348.431 248.45 344.042 249.581C339.653 250.713 335.893 253.535 333.586 257.43C331.279 261.325 330.614 265.975 331.736 270.359L343.226 315.28Z" fill="#6C63FF"/>
<path d="M291.01 330.61L293.461 274.524C295.319 263.98 289.273 254.013 279.974 252.384C270.673 250.761 261.591 258.074 259.724 268.694L250.511 321.102L291.01 330.61Z" fill="#6C63FF"/>
<path d="M273.074 399.356C258.502 454.753 256.913 525.186 260.844 602.013L280.412 599.572L315.878 453.072L335.446 602.013L357.46 600.792C364.036 520.182 370.44 450.978 359.906 405.46L273.074 399.356Z" fill="#2F2E41"/>
<path d="M295.61 221.097C301.213 227.056 311.62 223.857 312.35 215.717C312.408 215.085 312.403 214.449 312.338 213.817C311.961 210.212 309.874 206.938 310.374 203.131C310.487 202.183 310.841 201.28 311.401 200.507C315.867 194.538 326.349 203.177 330.563 197.773C333.148 194.46 330.11 189.243 332.093 185.54C334.71 180.652 342.462 183.064 347.324 180.387C352.733 177.409 352.409 169.124 348.849 164.085C344.507 157.94 336.893 154.661 329.375 154.189C321.856 153.716 314.39 155.745 307.37 158.476C299.395 161.578 291.487 165.866 286.579 172.866C280.61 181.379 280.036 192.824 283.021 202.779C284.837 208.834 291.034 216.231 295.61 221.097Z" fill="#2F2E41"/>
<path d="M490.418 501.15H649.407C651.501 501.161 653.514 500.343 655.004 498.875C656.494 497.407 657.34 495.408 657.356 493.318V139.071C657.34 136.981 656.494 134.982 655.004 133.514C653.514 132.046 651.501 131.228 649.407 131.239H490.418C488.325 131.228 486.312 132.046 484.821 133.514C483.331 134.982 482.485 136.981 482.469 139.071V493.318C482.485 495.408 483.331 497.407 484.821 498.875C486.312 500.343 488.325 501.161 490.418 501.15Z" fill="white"/>
<path d="M482.469 245.862H657.356V248.304H482.469V245.862Z" fill="#CCCCCC"/>
<path d="M481.857 385.171H656.745V387.613H481.857V385.171Z" fill="#CCCCCC"/>
<path d="M599.876 131.239H602.322V502.371H599.876V131.239Z" fill="#CCCCCC"/>
<path d="M538.726 131.239H541.172V502.371H538.726V131.239Z" fill="#CCCCCC"/>
</g>
<defs>
<clipPath id="clip0">
<rect width="1064" height="635" fill="white" transform="matrix(-1 0 0 1 1064 0)"/>
</clipPath>
</defs>
</svg>
