<svg width="677" height="428" viewBox="0 0 677 428" fill="none" xmlns="http://www.w3.org/2000/svg">
<path d="M273.582 197.776H13.1381C9.65488 197.772 6.31542 196.387 3.85239 193.925C1.38936 191.463 0.00390491 188.125 0 184.643V38.6281C0.00390491 35.1461 1.38936 31.8078 3.85239 29.3456C6.31542 26.8834 9.65488 25.4985 13.1381 25.4946H273.582C277.065 25.4985 280.405 26.8835 282.868 29.3456C285.331 31.8078 286.716 35.1461 286.72 38.6281V184.643C286.716 188.125 285.331 191.463 282.868 193.925C280.405 196.387 277.065 197.772 273.582 197.776ZM13.1381 27.0397C10.0647 27.0432 7.11811 28.2652 4.94485 30.4377C2.7716 32.6102 1.54914 35.5558 1.54566 38.6281V184.643C1.54914 187.715 2.7716 190.661 4.94485 192.833C7.11811 195.006 10.0647 196.228 13.1381 196.231H273.582C276.656 196.228 279.602 195.006 281.775 192.833C283.949 190.661 285.171 187.715 285.175 184.643V38.6281C285.171 35.5558 283.949 32.6102 281.775 30.4377C279.602 28.2652 276.656 27.0432 273.582 27.0397H13.1381Z" fill="#E6E6E6"/>
<path d="M207.583 83.6786H157.349C156.426 83.6786 155.542 84.0449 154.89 84.6969C154.237 85.3489 153.871 86.2331 153.871 87.1552C153.871 88.0772 154.237 88.9615 154.89 89.6135C155.542 90.2655 156.426 90.6317 157.349 90.6317H207.583C208.505 90.6317 209.39 90.2655 210.042 89.6135C210.694 88.9615 211.06 88.0772 211.06 87.1552C211.06 86.2331 210.694 85.3489 210.042 84.6969C209.39 84.0449 208.505 83.6786 207.583 83.6786Z" fill="#E6E6E6"/>
<path d="M256.549 105.697H156.684C155.131 105.697 153.871 107.257 153.871 109.173C153.871 111.089 155.131 112.65 156.684 112.65H256.549C258.103 112.65 259.362 111.089 259.362 109.173C259.362 107.257 258.103 105.697 256.549 105.697Z" fill="#E6E6E6"/>
<path d="M256.549 128.245H156.684C155.131 128.245 153.871 129.806 153.871 131.722C153.871 133.638 155.131 135.199 156.684 135.199H256.549C258.103 135.199 259.362 133.638 259.362 131.722C259.362 129.806 258.103 128.245 256.549 128.245Z" fill="#E6E6E6"/>
<path d="M119.016 165.715H32.4589C30.3075 165.712 28.2449 164.857 26.7236 163.336C25.2024 161.815 24.3466 159.754 24.3442 157.603V61.0325C24.3466 58.8818 25.2024 56.82 26.7236 55.2992C28.2449 53.7785 30.3075 52.923 32.4589 52.9206H119.016C121.167 52.923 123.23 53.7785 124.751 55.2992C126.273 56.82 127.128 58.8818 127.131 61.0325V157.603C127.128 159.754 126.273 161.815 124.751 163.336C123.23 164.857 121.167 165.712 119.016 165.715Z" fill="#E6E6E6"/>
<path d="M279.765 55.6245C295.13 55.6245 307.587 43.1726 307.587 27.8123C307.587 12.452 295.13 0 279.765 0C264.399 0 251.943 12.452 251.943 27.8123C251.943 43.1726 264.399 55.6245 279.765 55.6245Z" fill="#E6E6E6"/>
<path d="M642.995 197.776H382.551C379.068 197.772 375.729 196.387 373.266 193.925C370.803 191.463 369.417 188.125 369.413 184.643V38.6281C369.417 35.1461 370.803 31.8078 373.266 29.3456C375.729 26.8834 379.068 25.4985 382.551 25.4946H642.995C646.479 25.4985 649.818 26.8835 652.281 29.3456C654.744 31.8078 656.13 35.1461 656.134 38.6281V184.643C656.13 188.125 654.744 191.463 652.281 193.925C649.818 196.387 646.479 197.772 642.995 197.776ZM382.551 27.0397C379.478 27.0432 376.531 28.2652 374.358 30.4377C372.185 32.6102 370.962 35.5558 370.959 38.6281V184.643C370.962 187.715 372.185 190.661 374.358 192.833C376.531 195.006 379.478 196.228 382.551 196.231H642.995C646.069 196.228 649.015 195.006 651.189 192.833C653.362 190.661 654.584 187.715 654.588 184.643V38.6281C654.584 35.5558 653.362 32.6102 651.189 30.4377C649.015 28.2652 646.069 27.0432 642.995 27.0397H382.551Z" fill="#3F3D56"/>
<path d="M576.996 83.6786H526.762C525.84 83.6786 524.955 84.0449 524.303 84.6969C523.651 85.3489 523.284 86.2331 523.284 87.1552C523.284 88.0772 523.651 88.9615 524.303 89.6135C524.955 90.2655 525.84 90.6317 526.762 90.6317H576.996C577.918 90.6317 578.803 90.2655 579.455 89.6135C580.107 88.9615 580.474 88.0772 580.474 87.1552C580.474 86.2331 580.107 85.3489 579.455 84.6969C578.803 84.0449 577.918 83.6786 576.996 83.6786Z" fill="#3F3D56"/>
<path d="M625.962 105.697H526.097C524.544 105.697 523.284 107.257 523.284 109.173C523.284 111.089 524.544 112.65 526.097 112.65H625.962C627.516 112.65 628.776 111.089 628.776 109.173C628.776 107.257 627.516 105.697 625.962 105.697Z" fill="#3F3D56"/>
<path d="M625.962 128.245H526.097C524.544 128.245 523.284 129.806 523.284 131.722C523.284 133.638 524.544 135.199 526.097 135.199H625.962C627.516 135.199 628.776 133.638 628.776 131.722C628.776 129.806 627.516 128.245 625.962 128.245Z" fill="#3F3D56"/>
<path d="M488.429 165.715H401.872C399.721 165.712 397.658 164.857 396.137 163.336C394.616 161.815 393.76 159.754 393.757 157.603V61.0325C393.76 58.8818 394.616 56.82 396.137 55.2992C397.658 53.7785 399.721 52.923 401.872 52.9206H488.429C490.581 52.923 492.643 53.7785 494.165 55.2992C495.686 56.82 496.541 58.8818 496.544 61.0325V157.603C496.541 159.754 495.686 161.815 494.165 163.336C492.643 164.857 490.581 165.712 488.429 165.715Z" fill="#6C63FF"/>
<path d="M649.178 55.6245C664.544 55.6245 677 43.1726 677 27.8123C677 12.452 664.544 0 649.178 0C633.812 0 621.356 12.452 621.356 27.8123C621.356 43.1726 633.812 55.6245 649.178 55.6245Z" fill="#6C63FF"/>
<path d="M647.614 39.071C646.855 39.0724 646.117 38.8272 645.51 38.3723L645.472 38.3441L637.548 32.2791C637.18 31.9984 636.871 31.6479 636.639 31.2476C636.406 30.8474 636.255 30.4052 636.194 29.9466C636.133 29.4879 636.163 29.0216 636.282 28.5745C636.401 28.1274 636.608 27.7082 636.889 27.3408C637.171 26.9735 637.522 26.6653 637.923 26.4338C638.324 26.2024 638.766 26.0522 639.225 25.9919C639.684 25.9317 640.151 25.9625 640.598 26.0826C641.045 26.2027 641.464 26.4098 641.83 26.6919L646.963 30.6263L659.093 14.8132C659.374 14.4464 659.725 14.1386 660.125 13.9074C660.525 13.6762 660.967 13.5261 661.426 13.4656C661.884 13.4051 662.35 13.4354 662.796 13.5549C663.243 13.6744 663.662 13.8806 664.029 14.1619L663.953 14.2642L664.031 14.1633C664.771 14.7319 665.255 15.5708 665.377 16.4958C665.499 17.4208 665.249 18.3565 664.682 19.0976L650.415 37.6976C650.085 38.1262 649.661 38.473 649.175 38.7112C648.689 38.9494 648.155 39.0725 647.614 39.071Z" fill="white"/>
<path d="M273.582 428H13.1381C9.65488 427.996 6.31542 426.611 3.85239 424.149C1.38936 421.687 0.00390491 418.348 0 414.866V268.852C0.00390491 265.37 1.38936 262.032 3.85239 259.569C6.31542 257.107 9.65488 255.722 13.1381 255.718H273.582C277.065 255.722 280.405 257.107 282.868 259.569C285.331 262.032 286.716 265.37 286.72 268.852V414.866C286.716 418.348 285.331 421.687 282.868 424.149C280.405 426.611 277.065 427.996 273.582 428ZM13.1381 257.264C10.0647 257.267 7.11811 258.489 4.94485 260.662C2.7716 262.834 1.54914 265.78 1.54566 268.852V414.866C1.54914 417.939 2.7716 420.884 4.94485 423.057C7.11811 425.229 10.0647 426.451 13.1381 426.455H273.582C276.656 426.451 279.602 425.229 281.775 423.057C283.949 420.884 285.171 417.939 285.175 414.866V268.852C285.171 265.78 283.949 262.834 281.775 260.662C279.602 258.489 276.656 257.267 273.582 257.264H13.1381Z" fill="#3F3D56"/>
<path d="M207.583 313.902H157.349C156.426 313.902 155.542 314.269 154.89 314.921C154.237 315.573 153.871 316.457 153.871 317.379C153.871 318.301 154.237 319.185 154.89 319.837C155.542 320.489 156.426 320.856 157.349 320.856H207.583C208.505 320.856 209.39 320.489 210.042 319.837C210.694 319.185 211.06 318.301 211.06 317.379C211.06 316.457 210.694 315.573 210.042 314.921C209.39 314.269 208.505 313.902 207.583 313.902Z" fill="#3F3D56"/>
<path d="M256.549 335.921H156.684C155.131 335.921 153.871 337.481 153.871 339.397C153.871 341.313 155.131 342.874 156.684 342.874H256.549C258.103 342.874 259.362 341.313 259.362 339.397C259.362 337.481 258.103 335.921 256.549 335.921Z" fill="#3F3D56"/>
<path d="M256.549 358.469H156.684C155.131 358.469 153.871 360.03 153.871 361.946C153.871 363.862 155.131 365.422 156.684 365.422H256.549C258.103 365.422 259.362 363.862 259.362 361.946C259.362 360.03 258.103 358.469 256.549 358.469Z" fill="#3F3D56"/>
<path d="M119.016 395.939H32.4589C30.3075 395.936 28.2449 395.081 26.7236 393.56C25.2024 392.039 24.3466 389.977 24.3442 387.827V291.256C24.3466 289.106 25.2024 287.044 26.7236 285.523C28.2449 284.002 30.3075 283.147 32.4589 283.144H119.016C121.167 283.147 123.23 284.002 124.751 285.523C126.273 287.044 127.128 289.106 127.131 291.256V387.827C127.128 389.977 126.273 392.039 124.751 393.56C123.23 395.081 121.167 395.936 119.016 395.939Z" fill="#6C63FF"/>
<path d="M279.765 285.848C295.13 285.848 307.587 273.396 307.587 258.036C307.587 242.676 295.13 230.224 279.765 230.224C264.399 230.224 251.943 242.676 251.943 258.036C251.943 273.396 264.399 285.848 279.765 285.848Z" fill="#6C63FF"/>
<path d="M278.201 269.295C277.442 269.296 276.704 269.051 276.097 268.596L276.059 268.568L268.135 262.503C267.767 262.222 267.458 261.872 267.226 261.471C266.993 261.071 266.842 260.629 266.781 260.17C266.72 259.712 266.75 259.245 266.869 258.798C266.988 258.351 267.194 257.932 267.476 257.565C267.758 257.197 268.109 256.889 268.51 256.658C268.91 256.426 269.353 256.276 269.812 256.216C270.271 256.155 270.737 256.186 271.184 256.306C271.631 256.427 272.05 256.634 272.417 256.916L277.55 260.85L289.679 245.037C289.961 244.67 290.312 244.362 290.712 244.131C291.112 243.9 291.554 243.75 292.012 243.689C292.471 243.629 292.937 243.659 293.383 243.779C293.83 243.898 294.248 244.104 294.615 244.386L294.54 244.488L294.617 244.387C295.357 244.956 295.842 245.795 295.964 246.72C296.086 247.645 295.836 248.58 295.269 249.321L281.002 267.921C280.672 268.35 280.248 268.697 279.762 268.935C279.276 269.173 278.742 269.296 278.201 269.295Z" fill="white"/>
<path d="M642.995 428H382.551C379.068 427.996 375.729 426.611 373.266 424.149C370.803 421.687 369.417 418.348 369.413 414.866V268.852C369.417 265.37 370.803 262.032 373.266 259.569C375.729 257.107 379.068 255.722 382.551 255.718H642.995C646.479 255.722 649.818 257.107 652.281 259.569C654.744 262.032 656.13 265.37 656.134 268.852V414.866C656.13 418.348 654.744 421.687 652.281 424.149C649.818 426.611 646.479 427.996 642.995 428ZM382.551 257.264C379.478 257.267 376.531 258.489 374.358 260.662C372.185 262.834 370.962 265.78 370.959 268.852V414.866C370.962 417.939 372.185 420.884 374.358 423.057C376.531 425.229 379.478 426.451 382.551 426.455H642.995C646.069 426.451 649.015 425.229 651.189 423.057C653.362 420.884 654.584 417.939 654.588 414.866V268.852C654.584 265.78 653.362 262.834 651.189 260.662C649.015 258.489 646.069 257.267 642.995 257.264H382.551Z" fill="#3F3D56"/>
<path d="M576.996 313.902H526.762C525.84 313.902 524.955 314.269 524.303 314.921C523.651 315.573 523.284 316.457 523.284 317.379C523.284 318.301 523.651 319.185 524.303 319.837C524.955 320.489 525.84 320.856 526.762 320.856H576.996C577.918 320.856 578.803 320.489 579.455 319.837C580.107 319.185 580.474 318.301 580.474 317.379C580.474 316.457 580.107 315.573 579.455 314.921C578.803 314.269 577.918 313.902 576.996 313.902Z" fill="#3F3D56"/>
<path d="M625.962 335.921H526.097C524.544 335.921 523.284 337.481 523.284 339.397C523.284 341.313 524.544 342.874 526.097 342.874H625.962C627.516 342.874 628.776 341.313 628.776 339.397C628.776 337.481 627.516 335.921 625.962 335.921Z" fill="#3F3D56"/>
<path d="M625.962 358.469H526.097C524.544 358.469 523.284 360.03 523.284 361.946C523.284 363.862 524.544 365.422 526.097 365.422H625.962C627.516 365.422 628.776 363.862 628.776 361.946C628.776 360.03 627.516 358.469 625.962 358.469Z" fill="#3F3D56"/>
<path d="M488.429 395.939H401.872C399.721 395.936 397.658 395.081 396.137 393.56C394.616 392.039 393.76 389.977 393.757 387.827V291.256C393.76 289.106 394.616 287.044 396.137 285.523C397.658 284.002 399.721 283.147 401.872 283.144H488.429C490.581 283.147 492.643 284.002 494.165 285.523C495.686 287.044 496.541 289.106 496.544 291.256V387.827C496.541 389.977 495.686 392.039 494.165 393.56C492.643 395.081 490.581 395.936 488.429 395.939Z" fill="#6C63FF"/>
<path d="M649.178 285.848C664.544 285.848 677 273.396 677 258.036C677 242.676 664.544 230.224 649.178 230.224C633.812 230.224 621.356 242.676 621.356 258.036C621.356 273.396 633.812 285.848 649.178 285.848Z" fill="#6C63FF"/>
<path d="M647.614 269.295C646.855 269.296 646.117 269.051 645.51 268.596L645.472 268.568L637.548 262.503C637.18 262.222 636.871 261.872 636.639 261.471C636.406 261.071 636.255 260.629 636.194 260.17C636.133 259.712 636.163 259.245 636.282 258.798C636.401 258.351 636.608 257.932 636.889 257.565C637.171 257.197 637.522 256.889 637.923 256.658C638.324 256.426 638.766 256.276 639.225 256.216C639.684 256.155 640.151 256.186 640.598 256.306C641.045 256.427 641.464 256.634 641.83 256.916L646.963 260.85L659.093 245.037C659.374 244.67 659.725 244.362 660.125 244.131C660.525 243.9 660.967 243.75 661.426 243.689C661.884 243.629 662.35 243.659 662.796 243.779C663.243 243.898 663.662 244.104 664.029 244.386L663.953 244.488L664.031 244.387C664.771 244.956 665.255 245.795 665.377 246.72C665.499 247.645 665.249 248.58 664.682 249.321L650.415 267.921C650.085 268.35 649.661 268.697 649.175 268.935C648.689 269.173 648.155 269.296 647.614 269.295Z" fill="white"/>
<path d="M448.013 146.527C446.063 146.472 443.637 146.404 441.769 145.04C441.213 144.617 440.756 144.078 440.43 143.459C440.104 142.841 439.917 142.159 439.883 141.461C439.849 140.965 439.93 140.468 440.121 140.009C440.311 139.549 440.605 139.14 440.98 138.813C441.536 138.398 442.188 138.128 442.876 138.029C443.564 137.93 444.265 138.005 444.917 138.247L443.325 126.622L444.494 126.462L446.364 140.129L445.389 139.681C444.258 139.163 442.705 138.899 441.741 139.714C441.504 139.927 441.319 140.191 441.201 140.487C441.084 140.783 441.036 141.102 441.061 141.419C441.09 141.939 441.23 142.446 441.472 142.907C441.714 143.367 442.053 143.77 442.465 144.088C443.918 145.15 445.852 145.287 448.046 145.348L448.013 146.527Z" fill="white"/>
<path d="M437.548 127.624H431.198V128.803H437.548V127.624Z" fill="white"/>
<path d="M457.593 127.624H451.242V128.803H457.593V127.624Z" fill="white"/>
<path d="M420.165 111.348C415.051 110.765 411.091 105.867 410.656 100.897C410.138 94.9851 413.583 89.3698 418.308 86.052C423.25 82.5825 429.407 81.1336 435.364 80.8146C446.984 80.2365 458.405 83.9995 467.404 91.3718C471.868 95.0777 476.036 99.7986 477.616 105.501C478.989 110.453 477.872 116.063 473.888 119.531C472.902 120.381 471.751 121.018 470.507 121.401C469.263 121.783 467.953 121.904 466.66 121.756C463.569 121.435 460.716 119.81 458.247 118.015C453.444 114.524 449.501 109.661 443.65 107.837C439.359 106.5 433.791 107.677 431.169 111.556C430.575 112.443 430.189 113.455 430.042 114.513C429.988 114.739 430.021 114.977 430.136 115.179C430.251 115.381 430.438 115.531 430.66 115.601C430.886 115.662 431.127 115.631 431.33 115.515C431.534 115.4 431.684 115.209 431.747 114.983C432.436 110.098 438.445 108.275 442.661 109.391C448.809 111.017 452.936 116.502 457.981 119.986C460.592 121.932 463.668 123.16 466.902 123.546C469.706 123.766 472.489 122.911 474.686 121.155C478.995 117.754 480.643 111.903 479.69 106.636C478.587 100.536 474.48 95.3078 469.973 91.2602C460.838 83.1415 448.978 78.7616 436.756 78.9936C430.523 79.1367 424.019 80.4231 418.648 83.7166C413.439 86.9114 409.413 92.2561 408.887 98.4689C408.424 103.937 411.359 109.657 416.397 112.053C417.585 112.615 418.859 112.975 420.165 113.116C421.294 113.245 421.285 111.476 420.165 111.348H420.165Z" fill="white"/>
<path d="M448.013 373.66C446.063 373.606 443.637 373.538 441.769 372.174C441.213 371.751 440.756 371.211 440.43 370.593C440.104 369.975 439.917 369.293 439.883 368.595C439.849 368.099 439.93 367.602 440.121 367.142C440.311 366.683 440.605 366.274 440.98 365.947C441.536 365.532 442.188 365.262 442.876 365.163C443.564 365.064 444.265 365.139 444.917 365.38L443.325 353.755L444.494 353.595L446.364 367.262L445.389 366.815C444.258 366.296 442.705 366.033 441.741 366.847C441.504 367.06 441.319 367.325 441.201 367.621C441.084 367.917 441.036 368.236 441.061 368.553C441.09 369.073 441.23 369.58 441.472 370.04C441.714 370.501 442.053 370.904 442.465 371.222C443.918 372.284 445.852 372.421 448.046 372.482L448.013 373.66Z" fill="white"/>
<path d="M437.548 354.758H431.198V355.936H437.548V354.758Z" fill="white"/>
<path d="M457.593 354.758H451.242V355.936H457.593V354.758Z" fill="white"/>
<path d="M420.165 338.482C415.051 337.899 411.091 333.001 410.656 328.031C410.138 322.119 413.583 316.503 418.308 313.186C423.25 309.716 429.407 308.267 435.364 307.948C446.984 307.37 458.405 311.133 467.404 318.505C471.868 322.211 476.036 326.932 477.616 332.634C478.989 337.586 477.872 343.197 473.888 346.665C472.902 347.515 471.751 348.151 470.507 348.534C469.263 348.917 467.953 349.038 466.66 348.889C463.569 348.569 460.716 346.944 458.247 345.149C453.444 341.658 449.501 336.795 443.65 334.971C439.359 333.633 433.791 334.81 431.169 338.689C430.575 339.577 430.189 340.588 430.042 341.647C429.988 341.873 430.021 342.11 430.136 342.312C430.251 342.514 430.438 342.665 430.66 342.734C430.886 342.795 431.127 342.764 431.33 342.649C431.534 342.533 431.684 342.342 431.747 342.117C432.436 337.232 438.445 335.409 442.661 336.524C448.809 338.151 452.936 343.635 457.981 347.12C460.592 349.066 463.668 350.293 466.902 350.679C469.706 350.899 472.489 350.045 474.686 348.289C478.995 344.887 480.643 339.037 479.69 333.769C478.587 327.669 474.48 322.441 469.973 318.394C460.838 310.275 448.978 305.895 436.756 306.127C430.523 306.27 424.019 307.557 418.648 310.85C413.439 314.045 409.413 319.39 408.887 325.602C408.424 331.071 411.359 336.791 416.397 339.186C417.585 339.749 418.859 340.108 420.165 340.25C421.294 340.378 421.285 338.609 420.165 338.482H420.165Z" fill="white"/>
<path d="M74.7351 373.66C72.7858 373.606 70.3598 373.538 68.4921 372.174C67.9356 371.751 67.4784 371.211 67.1525 370.593C66.8266 369.975 66.6399 369.293 66.6054 368.595C66.5716 368.099 66.6531 367.602 66.8433 367.142C67.0336 366.683 67.3275 366.274 67.7022 365.947C68.2589 365.532 68.9109 365.262 69.5986 365.163C70.2863 365.064 70.9879 365.139 71.6393 365.38L70.0479 353.755L71.2161 353.595L73.0869 367.262L72.1115 366.815C70.9805 366.296 69.428 366.033 68.4633 366.847C68.2264 367.06 68.0419 367.325 67.924 367.621C67.8062 367.917 67.7582 368.236 67.7838 368.553C67.8123 369.073 67.9525 369.58 68.1947 370.04C68.4369 370.501 68.7756 370.904 69.1875 371.222C70.6411 372.284 72.5748 372.421 74.7681 372.482L74.7351 373.66Z" fill="white"/>
<path d="M64.271 354.758H57.9207V355.936H64.271V354.758Z" fill="white"/>
<path d="M84.3155 354.758H77.9651V355.936H84.3155V354.758Z" fill="white"/>
<path d="M46.8879 338.482C41.7741 337.899 37.8135 333.001 37.3785 328.031C36.861 322.119 40.3054 316.503 45.0307 313.186C49.9724 309.716 56.1292 308.267 62.0862 307.948C73.7069 307.37 85.1273 311.133 94.1266 318.505C98.5903 322.211 102.759 326.932 104.339 332.634C105.711 337.586 104.595 343.197 100.61 346.665C99.6248 347.515 98.4737 348.151 97.2297 348.534C95.9857 348.917 94.6758 349.038 93.3826 348.889C90.2911 348.569 87.4387 346.944 84.9697 345.149C80.1668 341.658 76.2238 336.795 70.3723 334.971C66.0818 333.633 60.514 334.81 57.8921 338.689C57.2972 339.577 56.9116 340.588 56.7645 341.647C56.7104 341.873 56.744 342.11 56.8587 342.312C56.9734 342.514 57.1605 342.665 57.3822 342.734C57.6083 342.795 57.8493 342.764 58.0529 342.649C58.2566 342.533 58.4064 342.342 58.47 342.117C59.1583 337.232 65.1673 335.409 69.3839 336.524C75.532 338.151 79.6591 343.635 84.7033 347.12C87.3144 349.066 90.3905 350.293 93.6245 350.679C96.4286 350.899 99.2114 350.045 101.408 348.289C105.718 344.887 107.366 339.037 106.413 333.769C105.309 327.669 101.202 322.441 96.696 318.394C87.5605 310.275 75.7004 305.895 63.4789 306.127C57.2454 306.27 50.7413 307.557 45.3711 310.85C40.162 314.045 36.1359 319.39 35.6097 325.602C35.1465 331.071 38.0814 336.791 43.1195 339.186C44.3074 339.749 45.5812 340.108 46.8879 340.25C48.0168 340.378 48.0077 338.609 46.8879 338.482H46.8879Z" fill="white"/>
<path d="M74.7351 148.072C72.7858 148.017 70.3598 147.949 68.4921 146.585C67.9356 146.162 67.4784 145.623 67.1525 145.004C66.8266 144.386 66.6399 143.704 66.6054 143.006C66.5716 142.51 66.6531 142.013 66.8433 141.554C67.0336 141.095 67.3275 140.686 67.7022 140.359C68.2589 139.943 68.9109 139.674 69.5986 139.575C70.2863 139.476 70.9879 139.55 71.6393 139.792L70.0479 128.167L71.2161 128.007L73.0869 141.674L72.1115 141.226C70.9805 140.708 69.428 140.444 68.4633 141.259C68.2264 141.472 68.0419 141.736 67.924 142.032C67.8062 142.328 67.7582 142.647 67.7838 142.965C67.8123 143.484 67.9525 143.991 68.1947 144.452C68.4369 144.912 68.7756 145.315 69.1875 145.633C70.6411 146.695 72.5748 146.832 74.7681 146.894L74.7351 148.072Z" fill="#3F3D56"/>
<path d="M64.271 129.169H57.9207V130.348H64.271V129.169Z" fill="#3F3D56"/>
<path d="M84.3155 129.169H77.9651V130.348H84.3155V129.169Z" fill="#3F3D56"/>
<path d="M46.8879 112.893C41.7741 112.31 37.8135 107.412 37.3785 102.442C36.861 96.5302 40.3054 90.9149 45.0307 87.5971C49.9724 84.1276 56.1292 82.6787 62.0862 82.3597C73.7069 81.7816 85.1273 85.5446 94.1266 92.9169C98.5903 96.6229 102.759 101.344 104.339 107.046C105.711 111.998 104.595 117.608 100.61 121.076C99.6248 121.926 98.4737 122.563 97.2297 122.946C95.9857 123.329 94.6758 123.45 93.3826 123.301C90.2911 122.98 87.4387 121.355 84.9697 119.56C80.1668 116.07 76.2238 111.206 70.3723 109.382C66.0818 108.045 60.514 109.222 57.8921 113.101C57.2972 113.989 56.9116 115 56.7645 116.058C56.7104 116.284 56.744 116.522 56.8587 116.724C56.9734 116.926 57.1605 117.077 57.3822 117.146C57.6083 117.207 57.8493 117.176 58.0529 117.06C58.2566 116.945 58.4064 116.754 58.47 116.528C59.1583 111.643 65.1673 109.82 69.3839 110.936C75.532 112.562 79.6591 118.047 84.7033 121.531C87.3144 123.477 90.3905 124.705 93.6245 125.091C96.4286 125.311 99.2114 124.456 101.408 122.7C105.718 119.299 107.366 113.448 106.413 108.181C105.309 102.081 101.202 96.8529 96.696 92.8054C87.5605 84.6866 75.7004 80.3067 63.4789 80.5387C57.2454 80.6818 50.7413 81.9682 45.3711 85.2618C40.162 88.4565 36.1359 93.8012 35.6097 100.014C35.1465 105.482 38.0814 111.202 43.1195 113.598C44.3074 114.16 45.5812 114.52 46.8879 114.661C48.0168 114.79 48.0077 113.021 46.8879 112.893H46.8879Z" fill="#3F3D56"/>
</svg>
