<svg width="654" height="475" viewBox="0 0 654 475" fill="none" xmlns="http://www.w3.org/2000/svg">
<g clip-path="url(#clip0)">
<path d="M235.104 130.775C229.017 137.103 221.685 142.1 213.572 145.45C205.459 148.8 196.74 150.43 187.966 150.238C179.191 150.047 170.552 148.037 162.592 144.336C154.633 140.634 147.526 135.322 141.72 128.734L0 263.012L199.287 473.759L389.243 293.778L235.104 130.775Z" fill="#6FCF97"/>
<path d="M189.234 136.978C196.714 136.987 204.117 135.482 211 132.551C217.882 129.621 224.101 125.328 229.282 119.929L189.764 78.138L147.542 118.142C152.754 124.069 159.169 128.815 166.358 132.063C173.548 135.311 181.347 136.987 189.234 136.978Z" fill="#6FCF97"/>
<path d="M500.327 198.096C500.34 211.222 497.767 224.222 492.755 236.352C487.743 248.481 480.391 259.502 471.118 268.784C461.846 278.065 450.836 285.425 438.718 290.442C426.601 295.459 413.614 298.035 400.5 298.021C399.932 298.021 399.363 298.015 398.794 298.003C396.398 297.967 394.033 297.846 391.679 297.64C372.386 295.928 354.007 288.635 338.783 276.649C323.558 264.664 312.145 248.505 305.935 230.141C299.725 211.776 298.986 192 303.808 173.223C308.63 154.445 318.805 137.478 333.092 124.387C347.38 111.297 365.163 102.65 384.274 99.4994C403.385 96.349 423 98.8316 440.726 106.645C458.453 114.458 473.526 127.263 484.108 143.502C494.691 159.74 500.326 178.709 500.327 198.096Z" fill="#6C63FF"/>
<path opacity="0.1" d="M458.352 161.936C464.61 150.889 468.694 138.744 470.384 126.157C457.107 113.345 440.543 104.464 422.53 100.501C404.517 96.5379 385.76 97.6471 368.339 103.706C350.917 109.764 335.513 120.535 323.835 134.824C312.157 149.112 304.662 166.36 302.181 184.653C318.577 200.518 339.921 210.261 362.639 212.249C364.992 212.455 367.358 212.576 369.754 212.613C370.322 212.625 370.891 212.631 371.46 212.631C389.133 212.65 406.493 207.965 421.761 199.057C437.03 190.149 449.658 177.337 458.352 161.936Z" fill="black"/>
<path d="M444.666 295.599H284.338V474.859H444.666V295.599Z" fill="#2F2E41"/>
<path opacity="0.1" d="M496.013 235.402C489.808 249.983 480.231 262.88 468.07 273.03C455.909 283.18 441.513 290.293 426.068 293.782H448.296V473.042H300.42L383.409 329.156L402.424 296.186L403.81 293.782L466.749 184.664L496.013 235.402Z" fill="black"/>
<path d="M487.319 185.875L570.66 330.367L654 474.859H487.319H320.639L403.979 330.367L487.319 185.875Z" fill="#3F3D56"/>
<path d="M654 473.647H22.3686V474.859H654V473.647Z" fill="#2F2E41"/>
<path d="M103.762 446.232L102.658 455.443L96.4006 458.391L89.4067 456.18L84.6216 458.391L83.1497 449.917L91.6156 440.336L103.762 446.232Z" fill="#9F616A"/>
<path d="M99.3453 453.232C99.3453 453.232 105.052 446.573 105.143 449.903C105.235 453.232 117.75 464.654 117.75 464.654C117.75 464.654 137.258 470.55 122.167 474.234C107.075 477.919 73.9473 467.233 72.843 465.023C71.7388 462.812 82.0452 445.863 83.1495 447.337C84.2537 448.811 89.775 453.969 99.3453 453.232Z" fill="#2F2E41"/>
<path d="M113.333 343.803C113.333 343.803 115.541 361.12 113.333 363.699C111.124 366.278 112.228 371.437 113.333 372.174C114.437 372.91 111.86 375.858 110.02 377.332C108.179 378.806 105.603 385.438 105.603 385.438C105.603 385.438 95.6644 411.598 95.6644 414.177C95.6644 416.756 91.2474 422.283 91.6154 424.125C91.9835 425.967 89.0388 431.862 89.4069 432.968C89.775 434.073 84.6218 444.021 86.0941 445.495C87.5665 446.969 107.811 452.127 106.707 448.811C105.603 445.495 104.867 441.442 105.603 441.442C106.339 441.442 109.652 437.389 108.916 435.915C108.179 434.441 131.001 395.754 131.001 395.754L113.333 343.803Z" fill="#2F2E41"/>
<path opacity="0.1" d="M99.3453 453.232C99.3453 453.232 105.052 446.573 105.143 449.903C105.235 453.232 117.75 464.654 117.75 464.654C117.75 464.654 137.258 470.55 122.167 474.234C107.075 477.919 73.9473 467.233 72.843 465.023C71.7388 462.812 82.0452 445.863 83.1495 447.337C84.2537 448.811 89.775 453.969 99.3453 453.232Z" fill="black"/>
<path opacity="0.1" d="M113.333 343.803C113.333 343.803 115.541 361.12 113.333 363.699C111.124 366.278 112.228 371.437 113.333 372.174C114.437 372.91 111.86 375.858 110.02 377.332C108.179 378.806 105.603 385.438 105.603 385.438C105.603 385.438 95.6644 411.598 95.6644 414.177C95.6644 416.756 91.2474 422.283 91.6154 424.125C91.9835 425.967 89.0388 431.862 89.4069 432.968C89.775 434.073 84.6218 444.021 86.0941 445.495C87.5665 446.969 107.811 452.127 106.707 448.811C105.603 445.495 104.867 441.442 105.603 441.442C106.339 441.442 109.652 437.389 108.916 435.915C108.179 434.441 131.001 395.754 131.001 395.754L113.333 343.803Z" fill="black"/>
<path d="M150.878 441.658L154.926 451.974L153.086 466.344L141.307 465.607L134.681 459.712V447.185L150.878 441.658Z" fill="#9F616A"/>
<path d="M148.669 454.185C148.669 454.185 152.718 440.921 154.926 444.605C156.325 446.972 157.555 449.434 158.607 451.974C158.607 451.974 176.644 463.765 181.429 463.765C186.214 463.765 190.631 469.66 184.373 471.871C178.116 474.081 130.265 477.029 129.528 471.871C128.792 466.712 130.265 450.132 132.473 451.974C134.682 453.817 146.092 457.87 148.669 454.185Z" fill="#2F2E41"/>
<path d="M157.871 290.962C157.871 290.962 174.095 301.998 174.831 303.472C175.567 304.946 184.981 309.477 177.251 313.162C169.522 316.846 149.037 293.541 149.037 293.541L157.871 290.962Z" fill="#9F616A"/>
<path d="M149.773 269.592C149.773 269.592 161.552 292.436 159.343 293.173C157.135 293.91 148.301 298.331 148.301 298.331L144.252 275.119L149.773 269.592Z" fill="#575A88"/>
<path opacity="0.1" d="M149.773 269.592C149.773 269.592 161.552 292.436 159.343 293.173C157.135 293.91 148.301 298.331 148.301 298.331L144.252 275.119L149.773 269.592Z" fill="black"/>
<path d="M149.037 288.751C149.037 288.751 151.614 307.911 150.509 311.964C149.405 316.017 151.246 376.811 149.773 380.127C148.301 383.443 147.197 404.813 147.197 407.392C147.197 409.971 150.141 430.973 150.877 432.815C151.614 434.657 153.822 440.921 152.718 443.868C151.614 446.816 136.522 454.185 134.314 451.606C132.105 449.027 133.945 440.921 132.105 440.552C130.265 440.184 128.056 422.867 128.056 422.867L115.909 355.072C115.909 355.072 93.0878 298.331 98.2411 292.804C103.394 287.278 149.037 288.751 149.037 288.751Z" fill="#2F2E41"/>
<path d="M135.418 157.952C145.379 157.952 153.454 149.869 153.454 139.898C153.454 129.927 145.379 121.844 135.418 121.844C125.457 121.844 117.382 129.927 117.382 139.898C117.382 149.869 125.457 157.952 135.418 157.952Z" fill="#9F616A"/>
<path d="M142.043 154.636C142.043 154.636 136.154 170.111 136.89 173.427C137.626 176.743 119.59 167.532 119.59 167.532C119.59 167.532 120.694 149.478 119.59 144.688C118.486 139.898 142.043 154.636 142.043 154.636Z" fill="#9F616A"/>
<path d="M92.5873 255.447C92.6682 258.539 92.7197 260.381 92.7197 260.381C92.7197 260.381 91.6155 277.329 93.4559 282.856C95.2964 288.383 95.2964 292.436 96.4006 296.12C96.7245 297.192 101.131 297.767 107.318 298.021C112.994 298.254 120.168 298.22 127.055 298.062C138.458 297.797 149.089 297.185 150.877 296.857C154.926 296.12 150.141 289.857 151.614 286.541C153.086 283.225 149.037 240.853 149.037 240.853C149.037 240.853 149.405 216.904 147.565 207.693C145.724 198.481 138.731 183.743 137.258 181.901C135.786 180.059 136.89 178.954 140.203 176.743C143.516 174.532 140.203 166.058 140.203 166.058C133.945 160.899 118.118 160.163 118.118 160.163C118.118 160.163 93.824 185.217 92.3517 190.375C91.4609 193.492 91.7811 218.392 92.1713 237.618C92.3222 244.851 92.4805 251.284 92.5873 255.447Z" fill="#575A88"/>
<path d="M123.639 301.279C123.639 301.279 137.626 330.018 126.584 331.86C115.541 333.702 110.02 305.7 110.02 305.7L123.639 301.279Z" fill="#9F616A"/>
<path d="M152.282 130.747C152.92 127.65 150.556 124.756 148.066 122.811C142.643 118.601 135.972 116.324 129.11 116.34C124.283 116.366 119.301 117.644 115.652 120.808C111.397 124.499 109.456 130.417 109.813 136.041C110.17 141.666 112.614 147 115.91 151.569C117.492 153.762 120.033 156.033 122.561 155.077C123.55 154.613 124.399 153.896 125.021 152.997C126.643 150.983 128.056 148.809 129.238 146.509C130.143 144.75 130.927 142.895 132.209 141.388C133.491 139.881 135.419 138.748 137.377 139.019C138.995 139.242 140.582 140.382 142.126 139.847C143.842 139.251 144.257 137.053 144.394 135.24C144.544 133.252 144.438 130.949 144.989 129.069C145.592 129.391 151.986 132.23 152.282 130.747Z" fill="#2F2E41"/>
<path opacity="0.1" d="M92.5872 255.447C96.7098 270.329 106.166 295.409 106.707 296.489C106.843 296.765 107.057 297.307 107.318 298.022C112.994 298.254 120.168 298.221 127.055 298.062C125.987 295.269 124.743 292.572 124.743 291.699C124.743 289.857 115.909 242.327 115.909 242.327C115.909 242.327 122.903 221.325 129.16 203.64C135.418 185.954 110.572 189.454 110.572 189.454C97.3208 186.138 94.9282 191.849 94.9282 191.849C94.9282 191.849 93.7614 222.909 92.1713 237.618C91.7626 241.387 91.3283 244.081 90.8793 244.906C90.2903 245.985 91.0854 250.046 92.5872 255.447Z" fill="black"/>
<path d="M115.909 177.48C115.909 177.48 132.841 184.48 126.584 202.166C120.326 219.851 113.333 240.853 113.333 240.853C113.333 240.853 122.167 288.383 122.167 290.225C122.167 292.067 127.688 302.016 125.479 303.858C123.271 305.7 108.547 309.385 108.179 307.542C107.811 305.7 104.867 296.489 104.13 295.015C103.394 293.541 86.0941 247.485 88.3027 243.432C89.9279 240.45 91.3538 213.125 91.9936 198.899C92.1414 194.841 93.3424 190.891 95.4784 187.438C97.6143 183.985 100.612 181.149 104.175 179.208C107.607 177.387 111.603 176.402 115.909 177.48Z" fill="#575A88"/>
<path d="M183.906 285.304H162.126V307.106H183.906V285.304Z" fill="#F2C94C"/>
<path d="M173.016 285.304C176.692 285.304 179.671 282.321 179.671 278.642C179.671 274.963 176.692 271.98 173.016 271.98C169.341 271.98 166.361 274.963 166.361 278.642C166.361 282.321 169.341 285.304 173.016 285.304Z" fill="#3F3D56"/>
<path d="M430.146 56.3908C430.146 81.2089 415.406 89.8745 397.224 89.8745C379.042 89.8745 364.303 81.2089 364.303 56.3908C364.303 31.5726 397.224 0 397.224 0C397.224 0 430.146 31.5726 430.146 56.3908Z" fill="#6FCF97"/>
<path d="M396.025 86.0779L396.362 65.3074L410.394 39.6115L396.415 62.0492L396.567 52.7102L406.238 34.1193L396.607 50.2387L396.879 33.4416L407.235 18.6406L396.922 30.7999L397.092 0L396.022 40.7737L396.11 39.0913L385.581 22.9598L395.942 42.3204L394.96 61.0803L394.931 60.5818L382.793 43.6055L394.894 62.3411L394.771 64.6873L394.75 64.7224L394.76 64.915L392.271 112.51H395.596L395.995 87.9262L408.067 69.2366L396.025 86.0779Z" fill="#3F3D56"/>
<path d="M509.473 93.4861C501.607 117.022 484.882 120.559 467.639 114.784C450.397 109.01 439.166 96.1106 447.032 72.5747C454.899 49.0389 496.127 29.5533 496.127 29.5533C496.127 29.5533 517.34 69.9503 509.473 93.4861Z" fill="#6FCF97"/>
<path d="M467.706 110.803L474.609 91.2128L496.061 71.3005L475.692 88.1394L478.796 79.3308L493.86 64.772L479.617 76.9998L485.2 61.1572L499.712 50.4101L486.078 58.6657L496.002 29.5112L482.063 67.8382L482.68 66.2709L477.808 47.6291L481.496 69.2796L474.619 86.7586L474.75 86.2771L468.62 66.323L474.157 87.9335L473.297 90.1191L473.265 90.1457L473.214 90.3316L455.767 134.677L458.921 135.733L467.091 112.546L484.463 98.6557L467.706 110.803Z" fill="#3F3D56"/>
<path d="M346.061 74.5481C354.977 97.7057 344.338 111.098 327.372 117.643C310.406 124.188 293.54 121.409 284.623 98.2512C275.706 75.0935 295.081 33.7819 295.081 33.7819C295.081 33.7819 337.144 51.3905 346.061 74.5481Z" fill="#6FCF97"/>
<path d="M324.889 114.532L317.741 95.03L321.602 66.002L316.62 91.9711L313.405 83.2019L315.75 62.3732L312.555 80.8812L306.774 65.11L311.12 47.5716L305.866 62.63L294.959 33.8292L308.609 72.2604L308.087 70.6592L292.467 59.3967L309.089 73.7326L314.914 91.5901L314.708 91.1359L297.283 79.6651L315.306 92.7904L316.034 95.0239L316.026 95.0645L316.105 95.2407L330.882 140.547L333.985 139.35L325.525 116.267L330.074 94.4831L324.889 114.532Z" fill="#3F3D56"/>
<path d="M276.142 271.314C274.102 274.571 271.455 274.495 269.069 272.997C266.683 271.5 265.461 269.149 267.501 265.891C269.541 262.634 276.456 261.202 276.456 261.202C276.456 261.202 278.182 268.057 276.142 271.314Z" fill="#6C63FF"/>
<path d="M519.435 173.695C519.813 177.521 517.672 179.081 514.87 179.358C512.067 179.635 509.663 178.524 509.286 174.698C508.908 170.873 513.503 165.504 513.503 165.504C513.503 165.504 519.058 169.869 519.435 173.695Z" fill="#6C63FF"/>
<path d="M265.29 201.944C263.251 205.201 260.604 205.125 258.218 203.627C255.831 202.13 254.609 199.778 256.649 196.521C258.689 193.264 265.605 191.832 265.605 191.832C265.605 191.832 267.33 198.687 265.29 201.944Z" fill="#6C63FF"/>
</g>
<defs>
<clipPath id="clip0">
<rect width="654" height="475" fill="white"/>
</clipPath>
</defs>
</svg>
