<svg width="23" height="25" viewBox="0 0 23 25" fill="none" xmlns="http://www.w3.org/2000/svg">
<path d="M16.9236 12.5858L15.6434 11.3207L9.74968 17.1452L7.18929 14.6149L5.9091 15.88L9.74968 19.6755L16.9236 12.5858V12.5858ZM19.9067 2.96588H18.699V0.578796H16.2835V2.96588H6.62166V0.578796H4.2062V2.96588H2.99847C1.65789 2.96588 0.595085 4.04007 0.595085 5.35297L0.583008 22.0626C0.583008 23.3755 1.65789 24.4497 2.99847 24.4497H19.9067C21.2352 24.4497 22.3221 23.3755 22.3221 22.0626V5.35297C22.3221 4.04007 21.2352 2.96588 19.9067 2.96588ZM19.9067 22.0626H2.99847V8.9336H19.9067V22.0626Z" fill="black" fill-opacity="0.54"/>
</svg>
