<svg width="1440" height="195" viewBox="0 0 1440 195" fill="none" xmlns="http://www.w3.org/2000/svg">
<rect y="33" width="1440" height="162" fill="#EDEEF7"/>
<rect width="1440" height="33" fill="#7868E6"/>
<path d="M42.8174 160.762C42.8174 161.652 42.5596 162.335 42.0439 162.81C41.5342 163.284 40.8105 163.521 39.873 163.521C38.9355 163.521 38.1885 163.211 37.6318 162.59C37.0811 161.963 36.8057 161.122 36.8057 160.067V159.074C36.8057 158.055 37.084 157.234 37.6406 156.613C38.2031 155.986 38.9473 155.673 39.873 155.673C40.8281 155.673 41.5576 155.916 42.0615 156.402C42.5713 156.883 42.8262 157.56 42.8262 158.433H41.4551C41.4551 157.87 41.3203 157.469 41.0508 157.229C40.7812 156.982 40.3887 156.859 39.873 156.859C39.334 156.859 38.915 157.059 38.6162 157.457C38.3232 157.85 38.1738 158.377 38.168 159.039V160.12C38.168 160.806 38.3174 161.348 38.6162 161.746C38.915 162.139 39.334 162.335 39.873 162.335C40.3945 162.335 40.7871 162.218 41.0508 161.983C41.3145 161.743 41.4463 161.336 41.4463 160.762H42.8174ZM45.1553 159.593C45.1553 158.62 44.9355 157.718 44.4961 156.886C44.0566 156.048 43.4355 155.38 42.6328 154.882C41.8301 154.378 40.9512 154.126 39.9961 154.126C39.0645 154.126 38.1973 154.366 37.3945 154.847C36.5977 155.327 35.9707 155.989 35.5137 156.833C35.0566 157.677 34.8281 158.597 34.8281 159.593C34.8281 160.589 35.0537 161.509 35.5049 162.353C35.9619 163.196 36.5889 163.864 37.3857 164.356C38.1885 164.843 39.0586 165.086 39.9961 165.086C40.9336 165.086 41.8037 164.837 42.6064 164.339C43.415 163.841 44.042 163.17 44.4873 162.326C44.9326 161.482 45.1553 160.571 45.1553 159.593ZM33.7559 159.593C33.7559 158.409 34.0283 157.311 34.5732 156.297C35.124 155.283 35.8828 154.486 36.8496 153.906C37.8223 153.32 38.8711 153.027 39.9961 153.027C41.1211 153.027 42.167 153.32 43.1338 153.906C44.1064 154.486 44.8652 155.283 45.4102 156.297C45.9609 157.311 46.2363 158.409 46.2363 159.593C46.2363 160.788 45.958 161.896 45.4014 162.915C44.8447 163.929 44.083 164.726 43.1162 165.306C42.1553 165.886 41.1152 166.176 39.9961 166.176C38.8652 166.176 37.8164 165.883 36.8496 165.297C35.8887 164.711 35.1328 163.911 34.582 162.897C34.0312 161.884 33.7559 160.782 33.7559 159.593ZM59.9648 163.363H55.3418L54.4629 166H51.6592L56.4229 153.203H58.8662L63.6562 166H60.8525L59.9648 163.363ZM56.0537 161.228H59.2529L57.6445 156.438L56.0537 161.228ZM74.7832 164.383C74.3086 164.951 73.6377 165.394 72.7705 165.71C71.9033 166.021 70.9424 166.176 69.8877 166.176C68.7803 166.176 67.8076 165.936 66.9697 165.455C66.1377 164.969 65.4932 164.266 65.0361 163.346C64.585 162.426 64.3535 161.345 64.3418 160.103V159.232C64.3418 157.955 64.5557 156.851 64.9834 155.919C65.417 154.981 66.0381 154.267 66.8467 153.774C67.6611 153.276 68.6133 153.027 69.7031 153.027C71.2207 153.027 72.4072 153.391 73.2627 154.117C74.1182 154.838 74.625 155.89 74.7832 157.272H72.2168C72.0996 156.54 71.8389 156.004 71.4346 155.664C71.0361 155.324 70.4854 155.154 69.7822 155.154C68.8857 155.154 68.2031 155.491 67.7344 156.165C67.2656 156.839 67.0283 157.841 67.0225 159.171V159.988C67.0225 161.33 67.2773 162.344 67.7871 163.029C68.2969 163.715 69.0439 164.058 70.0283 164.058C71.0186 164.058 71.7246 163.847 72.1465 163.425V161.219H69.7471V159.276H74.7832V164.383ZM79.5645 163.882H85.1631V166H76.9277V153.203H79.5645V163.882ZM94.3828 160.454H89.3203V163.882H95.2617V166H86.6836V153.203H95.2441V155.339H89.3203V158.389H94.3828V160.454ZM106.617 155.339H102.697V166H100.061V155.339H96.1934V153.203H106.617V155.339ZM120.583 166H111.812V164.26L115.951 159.848C116.52 159.227 116.938 158.685 117.208 158.222C117.483 157.759 117.621 157.319 117.621 156.903C117.621 156.335 117.478 155.89 117.19 155.567C116.903 155.239 116.493 155.075 115.96 155.075C115.386 155.075 114.932 155.274 114.598 155.673C114.27 156.065 114.105 156.584 114.105 157.229H111.557C111.557 156.449 111.741 155.737 112.11 155.093C112.485 154.448 113.013 153.944 113.692 153.581C114.372 153.212 115.143 153.027 116.004 153.027C117.322 153.027 118.345 153.344 119.071 153.977C119.804 154.609 120.17 155.503 120.17 156.657C120.17 157.29 120.006 157.935 119.678 158.591C119.35 159.247 118.787 160.012 117.99 160.885L115.081 163.952H120.583V166ZM130.761 160.709C130.761 162.479 130.395 163.832 129.662 164.77C128.93 165.707 127.857 166.176 126.445 166.176C125.051 166.176 123.984 165.716 123.246 164.796C122.508 163.876 122.13 162.558 122.112 160.841V158.485C122.112 156.698 122.481 155.342 123.22 154.416C123.964 153.49 125.033 153.027 126.428 153.027C127.822 153.027 128.889 153.487 129.627 154.407C130.365 155.321 130.743 156.637 130.761 158.354V160.709ZM128.221 158.125C128.221 157.064 128.074 156.294 127.781 155.813C127.494 155.327 127.043 155.084 126.428 155.084C125.83 155.084 125.388 155.315 125.101 155.778C124.819 156.235 124.67 156.953 124.652 157.932V161.043C124.652 162.086 124.793 162.862 125.074 163.372C125.361 163.876 125.818 164.128 126.445 164.128C127.066 164.128 127.515 163.885 127.79 163.398C128.065 162.912 128.209 162.168 128.221 161.166V158.125ZM141.255 166H132.483V164.26L136.623 159.848C137.191 159.227 137.61 158.685 137.88 158.222C138.155 157.759 138.293 157.319 138.293 156.903C138.293 156.335 138.149 155.89 137.862 155.567C137.575 155.239 137.165 155.075 136.632 155.075C136.058 155.075 135.604 155.274 135.27 155.673C134.941 156.065 134.777 156.584 134.777 157.229H132.229C132.229 156.449 132.413 155.737 132.782 155.093C133.157 154.448 133.685 153.944 134.364 153.581C135.044 153.212 135.814 153.027 136.676 153.027C137.994 153.027 139.017 153.344 139.743 153.977C140.476 154.609 140.842 155.503 140.842 156.657C140.842 157.29 140.678 157.935 140.35 158.591C140.021 159.247 139.459 160.012 138.662 160.885L135.753 163.952H141.255V166ZM148.989 166H146.449V156.209L143.417 157.149V155.084L148.717 153.186H148.989V166Z" fill="#3F3D56"/>
<path d="M165.557 108.285C165.557 107.289 165.205 106.527 164.502 106C163.799 105.461 162.533 104.898 160.705 104.312C158.877 103.715 157.43 103.129 156.363 102.555C153.457 100.984 152.004 98.8691 152.004 96.209C152.004 94.8262 152.391 93.5957 153.164 92.5176C153.949 91.4277 155.068 90.5781 156.521 89.9688C157.986 89.3594 159.627 89.0547 161.443 89.0547C163.271 89.0547 164.9 89.3887 166.33 90.0566C167.76 90.7129 168.867 91.6445 169.652 92.8516C170.449 94.0586 170.848 95.4297 170.848 96.9648H165.574C165.574 95.793 165.205 94.8848 164.467 94.2402C163.729 93.584 162.691 93.2559 161.355 93.2559C160.066 93.2559 159.064 93.5312 158.35 94.082C157.635 94.6211 157.277 95.3359 157.277 96.2266C157.277 97.0586 157.693 97.7559 158.525 98.3184C159.369 98.8809 160.605 99.4082 162.234 99.9004C165.234 100.803 167.42 101.922 168.791 103.258C170.162 104.594 170.848 106.258 170.848 108.25C170.848 110.465 170.01 112.205 168.334 113.471C166.658 114.725 164.402 115.352 161.566 115.352C159.598 115.352 157.805 114.994 156.188 114.279C154.57 113.553 153.334 112.562 152.479 111.309C151.635 110.055 151.213 108.602 151.213 106.949H156.504C156.504 109.773 158.191 111.186 161.566 111.186C162.82 111.186 163.799 110.934 164.502 110.43C165.205 109.914 165.557 109.199 165.557 108.285ZM182.01 111.256C182.947 111.256 183.709 110.998 184.295 110.482C184.881 109.967 185.186 109.281 185.209 108.426H189.973C189.961 109.715 189.609 110.898 188.918 111.977C188.227 113.043 187.277 113.875 186.07 114.473C184.875 115.059 183.551 115.352 182.098 115.352C179.379 115.352 177.234 114.49 175.664 112.768C174.094 111.033 173.309 108.643 173.309 105.596V105.262C173.309 102.332 174.088 99.9941 175.646 98.248C177.205 96.502 179.344 95.6289 182.062 95.6289C184.441 95.6289 186.346 96.3086 187.775 97.668C189.217 99.0156 189.949 100.814 189.973 103.064H185.209C185.186 102.08 184.881 101.283 184.295 100.674C183.709 100.053 182.936 99.7422 181.975 99.7422C180.791 99.7422 179.895 100.176 179.285 101.043C178.688 101.898 178.389 103.293 178.389 105.227V105.754C178.389 107.711 178.688 109.117 179.285 109.973C179.883 110.828 180.791 111.256 182.01 111.256ZM197.83 98.0547C199.178 96.4375 200.871 95.6289 202.91 95.6289C207.035 95.6289 209.127 98.0254 209.186 102.818V115H204.105V102.959C204.105 101.869 203.871 101.066 203.402 100.551C202.934 100.023 202.154 99.7598 201.064 99.7598C199.576 99.7598 198.498 100.334 197.83 101.482V115H192.75V88H197.83V98.0547ZM221.771 115.352C218.982 115.352 216.709 114.496 214.951 112.785C213.205 111.074 212.332 108.795 212.332 105.947V105.455C212.332 103.545 212.701 101.84 213.439 100.34C214.178 98.8281 215.221 97.668 216.568 96.8594C217.928 96.0391 219.475 95.6289 221.209 95.6289C223.811 95.6289 225.855 96.4492 227.344 98.0898C228.844 99.7305 229.594 102.057 229.594 105.068V107.143H217.482C217.646 108.385 218.139 109.381 218.959 110.131C219.791 110.881 220.84 111.256 222.105 111.256C224.062 111.256 225.592 110.547 226.693 109.129L229.189 111.924C228.428 113.002 227.396 113.846 226.096 114.455C224.795 115.053 223.354 115.352 221.771 115.352ZM221.191 99.7422C220.184 99.7422 219.363 100.082 218.73 100.762C218.109 101.441 217.711 102.414 217.535 103.68H224.602V103.275C224.578 102.15 224.273 101.283 223.688 100.674C223.102 100.053 222.27 99.7422 221.191 99.7422ZM231.703 105.35C231.703 102.385 232.365 100.023 233.689 98.2656C235.025 96.5078 236.848 95.6289 239.156 95.6289C241.008 95.6289 242.537 96.3203 243.744 97.7031V88H248.842V115H244.254L244.008 112.979C242.742 114.561 241.113 115.352 239.121 115.352C236.883 115.352 235.084 114.473 233.725 112.715C232.377 110.945 231.703 108.49 231.703 105.35ZM236.783 105.719C236.783 107.5 237.094 108.865 237.715 109.814C238.336 110.764 239.238 111.238 240.422 111.238C241.992 111.238 243.1 110.576 243.744 109.252V101.746C243.111 100.422 242.016 99.7598 240.457 99.7598C238.008 99.7598 236.783 101.746 236.783 105.719ZM262.658 106.088H252.762V101.992H262.658V106.088ZM272.678 115H267.404V89.4062H272.678V115ZM283.33 91.3047V95.9805H286.582V99.707H283.33V109.199C283.33 109.902 283.465 110.406 283.734 110.711C284.004 111.016 284.52 111.168 285.281 111.168C285.844 111.168 286.342 111.127 286.775 111.045V114.895C285.779 115.199 284.754 115.352 283.699 115.352C280.137 115.352 278.32 113.553 278.25 109.955V99.707H275.473V95.9805H278.25V91.3047H283.33Z" fill="#3F3D56"/>
<line x1="131.5" y1="67" x2="131.5" y2="136" stroke="#3F3D56" stroke-width="5"/>
<path d="M107.062 66.4531H36.7656V81.0625H107.062V66.4531Z" fill="#3F3D56"/>
<path d="M51.375 84.6719H36.7656V99.2812H51.375V84.6719Z" fill="#3F3D56"/>
<path d="M107.062 84.6719H92.4531V99.2812H107.062V84.6719Z" fill="#3F3D56"/>
<path d="M51.375 102.891H36.7656V117.5H51.375V102.891Z" fill="#3F3D56"/>
<path d="M51.375 121.109H36.7656V135.719H51.375V121.109Z" fill="#3F3D56"/>
<path d="M107.062 121.109H92.4531V135.719H107.062V121.109Z" fill="#3F3D56"/>
<path d="M88.5 121.109H73.8906V135.719H88.5V121.109Z" fill="#3F3D56"/>
<path d="M69.9375 121.109H55.3281V135.719H69.9375V121.109Z" fill="#3F3D56"/>
<path d="M88.5 102.891H73.8906V117.5H88.5V102.891Z" fill="#3F3D56"/>
<path d="M69.9375 102.891H55.3281V117.5H69.9375V102.891Z" fill="#3F3D56"/>
<path d="M107.062 102.891H92.4531V117.5H107.062V102.891Z" fill="#3F3D56"/>
<path d="M88.5 84.6719H73.8906V99.2812H88.5V84.6719Z" fill="#3F3D56"/>
<path d="M69.9375 84.6719H55.3281V99.2812H69.9375V84.6719Z" fill="#3F3D56"/>
</svg>
