<svg width="759" height="522" viewBox="0 0 759 522" fill="none" xmlns="http://www.w3.org/2000/svg">
<path d="M206.4 415.8C218.8 412.4 231.2 419.7 236.8 430.5C242.4 441.3 241.3 455.7 240.4 469.5C239.5 483.3 238.8 496.6 229.5 501.1C220.2 505.5 202.3 501.1 190.8 501.7C179.2 502.4 174.1 508.1 165.7 513.8C157.3 519.4 145.6 525.1 137.2 522.6C128.8 520.2 123.6 509.7 114.3 499.6C105 489.5 91.7 479.7 90.7 469.4C89.7 459.1 101 448.2 114.7 445.8C128.5 443.5 144.7 449.7 154.1 451.3C163.6 453 166.3 450.1 173.9 441.6C181.5 433.2 194 419.2 206.4 415.8Z" fill="#ABF3FF"/>
<g clip-path="url(#clip0)">
<path d="M624.813 73.3531C633.128 107.059 628.72 149.575 610.318 191.554C591.916 233.533 559.521 274.975 521.786 310.346C484.051 345.716 441.128 375.172 396.868 394.741C352.607 414.309 306.774 424.214 284.165 404.74C261.404 385.108 261.48 336.163 246.696 306.513C231.677 277.088 201.797 266.958 186.344 243.677C170.74 220.239 169.564 183.65 185.752 148.306C201.706 113.186 235.56 79.4032 270.677 59.1997C305.558 39.2206 342.171 32.3723 374.387 26.0964C406.452 19.6624 434.204 13.4183 466.721 7.45841C499.474 1.27414 537.076 -5.00834 566.354 4.48936C595.631 13.9871 616.583 39.2649 624.813 73.3531Z" fill="#B8B5FF"/>
</g>
<path d="M557.8 303.145H227.95C227.102 303.144 226.288 302.807 225.688 302.208C225.088 301.608 224.751 300.796 224.75 299.949V105.196C224.751 104.349 225.088 103.536 225.688 102.937C226.288 102.338 227.102 102.001 227.95 102H557.8C558.648 102.001 559.462 102.338 560.062 102.937C560.662 103.536 560.999 104.349 561 105.196V299.949C560.999 300.796 560.662 301.608 560.062 302.208C559.462 302.807 558.648 303.144 557.8 303.145ZM227.95 103.278C227.441 103.279 226.953 103.481 226.593 103.841C226.233 104.2 226.031 104.688 226.03 105.196V299.949C226.031 300.457 226.233 300.945 226.593 301.304C226.953 301.664 227.441 301.866 227.95 301.866H557.8C558.309 301.866 558.797 301.664 559.157 301.304C559.517 300.945 559.719 300.457 559.72 299.949V105.196C559.719 104.688 559.517 104.2 559.157 103.841C558.797 103.481 558.309 103.279 557.8 103.278H227.95Z" fill="#E6E6E6"/>
<path d="M361.08 117.554C360.414 117.565 359.78 117.837 359.313 118.311C358.846 118.785 358.585 119.423 358.585 120.088C358.585 120.753 358.846 121.391 359.313 121.865C359.78 122.339 360.414 122.611 361.08 122.622H424.697C425.368 122.632 426.017 122.375 426.499 121.909C426.982 121.442 427.259 120.804 427.271 120.133C427.283 119.462 427.029 118.814 426.563 118.331C426.098 117.848 425.459 117.568 424.788 117.554L424.78 117.554C424.752 117.553 424.725 117.553 424.697 117.554H361.08Z" fill="#3F3D56"/>
<path d="M439.124 116.848C439.03 116.942 438.977 117.069 438.977 117.201C438.977 117.333 439.03 117.46 439.124 117.553L439.124 117.554L441.267 119.694H435.982C435.85 119.694 435.723 119.747 435.63 119.841C435.536 119.934 435.484 120.061 435.484 120.193C435.484 120.325 435.536 120.451 435.63 120.545C435.723 120.638 435.85 120.691 435.982 120.691H441.267L439.124 122.832C439.077 122.878 439.04 122.933 439.015 122.994C438.99 123.054 438.977 123.119 438.977 123.184C438.977 123.25 438.99 123.315 439.015 123.375C439.04 123.436 439.077 123.491 439.124 123.537C439.17 123.583 439.225 123.62 439.286 123.645C439.346 123.67 439.411 123.683 439.477 123.683C439.542 123.683 439.607 123.67 439.668 123.645C439.728 123.62 439.783 123.583 439.83 123.537L442.825 120.545C442.919 120.452 442.972 120.325 442.972 120.193C442.972 120.06 442.919 119.934 442.825 119.84L439.83 116.848C439.783 116.802 439.728 116.765 439.668 116.74C439.607 116.715 439.542 116.702 439.477 116.702C439.411 116.702 439.346 116.715 439.286 116.74C439.225 116.765 439.17 116.802 439.124 116.848L439.124 116.848Z" fill="#E6E6E6"/>
<path d="M346.626 116.848C346.72 116.942 346.773 117.069 346.773 117.201C346.773 117.333 346.72 117.46 346.626 117.554L346.626 117.554L344.483 119.694H349.768C349.834 119.694 349.899 119.706 349.96 119.731C350.021 119.756 350.076 119.793 350.122 119.839C350.169 119.885 350.206 119.94 350.231 120.001C350.256 120.062 350.269 120.127 350.269 120.192C350.27 120.258 350.257 120.323 350.232 120.383C350.206 120.444 350.17 120.499 350.123 120.545C350.077 120.592 350.022 120.628 349.961 120.654C349.9 120.679 349.835 120.691 349.769 120.691H344.483L346.626 122.832C346.673 122.878 346.709 122.933 346.735 122.994C346.76 123.054 346.773 123.119 346.773 123.184C346.773 123.25 346.76 123.315 346.735 123.375C346.709 123.436 346.673 123.491 346.626 123.537C346.58 123.583 346.525 123.62 346.464 123.645C346.404 123.67 346.339 123.683 346.273 123.683C346.208 123.683 346.143 123.67 346.082 123.645C346.022 123.62 345.967 123.583 345.92 123.537L342.925 120.545C342.831 120.452 342.778 120.325 342.778 120.193C342.778 120.06 342.831 119.934 342.925 119.84L345.92 116.848C346.014 116.755 346.141 116.702 346.273 116.702C346.406 116.702 346.533 116.755 346.626 116.848L346.626 116.848Z" fill="#E6E6E6"/>
<path d="M224.559 313.872C221.667 313.872 218.839 313.016 216.434 311.411C214.029 309.806 212.155 307.525 211.048 304.856C209.941 302.188 209.651 299.251 210.215 296.418C210.78 293.585 212.173 290.982 214.218 288.94C216.263 286.897 218.869 285.506 221.706 284.942C224.543 284.379 227.483 284.668 230.156 285.774C232.828 286.879 235.112 288.751 236.719 291.153C238.326 293.555 239.184 296.378 239.184 299.267C239.184 303.141 237.643 306.856 234.9 309.595C232.157 312.334 228.438 313.872 224.559 313.872Z" fill="#7868E6"/>
<path d="M230.329 297.826H226.002V293.504C226.002 293.122 225.85 292.756 225.579 292.485C225.309 292.215 224.942 292.063 224.559 292.063C224.176 292.063 223.809 292.215 223.539 292.485C223.268 292.756 223.116 293.122 223.116 293.504V297.826H218.788C218.406 297.826 218.039 297.978 217.768 298.248C217.498 298.519 217.346 298.885 217.346 299.267C217.346 299.649 217.498 300.016 217.768 300.286C218.039 300.556 218.406 300.708 218.788 300.708H223.116V305.03C223.116 305.412 223.268 305.779 223.539 306.049C223.809 306.319 224.176 306.471 224.559 306.471C224.942 306.471 225.309 306.319 225.579 306.049C225.85 305.779 226.002 305.412 226.002 305.03V300.708H230.329C230.712 300.708 231.079 300.556 231.35 300.286C231.62 300.016 231.772 299.649 231.772 299.267C231.772 298.885 231.62 298.519 231.35 298.248C231.079 297.978 230.712 297.826 230.329 297.826Z" fill="white"/>
<path d="M295.371 143.498H251.42V173.329H295.371V143.498Z" fill="#F1F1F1"/>
<path d="M355.111 143.498H311.159V173.329H355.111V143.498Z" fill="#F1F1F1"/>
<path d="M414.851 143.498H370.899V173.329H414.851V143.498Z" fill="#F1F1F1"/>
<path d="M474.591 143.498H430.639V173.329H474.591V143.498Z" fill="#F1F1F1"/>
<path d="M534.33 143.498H490.379V173.329H534.33V143.498Z" fill="#F1F1F1"/>
<path d="M295.532 195.915H251.581V225.746H295.532V195.915Z" fill="#F1F1F1"/>
<path d="M355.272 195.915H311.321V225.746H355.272V195.915Z" fill="#F1F1F1"/>
<path d="M415.012 195.915H371.06V225.746H415.012V195.915Z" fill="#F1F1F1"/>
<path d="M474.752 195.915H430.8V225.746H474.752V195.915Z" fill="#F1F1F1"/>
<path d="M534.492 195.915H490.54V225.746H534.492V195.915Z" fill="#F1F1F1"/>
<path d="M295.693 248.332H251.742V278.163H295.693V248.332Z" fill="#F1F1F1"/>
<path d="M355.433 248.332H311.482V278.163H355.433V248.332Z" fill="#F1F1F1"/>
<path d="M415.173 248.332H371.222V278.163H415.173V248.332Z" fill="#F1F1F1"/>
<path d="M474.913 248.332H430.961V278.163H474.913V248.332Z" fill="#F1F1F1"/>
<path d="M534.653 248.332H490.701V278.163H534.653V248.332Z" fill="#F1F1F1"/>
<path d="M380.021 158.413C383.085 158.413 385.569 155.933 385.569 152.873C385.569 149.814 383.085 147.333 380.021 147.333C376.958 147.333 374.474 149.814 374.474 152.873C374.474 155.933 376.958 158.413 380.021 158.413Z" fill="#7868E6"/>
<path d="M319.428 210.83C322.492 210.83 324.975 208.35 324.975 205.29C324.975 202.231 322.492 199.75 319.428 199.75C316.364 199.75 313.881 202.231 313.881 205.29C313.881 208.35 316.364 210.83 319.428 210.83Z" fill="#7868E6"/>
<path d="M380.021 263.247C383.085 263.247 385.569 260.767 385.569 257.707C385.569 254.648 383.085 252.167 380.021 252.167C376.958 252.167 374.474 254.648 374.474 257.707C374.474 260.767 376.958 263.247 380.021 263.247Z" fill="#7868E6"/>
<path d="M441.041 210.83C444.105 210.83 446.589 208.35 446.589 205.29C446.589 202.231 444.105 199.75 441.041 199.75C437.978 199.75 435.494 202.231 435.494 205.29C435.494 208.35 437.978 210.83 441.041 210.83Z" fill="#3F3D56"/>
<path d="M500.355 210.83C503.418 210.83 505.902 208.35 505.902 205.29C505.902 202.231 503.418 199.75 500.355 199.75C497.291 199.75 494.807 202.231 494.807 205.29C494.807 208.35 497.291 210.83 500.355 210.83Z" fill="#3F3D56"/>
<path d="M319.428 263.247C322.492 263.247 324.975 260.767 324.975 257.707C324.975 254.648 322.492 252.167 319.428 252.167C316.364 252.167 313.881 254.648 313.881 257.707C313.881 260.767 316.364 263.247 319.428 263.247Z" fill="#3F3D56"/>
<path d="M173.983 310.621C179.673 310.621 184.286 306.014 184.286 300.331C184.286 294.648 179.673 290.042 173.983 290.042C168.292 290.042 163.679 294.648 163.679 300.331C163.679 306.014 168.292 310.621 173.983 310.621Z" fill="#FFB8B8"/>
<path d="M170.263 361.217C170.133 361.217 170.003 361.212 169.872 361.2C169.224 361.146 168.594 360.956 168.025 360.642C167.456 360.328 166.959 359.898 166.568 359.379C166.177 358.86 165.9 358.265 165.756 357.632C165.611 356.999 165.602 356.342 165.729 355.705C165.759 355.557 165.797 355.411 165.842 355.267L150.636 337.306C150.14 336.716 149.848 335.982 149.803 335.214C149.759 334.445 149.963 333.682 150.386 333.039L150.414 333.005L164.102 319.526C164.849 318.791 165.858 318.383 166.907 318.391C167.956 318.398 168.959 318.822 169.695 319.568C170.432 320.314 170.841 321.321 170.834 322.369C170.827 323.416 170.404 324.418 169.658 325.154C169.641 325.171 169.623 325.188 169.606 325.204L159.692 334.616L170.545 352.013C170.751 352.023 170.955 352.048 171.157 352.088C172.28 352.312 173.279 352.944 173.961 353.862C174.643 354.781 174.959 355.919 174.848 357.057C174.736 358.195 174.205 359.251 173.358 360.02C172.511 360.788 171.407 361.215 170.263 361.217Z" fill="#FFB8B8"/>
<path d="M190.952 443.538H196.095L198.542 423.727L190.951 423.728L190.952 443.538Z" fill="#FFB8B8"/>
<path d="M189.64 441.862L199.768 441.861H199.769C200.616 441.861 201.456 442.028 202.239 442.352C203.022 442.676 203.733 443.151 204.333 443.749C204.932 444.348 205.408 445.058 205.732 445.84C206.056 446.622 206.223 447.461 206.223 448.307V448.517L189.641 448.517L189.64 441.862Z" fill="#2F2E41"/>
<path d="M139.834 436.437L144.253 439.065L156.505 423.293L149.982 419.415L139.834 436.437Z" fill="#FFB8B8"/>
<path d="M139.566 434.326L148.269 439.501L148.269 439.501C149.74 440.376 150.802 441.798 151.223 443.455C151.644 445.112 151.388 446.868 150.513 448.337L150.513 448.337L150.405 448.517L136.157 440.045L139.566 434.326Z" fill="#2F2E41"/>
<path d="M197.309 436.541H191.55C191.083 436.542 190.633 436.37 190.287 436.059C189.94 435.747 189.721 435.318 189.672 434.855L183.867 380.352C183.852 380.215 183.793 380.086 183.697 379.986C183.602 379.886 183.477 379.82 183.341 379.798C183.204 379.776 183.064 379.8 182.943 379.865C182.821 379.93 182.724 380.034 182.667 380.16L172.194 403.321L153.65 433.519C153.41 433.906 153.039 434.194 152.603 434.33C152.168 434.466 151.699 434.44 151.281 434.259L143.873 431.004C143.628 430.896 143.409 430.738 143.23 430.539C143.051 430.34 142.916 430.106 142.835 429.851C142.753 429.596 142.727 429.327 142.758 429.062C142.788 428.796 142.875 428.54 143.012 428.311L160.059 399.805L165.287 375.788C163.643 365.373 170.692 349.888 170.763 349.732L170.798 349.656L190.215 342.077L190.312 342.196C197.969 367.292 202.635 394.299 199.19 434.814C199.148 435.284 198.931 435.721 198.584 436.041C198.236 436.36 197.781 436.538 197.309 436.541Z" fill="#2F2E41"/>
<path d="M170.016 352.194L169.925 352.004C169.882 351.914 165.565 342.819 162.236 333.1C161.597 331.22 161.355 329.228 161.526 327.251C161.698 325.273 162.278 323.352 163.232 321.61C164.198 319.85 165.519 318.31 167.112 317.087C168.705 315.863 170.535 314.984 172.486 314.503C175.873 313.693 179.44 314.124 182.535 315.719C185.631 317.314 188.049 319.967 189.351 323.194C191.991 329.787 191.149 336.824 190.357 342.358L190.342 342.469L190.241 342.517L170.016 352.194Z" fill="#7868E6"/>
<path d="M186.475 294.519H170.115V287.397C173.706 285.972 177.219 284.76 179.344 287.397C181.235 287.397 183.049 288.147 184.386 289.483C185.724 290.818 186.475 292.63 186.475 294.519H186.475Z" fill="#2F2E41"/>
<path d="M169.209 286.14C159.428 286.14 156.691 298.383 156.691 305.29C156.691 309.142 158.435 310.52 161.176 310.986L162.144 305.83L164.412 311.208C165.182 311.212 165.99 311.197 166.829 311.182L167.598 309.601L169.312 311.153C176.178 311.164 181.727 312.163 181.727 305.29C181.727 298.383 179.326 286.14 169.209 286.14Z" fill="#2F2E41"/>
<path d="M212.682 299.843C212.745 299.956 212.802 300.073 212.855 300.194C213.118 300.787 213.253 301.43 213.25 302.079C213.247 302.729 213.107 303.37 212.838 303.962C212.57 304.553 212.18 305.082 211.692 305.512C211.205 305.942 210.633 306.265 210.012 306.459C209.868 306.503 209.721 306.54 209.573 306.57L201.08 328.508C200.8 329.226 200.295 329.833 199.641 330.241C198.987 330.649 198.219 330.835 197.451 330.773L197.408 330.765L179.001 325.231C177.996 324.928 177.153 324.24 176.656 323.317C176.16 322.394 176.051 321.311 176.353 320.308C176.656 319.304 177.345 318.462 178.27 317.966C179.194 317.47 180.278 317.361 181.283 317.663C181.306 317.67 181.329 317.677 181.352 317.685L194.375 321.86L204.458 304.008C204.369 303.823 204.293 303.632 204.231 303.436C203.89 302.345 203.966 301.166 204.446 300.128C204.926 299.09 205.775 298.267 206.828 297.819C207.882 297.371 209.064 297.331 210.146 297.704C211.228 298.078 212.132 298.84 212.682 299.843L212.682 299.843Z" fill="#FFB8B8"/>
<path d="M594.506 479.506C576.856 486.053 556.251 495.323 527.449 496.357C498.799 497.556 462.268 490.531 468.315 474.028C474.212 457.361 522.687 431.217 548.547 417.105C574.723 403.006 577.804 401.078 578.102 378.335C578.4 355.593 575.751 312.187 585.115 299.613C594.314 287.19 615.513 305.913 642.99 317.94C670.467 329.967 704.072 335.134 711.742 352.356C719.426 369.262 701.011 398.375 685.153 419.058C669.131 439.894 655.489 452.767 641.409 460.882C627.166 469.149 612.156 472.959 594.506 479.506Z" fill="#7868E6"/>
<defs>
<clipPath id="clip0">
<rect width="436.713" height="650.543" fill="white" transform="translate(470.86 -214) rotate(46.3687)"/>
</clipPath>
</defs>
</svg>
