<svg width="838" height="758" viewBox="0 0 838 758" fill="none" xmlns="http://www.w3.org/2000/svg">
<path fill-rule="evenodd" clip-rule="evenodd" d="M816.406 144.461C883.015 158.988 831.125 284.4 879.55 332.387C919.232 371.71 895.81 364.386 920.5 414.5C948.766 471.873 768.113 459.954 747.5 520.5C726.921 580.946 1018.69 620.011 967 657.5C915.369 694.946 737.43 631.945 675 645C603.731 659.903 663.387 817.224 604.935 773.81C546.631 730.506 440.741 550.749 420.5 481C469 348 556.55 462.387 641.05 332.387C657.743 260.554 548.144 238.972 608.264 196.263C641.05 120 704 94.5 816.406 144.461Z" fill="#3F3D56"/>
<path fill-rule="evenodd" clip-rule="evenodd" d="M570.863 109.02C620.595 138.326 637.157 199.91 670.962 246.701C705.346 294.292 777.02 328.847 771.944 387.34C766.602 448.905 686.869 472.801 647.229 520.208C619.151 553.786 608.945 601.042 572.715 625.602C536.676 650.032 491.349 656.493 447.824 655.38C406.989 654.337 373.124 626.262 332.844 619.471C273.972 609.547 191.574 655.266 157.274 606.401C122.993 557.564 197.086 496.146 204.741 436.972C210.295 394.044 180.732 350.277 195.667 309.649C210.881 268.262 256.377 248.779 285.947 216.069C325.014 172.854 343.454 106.333 397.988 85.8433C453.357 65.0399 519.904 78.9908 570.863 109.02Z" fill="#B8B5FF"/>
<path fill-rule="evenodd" clip-rule="evenodd" d="M210.5 394C281.923 397.337 411.382 268.499 491.599 301.086C557.584 310.969 616.676 384.549 616.391 451.27C616.094 520.344 520.336 547.072 490.279 609.265C466.958 657.519 499.656 723.042 465.203 764.094C428.714 807.57 365.543 836.44 310.204 823.826C255.669 811.395 247.598 731.596 199.249 703.472C140.768 669.456 45.38 705.664 8.9997 648.623C-25.4039 594.681 59.4959 512.663 77.5 451.27C96.1884 387.543 44.7524 174.769 109.5 160C209.82 160 132.261 390.345 210.5 394Z" fill="#7868E6"/>
<g clip-path="url(#clip0)">
<path d="M146.447 165.341H291.914C293.889 165.343 295.781 166.131 297.178 167.531C298.574 168.93 299.359 170.828 299.361 172.808V389.085C299.359 391.065 298.574 392.963 297.178 394.363C295.781 395.763 293.889 396.55 291.914 396.552H146.447C144.473 396.55 142.58 395.763 141.184 394.363C139.788 392.963 139.002 391.065 139 389.085V172.808C139.002 170.828 139.788 168.93 141.184 167.531C142.58 166.131 144.473 165.343 146.447 165.341Z" fill="#F2F2F2"/>
<path d="M148.253 170.772H290.109C291.126 170.773 292.101 171.178 292.82 171.9C293.539 172.621 293.944 173.598 293.945 174.618V387.275C293.944 388.295 293.539 389.273 292.82 389.994C292.101 390.715 291.126 391.121 290.109 391.122H148.253C147.236 391.121 146.26 390.715 145.541 389.994C144.822 389.273 144.417 388.295 144.416 387.275V174.618C144.417 173.598 144.822 172.621 145.541 171.9C146.26 171.178 147.236 170.773 148.253 170.772Z" fill="white"/>
<path d="M246.833 250.199C246.833 263.871 234.226 261.803 218.673 261.803C203.121 261.803 190.514 263.871 190.514 250.199C190.514 236.528 196.672 212.295 218.673 212.295C241.433 212.295 246.833 236.528 246.833 250.199Z" fill="#2F2E41"/>
<path d="M279.96 365.921C280.524 364.846 280.846 363.66 280.904 362.447C280.961 361.233 280.753 360.022 280.293 358.898C279.833 357.774 279.133 356.765 278.242 355.941C277.351 355.118 276.291 354.501 275.136 354.133L242.875 285.705L228.118 296.081L264.47 360.08C263.982 362.066 264.237 364.163 265.188 365.972C266.138 367.782 267.718 369.179 269.627 369.899C271.537 370.619 273.643 370.612 275.548 369.879C277.452 369.146 279.022 367.738 279.96 365.921V365.921Z" fill="#A0616A"/>
<path d="M251.888 291.716L250.044 288.823L249.103 287.338L241.858 275.951C240.743 273.451 238.684 271.497 236.134 270.517C233.584 269.536 230.75 269.609 228.254 270.72C225.757 271.831 223.802 273.888 222.816 276.442C221.83 278.996 221.895 281.838 222.995 284.344L224.654 290.277L228.04 302.407C228.246 303.153 228.684 303.814 229.29 304.294C229.52 304.487 229.774 304.648 230.046 304.774C230.52 304.998 231.036 305.119 231.56 305.128C232.084 305.138 232.604 305.035 233.086 304.828C233.101 304.82 233.125 304.812 233.14 304.805L241.904 300.875L241.92 300.867L248.609 297.866L250.275 297.123C250.753 296.91 251.179 296.596 251.525 296.203C251.891 295.797 252.16 295.313 252.312 294.787C252.468 294.275 252.511 293.735 252.438 293.205C252.365 292.674 252.177 292.166 251.888 291.716Z" fill="#CCCCCC"/>
<path d="M205.651 388.735C205.323 388.19 204.862 387.737 204.311 387.422C203.759 387.106 203.136 386.937 202.501 386.93C201.866 386.924 201.24 387.081 200.683 387.386C200.126 387.691 199.655 388.134 199.317 388.673C199.171 388.894 199.054 389.133 198.97 389.385L198.53 390.599H206.77L205.651 388.735Z" fill="#2F2E41"/>
<path d="M218.496 261.018C228.961 261.018 237.445 252.512 237.445 242.019C237.445 231.526 228.961 223.02 218.496 223.02C208.031 223.02 199.547 231.526 199.547 242.019C199.547 252.512 208.031 261.018 218.496 261.018Z" fill="#A0616A"/>
<path d="M251.71 298.214C251.664 297.533 251.602 296.86 251.525 296.203C251.251 293.703 250.756 291.234 250.044 288.823C249.897 288.297 249.735 287.786 249.558 287.284C247.302 280.618 243.381 274.642 238.17 269.925C236.107 268.071 233.434 267.047 230.664 267.047H203.97C202.33 267.048 200.711 267.407 199.225 268.1C197.739 268.793 196.422 269.804 195.366 271.061C194.31 272.318 193.54 273.791 193.111 275.377C192.683 276.964 192.605 278.625 192.883 280.244C192.875 280.252 192.875 280.252 192.883 280.26C193.071 281.341 193.417 282.389 193.909 283.369L194.989 285.528L202.226 300.039L211.229 318.094L211.754 319.146L245.307 328.398L245.445 328.081C245.569 327.802 245.7 327.516 245.816 327.238C246.001 326.82 246.179 326.402 246.356 325.992C249.344 319.177 251.16 311.903 251.726 304.48V304.472C251.852 302.388 251.847 300.297 251.71 298.214Z" fill="#3F3D56"/>
<path d="M246.356 325.992C246.242 325.598 246.062 325.227 245.824 324.894C244.96 323.735 243.927 322.713 242.761 321.861L242.753 321.854C238.687 318.759 230.617 315.155 215.025 315.062H215.002C214.287 315.062 213.588 315.269 212.988 315.657C212.387 316.045 211.911 316.599 211.615 317.251L211.229 318.094L208.745 323.571C208.533 324.039 208.2 324.443 207.781 324.739C203.839 327.539 184.744 343.242 195.954 377.72C197.049 381.084 198.175 384.759 199.317 388.673C199.503 389.307 199.688 389.949 199.873 390.599H233.48L232.762 385.184C232.714 384.831 232.733 384.471 232.816 384.125L246.341 328.166L246.402 327.926C246.557 327.288 246.541 326.621 246.356 325.992Z" fill="#2F2E41"/>
<path d="M256.902 263.35H271.561C272.175 263.35 272.763 263.594 273.197 264.03C273.632 264.465 273.875 265.055 273.875 265.671V269.538C274.08 269.539 274.276 269.621 274.42 269.766C274.565 269.91 274.646 270.107 274.647 270.312V271.859C274.646 272.064 274.565 272.26 274.42 272.405C274.276 272.55 274.08 272.632 273.875 272.632V274.18C274.08 274.18 274.276 274.262 274.42 274.407C274.565 274.552 274.646 274.748 274.647 274.953V276.5C274.646 276.705 274.565 276.902 274.42 277.047C274.276 277.191 274.08 277.273 273.875 277.274V298.16C273.875 298.775 273.632 299.365 273.197 299.801C272.763 300.236 272.175 300.48 271.561 300.48H256.902C256.288 300.48 255.7 300.236 255.266 299.801C254.832 299.365 254.588 298.775 254.588 298.16V265.671C254.588 265.055 254.832 264.465 255.266 264.03C255.7 263.594 256.288 263.35 256.902 263.35Z" fill="#3F3D56"/>
<path d="M256.131 298.16V265.671C256.131 265.055 256.375 264.465 256.809 264.03C257.243 263.594 257.831 263.35 258.445 263.35H256.902C256.288 263.35 255.7 263.594 255.266 264.03C254.832 264.465 254.588 265.055 254.588 265.671V298.16C254.588 298.775 254.832 299.365 255.266 299.801C255.7 300.236 256.288 300.48 256.902 300.48H258.445C257.831 300.48 257.243 300.236 256.809 299.801C256.375 299.365 256.131 298.775 256.131 298.16Z" fill="#6C63FF"/>
<path d="M263.846 277.274C265.55 277.274 266.932 275.888 266.932 274.18C266.932 272.471 265.55 271.085 263.846 271.085C262.141 271.085 260.76 272.471 260.76 274.18C260.76 275.888 262.141 277.274 263.846 277.274Z" fill="white"/>
<path d="M259.93 285.02C259.68 285.366 259.457 285.732 259.264 286.114L221.275 290.689L215.689 283.24L203.375 290.224L211.987 304.375C212.682 305.518 213.729 306.404 214.97 306.9C216.21 307.396 217.578 307.475 218.867 307.125L260.886 295.726C262.08 296.86 263.59 297.602 265.215 297.855C266.84 298.107 268.504 297.857 269.984 297.139C271.464 296.42 272.691 295.267 273.501 293.832C274.312 292.397 274.668 290.749 274.521 289.107C274.374 287.464 273.733 285.905 272.681 284.638C271.629 283.37 270.218 282.453 268.634 282.01C267.05 281.566 265.369 281.616 263.814 282.154C262.259 282.692 260.905 283.691 259.93 285.02V285.02Z" fill="#A0616A"/>
<path d="M220.958 285.922L210.311 272.091C209.123 269.96 207.175 268.358 204.857 267.608C202.54 266.858 200.025 267.014 197.818 268.047C195.611 269.079 193.876 270.911 192.96 273.173C192.045 275.436 192.017 277.962 192.883 280.244C192.875 280.252 192.875 280.252 192.883 280.26C193.042 280.681 193.233 281.09 193.454 281.482L194.989 285.528L199.657 297.866C199.833 298.334 200.109 298.758 200.464 299.11C200.82 299.461 201.247 299.73 201.717 299.9C201.882 299.961 202.053 300.008 202.226 300.039C203.034 300.205 203.875 300.073 204.595 299.668L207.974 297.773L219.901 291.089C220.335 290.843 220.712 290.506 221.006 290.102C221.3 289.698 221.504 289.235 221.606 288.746C221.706 288.256 221.7 287.75 221.588 287.263C221.477 286.776 221.262 286.319 220.958 285.922Z" fill="#3F3D56"/>
<path d="M196.686 245.558H204.18L207.487 234.133L208.148 245.558H211.73L213.659 238.894L214.044 245.558H240.661C240.661 231.887 231.681 220.805 220.602 220.805H216.745C205.666 220.805 196.686 231.887 196.686 245.558Z" fill="#2F2E41"/>
<path d="M416.469 231.035H259.4C257.425 231.033 255.532 230.246 254.136 228.846C252.74 227.446 251.954 225.548 251.952 223.568V143.467C251.954 141.487 252.74 139.589 254.136 138.189C255.532 136.79 257.425 136.002 259.4 136H416.469C418.444 136.002 420.337 136.79 421.733 138.189C423.129 139.589 423.915 141.487 423.917 143.467V223.568C423.915 225.548 423.129 227.446 421.733 228.846C420.337 230.246 418.444 231.033 416.469 231.035Z" fill="#CCCCCC"/>
<path d="M414.664 225.605H261.205C260.188 225.604 259.213 225.198 258.493 224.477C257.774 223.756 257.37 222.778 257.368 221.758V145.277C257.37 144.257 257.774 143.28 258.493 142.559C259.213 141.837 260.188 141.432 261.205 141.431H414.664C415.681 141.432 416.656 141.837 417.376 142.559C418.095 143.28 418.499 144.257 418.5 145.277V221.758C418.499 222.778 418.095 223.756 417.376 224.477C416.656 225.198 415.681 225.604 414.664 225.605Z" fill="white"/>
<path d="M268.817 245.759C268.436 245.758 268.059 245.682 267.707 245.534C267.183 245.323 266.734 244.958 266.42 244.486C266.106 244.015 265.941 243.46 265.947 242.893V228.171L288.074 227.61L270.815 244.914C270.554 245.181 270.243 245.393 269.9 245.538C269.557 245.683 269.189 245.758 268.817 245.759Z" fill="#CCCCCC"/>
<path d="M395.979 180.088H318.347C317.873 180.089 317.402 179.996 316.964 179.814C316.525 179.632 316.126 179.366 315.791 179.029C315.455 178.693 315.188 178.294 315.006 177.854C314.825 177.415 314.731 176.943 314.731 176.468C314.731 175.992 314.825 175.52 315.006 175.081C315.188 174.641 315.455 174.242 315.791 173.906C316.126 173.569 316.525 173.303 316.964 173.121C317.402 172.94 317.873 172.846 318.347 172.847H395.979C396.937 172.847 397.855 173.229 398.533 173.908C399.21 174.587 399.59 175.507 399.59 176.468C399.59 177.428 399.21 178.349 398.533 179.028C397.855 179.707 396.937 180.088 395.979 180.088Z" fill="#CCCCCC"/>
<path d="M370.704 164.701H318.347C317.39 164.701 316.471 164.32 315.794 163.641C315.117 162.962 314.736 162.041 314.736 161.081C314.736 160.121 315.117 159.2 315.794 158.521C316.471 157.842 317.39 157.46 318.347 157.46H370.704C371.661 157.46 372.58 157.842 373.257 158.521C373.934 159.2 374.315 160.121 374.315 161.081C374.315 162.041 373.934 162.962 373.257 163.641C372.58 164.32 371.661 164.701 370.704 164.701Z" fill="#CCCCCC"/>
<path d="M286.211 180.088C292.443 180.088 297.495 175.023 297.495 168.774C297.495 162.526 292.443 157.46 286.211 157.46C279.979 157.46 274.927 162.526 274.927 168.774C274.927 175.023 279.979 180.088 286.211 180.088Z" fill="#6C63FF"/>
<path d="M372.055 209.575C374.05 209.575 375.666 207.954 375.666 205.954C375.666 203.955 374.05 202.334 372.055 202.334C370.061 202.334 368.445 203.955 368.445 205.954C368.445 207.954 370.061 209.575 372.055 209.575Z" fill="#E6E6E6"/>
<path d="M384.693 209.575C386.687 209.575 388.304 207.954 388.304 205.954C388.304 203.955 386.687 202.334 384.693 202.334C382.699 202.334 381.082 203.955 381.082 205.954C381.082 207.954 382.699 209.575 384.693 209.575Z" fill="#E6E6E6"/>
<path d="M397.331 209.575C399.325 209.575 400.942 207.954 400.942 205.954C400.942 203.955 399.325 202.334 397.331 202.334C395.337 202.334 393.72 203.955 393.72 205.954C393.72 207.954 395.337 209.575 397.331 209.575Z" fill="#E6E6E6"/>
<path d="M546.086 286.789H691.553C693.527 286.791 695.42 287.578 696.816 288.978C698.212 290.378 698.998 292.276 699 294.256V510.533C698.998 512.513 698.212 514.411 696.816 515.811C695.42 517.21 693.527 517.998 691.553 518H546.086C544.111 517.998 542.218 517.21 540.822 515.811C539.426 514.411 538.641 512.513 538.639 510.533V294.256C538.641 292.276 539.426 290.378 540.822 288.978C542.218 287.578 544.111 286.791 546.086 286.789Z" fill="#F2F2F2"/>
<path d="M547.891 292.219H689.747C690.764 292.22 691.74 292.626 692.459 293.347C693.178 294.068 693.583 295.046 693.584 296.066V508.723C693.583 509.743 693.178 510.72 692.459 511.441C691.74 512.163 690.764 512.568 689.747 512.569H547.891C546.874 512.568 545.899 512.163 545.18 511.441C544.461 510.72 544.056 509.743 544.055 508.723V296.066C544.056 295.046 544.461 294.068 545.18 293.347C545.899 292.626 546.874 292.22 547.891 292.219Z" fill="white"/>
<path d="M552.196 396.289H395.126C393.152 396.287 391.259 395.5 389.863 394.1C388.466 392.7 387.681 390.802 387.679 388.822V308.721C387.681 306.741 388.466 304.843 389.863 303.443C391.259 302.044 393.152 301.256 395.126 301.254H552.196C554.17 301.256 556.063 302.044 557.46 303.443C558.856 304.843 559.641 306.741 559.643 308.721V388.822C559.641 390.802 558.856 392.7 557.46 394.1C556.063 395.5 554.17 396.287 552.196 396.289Z" fill="#CCCCCC"/>
<path d="M550.391 390.859H396.931C395.914 390.858 394.939 390.452 394.22 389.731C393.501 389.01 393.096 388.032 393.095 387.012V310.531C393.096 309.511 393.501 308.534 394.22 307.812C394.939 307.091 395.914 306.686 396.931 306.685H550.391C551.408 306.686 552.383 307.091 553.102 307.812C553.821 308.534 554.226 309.511 554.227 310.531V387.012C554.226 388.032 553.821 389.01 553.102 389.731C552.383 390.452 551.408 390.858 550.391 390.859Z" fill="white"/>
<path d="M541.503 410.168L524.245 392.864L546.371 393.425V408.147C546.377 408.713 546.212 409.269 545.898 409.74C545.584 410.211 545.135 410.577 544.611 410.788C544.259 410.936 543.883 411.012 543.502 411.013C543.129 411.012 542.761 410.937 542.418 410.792C542.075 410.647 541.764 410.435 541.503 410.168Z" fill="#CCCCCC"/>
<path d="M531.706 345.342H454.074C453.599 345.343 453.129 345.249 452.69 345.068C452.252 344.886 451.853 344.62 451.517 344.283C451.181 343.947 450.915 343.548 450.733 343.108C450.551 342.669 450.458 342.197 450.458 341.721C450.458 341.246 450.551 340.774 450.733 340.335C450.915 339.895 451.181 339.496 451.517 339.16C451.853 338.823 452.252 338.557 452.69 338.375C453.129 338.194 453.599 338.1 454.074 338.101H531.706C532.181 338.1 532.651 338.194 533.089 338.375C533.528 338.557 533.927 338.823 534.263 339.16C534.598 339.496 534.865 339.895 535.047 340.335C535.228 340.774 535.322 341.246 535.322 341.721C535.322 342.197 535.228 342.669 535.047 343.108C534.865 343.548 534.598 343.947 534.263 344.283C533.927 344.62 533.528 344.886 533.089 345.068C532.651 345.249 532.181 345.343 531.706 345.342Z" fill="#CCCCCC"/>
<path d="M506.43 329.955H454.074C453.6 329.955 453.13 329.862 452.692 329.68C452.254 329.498 451.856 329.231 451.521 328.895C451.185 328.559 450.919 328.16 450.738 327.72C450.556 327.281 450.463 326.81 450.463 326.335C450.463 325.859 450.556 325.389 450.738 324.949C450.919 324.51 451.185 324.111 451.521 323.775C451.856 323.439 452.254 323.172 452.692 322.99C453.13 322.808 453.6 322.714 454.074 322.714H506.43C507.388 322.714 508.307 323.096 508.984 323.775C509.661 324.454 510.041 325.375 510.041 326.335C510.041 327.295 509.661 328.216 508.984 328.895C508.307 329.574 507.388 329.955 506.43 329.955Z" fill="#CCCCCC"/>
<path d="M421.937 345.342C428.169 345.342 433.221 340.277 433.221 334.028C433.221 327.78 428.169 322.714 421.937 322.714C415.706 322.714 410.654 327.78 410.654 334.028C410.654 340.277 415.706 345.342 421.937 345.342Z" fill="#6C63FF"/>
<path d="M507.782 374.829C509.776 374.829 511.393 373.208 511.393 371.208C511.393 369.209 509.776 367.588 507.782 367.588C505.788 367.588 504.171 369.209 504.171 371.208C504.171 373.208 505.788 374.829 507.782 374.829Z" fill="#E6E6E6"/>
<path d="M520.42 374.829C522.414 374.829 524.031 373.208 524.031 371.208C524.031 369.209 522.414 367.588 520.42 367.588C518.426 367.588 516.809 369.209 516.809 371.208C516.809 373.208 518.426 374.829 520.42 374.829Z" fill="#E6E6E6"/>
<path d="M533.058 374.829C535.052 374.829 536.668 373.208 536.668 371.208C536.668 369.209 535.052 367.588 533.058 367.588C531.063 367.588 529.447 369.209 529.447 371.208C529.447 373.208 531.063 374.829 533.058 374.829Z" fill="#E6E6E6"/>
<path d="M553.921 444.771C554.547 443.822 555.372 443.022 556.338 442.428C557.305 441.833 558.39 441.458 559.517 441.33C560.644 441.201 561.785 441.322 562.861 441.683C563.936 442.045 564.919 442.638 565.741 443.422L590.24 430.743L588.717 445.027L565.686 454.877C564.281 456.174 562.451 456.909 560.542 456.944C558.633 456.978 556.777 456.309 555.327 455.063C553.877 453.818 552.933 452.082 552.674 450.185C552.415 448.288 552.859 446.362 553.921 444.771Z" fill="#FFB8B8"/>
<path d="M630.202 381.27C628.301 379.779 625.971 378.944 623.559 378.89C621.146 378.835 618.781 379.565 616.816 380.969C615.93 381.607 615.137 382.367 614.463 383.227L592.954 423.228L573.103 438.266C572.445 438.762 571.985 439.478 571.807 440.285C571.672 440.876 571.696 441.492 571.876 442.071L573.828 448.384C574.037 449.062 574.446 449.66 575.001 450.101C575.217 450.264 575.45 450.404 575.695 450.519C575.725 450.535 575.756 450.548 575.788 450.557C576.221 450.744 576.687 450.839 577.158 450.838C577.629 450.836 578.095 450.738 578.526 450.55L601.795 440.431L602.05 440.315C609.892 436.836 616.226 430.645 619.895 422.872L632.13 396.981C633.944 394.638 634.759 391.67 634.398 388.727C634.036 385.783 632.528 383.102 630.202 381.27Z" fill="#3F3D56"/>
<path d="M632.667 366.53C643.133 366.53 651.616 358.024 651.616 347.531C651.616 337.038 643.133 328.532 632.667 328.532C622.202 328.532 613.719 337.038 613.719 347.531C613.719 358.024 622.202 366.53 632.667 366.53Z" fill="#FFB8B8"/>
<path d="M645.493 474.584L645.3 473.106L644.405 466.369L643.425 459.012L639.946 459.608L638.604 459.832L637.246 460.064L636.798 460.142L602.281 466.021L597.984 463.429L597.891 463.375L597.93 463.77L598.74 472.194L602.605 512.434H650.531L645.493 474.584Z" fill="#2F2E41"/>
<path d="M658.763 397.283C658.148 390.391 654.9 384.005 649.698 379.46C644.691 375.014 638.128 372.744 631.452 373.148C625.087 373.573 620.196 376.196 616.816 380.969C615.078 383.523 613.794 386.36 613.02 389.354C609.178 403.216 605.128 423.522 602.05 440.315C600.321 449.691 598.902 457.976 597.984 463.429C597.969 463.545 597.953 463.654 597.93 463.77C597.575 465.897 597.305 467.56 597.128 468.666C597.015 469.348 597.109 470.049 597.396 470.677C597.683 471.306 598.151 471.834 598.74 472.194C598.748 472.201 598.763 472.209 598.771 472.217C602.665 474.553 607.11 475.805 611.647 475.845C617.141 475.845 623.729 473.926 630.665 467.73C631.136 467.301 631.742 467.052 632.378 467.025C633.014 466.998 633.639 467.196 634.144 467.583L634.901 468.171L642.368 473.996C642.952 474.453 643.665 474.71 644.405 474.731C644.774 474.747 645.142 474.698 645.493 474.584C645.525 474.58 645.556 474.572 645.586 474.561C646.124 474.385 646.611 474.079 647.004 473.671C647.397 473.262 647.683 472.763 647.839 472.217C648.255 470.762 648.718 469.084 649.227 467.212C649.436 466.431 649.651 465.611 649.875 464.76C650.855 461 651.943 456.637 653.007 451.888C656.726 435.287 660.26 413.961 658.763 397.283Z" fill="#3F3D56"/>
<path d="M627.558 476.569C627.466 475.435 627.623 474.295 628.018 473.229C628.412 472.163 629.035 471.197 629.843 470.398C630.651 469.6 631.623 468.989 632.692 468.608C633.76 468.227 634.899 468.085 636.028 468.193L647.502 443.058L655.095 455.24L643.035 477.241C642.728 479.131 641.741 480.842 640.259 482.05C638.778 483.259 636.906 483.88 634.999 483.797C633.091 483.715 631.28 482.933 629.908 481.601C628.537 480.268 627.701 478.478 627.558 476.569Z" fill="#FFB8B8"/>
<path d="M665.992 418.517L659.681 390.568C659.665 387.811 658.64 385.156 656.799 383.108C654.958 381.06 652.431 379.762 649.698 379.46C649.304 379.421 648.903 379.398 648.494 379.398C647.021 379.402 645.562 379.697 644.203 380.267C642.843 380.836 641.609 381.669 640.571 382.717C639.532 383.765 638.71 385.009 638.152 386.376C637.593 387.743 637.309 389.207 637.315 390.684L645.015 435.465L644.992 435.558L640.911 451.006L638.65 459.585C638.626 459.665 638.611 459.748 638.604 459.832C638.459 460.552 638.554 461.299 638.874 461.959C639.13 462.514 639.53 462.989 640.031 463.336L644.405 466.369L645.447 467.096C646.026 467.501 646.716 467.717 647.422 467.715C647.695 467.714 647.966 467.683 648.232 467.622C648.263 467.614 648.286 467.606 648.317 467.599C648.637 467.515 648.944 467.385 649.227 467.212C649.753 466.892 650.184 466.439 650.477 465.897L662.559 443.534C666.685 435.886 667.905 426.997 665.992 418.517Z" fill="#3F3D56"/>
<path opacity="0.2" d="M638.852 409.568L645.795 438.963L635.766 463.716L642.709 439.736L638.852 409.568Z" fill="black"/>
<path d="M648.003 358.949C649.591 358.382 651.051 357.504 652.299 356.368C652.85 355.874 653.443 355.415 653.993 354.922C658.852 350.565 660.312 343.071 658.144 336.907C655.976 330.743 650.584 326.005 644.423 323.87C638.262 321.734 631.433 322.026 625.177 323.864C618.439 325.843 611.69 330.301 610.09 337.156C609.664 338.981 609.648 341.005 610.887 342.545C611.26 343.01 611.747 343.368 612.302 343.585C614.485 344.424 615.702 342.711 617.332 341.983C619.572 340.983 622.329 342.063 623.889 343.961C625.448 345.858 626.025 348.379 626.265 350.826C626.313 352.335 626.549 353.831 626.967 355.281C627.185 356.005 627.584 356.662 628.125 357.188C628.667 357.715 629.333 358.094 630.062 358.289C631.82 358.615 633.51 357.401 634.616 355.993C635.722 354.585 636.506 352.913 637.813 351.69C639.119 350.467 641.251 349.822 642.683 350.894C643.163 351.3 643.568 351.787 643.879 352.333C646.075 355.715 645.807 355.568 648.003 358.949H648.003Z" fill="#2F2E41"/>
<path d="M557.258 428.505L543.89 434.535C543.33 434.788 542.893 435.253 542.675 435.829C542.458 436.404 542.477 437.043 542.729 437.604L544.311 441.131C544.125 441.216 543.98 441.371 543.907 441.563C543.835 441.754 543.841 441.967 543.924 442.154L544.557 443.565C544.642 443.752 544.797 443.897 544.988 443.97C545.179 444.042 545.391 444.036 545.578 443.953L546.211 445.364C546.024 445.448 545.879 445.604 545.807 445.795C545.734 445.987 545.74 446.199 545.824 446.387L546.457 447.797C546.541 447.984 546.696 448.13 546.887 448.202C547.078 448.275 547.29 448.269 547.477 448.186L556.023 467.233C556.275 467.794 556.739 468.232 557.313 468.45C557.887 468.668 558.524 468.649 559.084 468.397L572.452 462.367C573.011 462.114 573.448 461.649 573.666 461.073C573.884 460.498 573.865 459.859 573.613 459.298L560.318 429.669C560.066 429.108 559.602 428.67 559.028 428.452C558.454 428.233 557.818 428.253 557.258 428.505Z" fill="#3F3D56"/>
<path d="M571.135 457.55L569.253 453.35L564.315 442.35L559.979 432.688C559.739 432.15 559.295 431.73 558.745 431.519C558.195 431.309 557.585 431.326 557.048 431.567L549.688 434.885L546.316 436.409C545.781 436.653 545.364 437.098 545.156 437.649C544.948 438.2 544.966 438.811 545.205 439.349L549.688 449.343L551.408 453.172L556.361 464.218C556.605 464.755 557.051 465.174 557.602 465.382C558.153 465.591 558.763 465.573 559.301 465.332L570.025 460.49C570.56 460.247 570.977 459.801 571.185 459.25C571.394 458.699 571.376 458.088 571.135 457.55Z" fill="#6C63FF"/>
</g>
<defs>
<clipPath id="clip0">
<rect width="560" height="382" fill="white" transform="translate(139 136)"/>
</clipPath>
</defs>
</svg>
