<svg width="694" height="502" viewBox="0 0 694 502" fill="none" xmlns="http://www.w3.org/2000/svg">
<g clip-path="url(#clip0)">
<path d="M591.115 355.853C591.685 354.991 592.436 354.264 593.317 353.723C594.197 353.183 595.186 352.842 596.212 352.726C597.239 352.609 598.278 352.718 599.258 353.047C600.237 353.375 601.133 353.915 601.881 354.627L624.196 343.104L622.809 356.085L601.831 365.038C600.552 366.217 598.884 366.885 597.145 366.916C595.406 366.948 593.716 366.339 592.396 365.207C591.075 364.075 590.215 362.498 589.979 360.774C589.743 359.05 590.147 357.299 591.115 355.853H591.115Z" fill="#A0616A"/>
<path d="M610.946 361.078C611.35 361.264 611.788 361.362 612.233 361.367C612.677 361.371 613.117 361.283 613.525 361.106L634.72 351.907C641.968 348.763 647.827 343.092 651.208 335.95L662.351 312.418C663.173 311.361 663.779 310.152 664.134 308.86C664.489 307.569 664.586 306.22 664.42 304.891C664.254 303.562 663.827 302.279 663.164 301.115C662.502 299.951 661.617 298.929 660.559 298.107C659.502 297.286 658.293 296.681 657.001 296.327C655.71 295.974 654.362 295.878 653.033 296.046C651.705 296.214 650.423 296.643 649.261 297.307C648.098 297.971 647.077 298.858 646.258 299.917L626.671 336.274L608.585 349.943C608.067 350.336 607.683 350.878 607.483 351.497C607.284 352.116 607.279 352.781 607.47 353.403L609.245 359.139C609.436 359.754 609.809 360.297 610.316 360.694C610.51 360.846 610.722 360.976 610.946 361.078V361.078Z" fill="#CCCCCC"/>
<path d="M662.841 284.743C653.309 284.743 645.581 277.012 645.581 267.475C645.581 257.938 653.309 250.207 662.841 250.207C672.373 250.207 680.101 257.938 680.101 267.475C680.101 277.012 672.373 284.743 662.841 284.743Z" fill="#A0616A"/>
<path d="M655.85 493.997L647.235 493.996L643.136 460.75L655.852 460.751L655.85 493.997Z" fill="#A0616A"/>
<path d="M630.62 501.999L657.696 502L657.696 491.534L641.081 491.533C638.307 491.533 635.646 492.636 633.684 494.598C631.722 496.561 630.62 499.223 630.62 501.999L630.62 501.999Z" fill="#2F2E41"/>
<path d="M683.959 493.997L675.344 493.996L671.245 460.75L683.961 460.751L683.959 493.997Z" fill="#A0616A"/>
<path d="M658.728 501.999L685.805 502L685.805 491.534L669.19 491.533C666.416 491.533 663.755 492.636 661.793 494.598C659.831 496.561 658.729 499.223 658.728 501.999L658.728 501.999Z" fill="#2F2E41"/>
<path d="M686.967 484.48C687.264 484.141 687.485 483.742 687.615 483.311C687.746 482.879 687.782 482.425 687.723 481.978L672.639 368.797L635.164 375.164L631.164 372.763L641.507 480.151C641.593 480.875 641.926 481.549 642.45 482.056C642.975 482.564 643.658 482.875 644.385 482.937L655.733 483.883C656.184 483.921 656.638 483.862 657.064 483.709C657.49 483.556 657.878 483.313 658.202 482.997C658.527 482.681 658.779 482.299 658.943 481.876C659.107 481.454 659.178 481.002 659.152 480.549L656.214 429.408C656.209 429.321 656.236 429.235 656.291 429.167C656.345 429.099 656.423 429.054 656.509 429.04C656.595 429.026 656.683 429.044 656.756 429.091C656.829 429.139 656.882 429.211 656.904 429.295L671.439 483.22C671.621 483.891 672.018 484.484 672.57 484.907C673.122 485.329 673.797 485.559 674.492 485.56H684.588C685.039 485.56 685.484 485.464 685.894 485.277C686.305 485.091 686.671 484.819 686.967 484.48V484.48Z" fill="#2F2E41"/>
<path d="M661.014 376.719C661.444 376.33 661.997 376.103 662.577 376.079C663.157 376.055 663.727 376.234 664.188 376.587L671.68 382.417C672.088 382.735 672.567 382.949 673.077 383.038C673.586 383.128 674.109 383.091 674.601 382.931C675.093 382.77 675.538 382.492 675.897 382.12C676.256 381.748 676.518 381.293 676.66 380.795C680.336 367.919 688.662 335.506 686.611 312.693C685.448 299.762 674.287 289.935 661.731 290.759C653.147 291.332 647.499 296.286 644.945 305.484C638.675 328.068 631.785 369.493 630.467 377.569C630.363 378.195 630.451 378.838 630.719 379.414C630.987 379.99 631.422 380.471 631.968 380.795C635.513 382.924 639.564 384.064 643.698 384.097C648.701 384.097 654.7 382.355 661.014 376.719Z" fill="#CCCCCC"/>
<path d="M658.187 384.753C658.103 383.723 658.246 382.687 658.606 381.718C658.965 380.749 659.533 379.87 660.268 379.145C661.004 378.419 661.89 377.864 662.863 377.517C663.836 377.171 664.874 377.043 665.902 377.141L676.353 354.296L683.269 365.368L672.284 385.364C672.005 387.081 671.105 388.636 669.756 389.735C668.407 390.833 666.702 391.398 664.964 391.323C663.227 391.247 661.577 390.537 660.328 389.326C659.079 388.115 658.317 386.488 658.187 384.753Z" fill="#A0616A"/>
<path d="M677.015 376.62C677.447 376.517 677.852 376.324 678.204 376.053C678.557 375.783 678.849 375.441 679.06 375.05L690.064 354.725C693.828 347.777 694.94 339.697 693.195 331.989L687.447 306.593C687.442 305.254 687.173 303.929 686.656 302.694C686.138 301.458 685.383 300.337 684.432 299.394C683.481 298.452 682.354 297.706 681.115 297.199C679.876 296.692 678.549 296.434 677.211 296.441C675.872 296.448 674.548 296.718 673.314 297.237C672.08 297.756 670.96 298.513 670.018 299.465C669.077 300.417 668.332 301.545 667.827 302.786C667.322 304.026 667.066 305.353 667.074 306.693L674.088 347.394L668.288 369.316C668.123 369.945 668.155 370.609 668.38 371.219C668.604 371.829 669.011 372.356 669.545 372.727L674.48 376.145C675.009 376.511 675.638 376.707 676.281 376.707C676.528 376.707 676.774 376.678 677.015 376.62V376.62Z" fill="#CCCCCC"/>
<path opacity="0.2" d="M668.474 323.858L674.798 350.574L665.663 373.071L671.987 351.277L668.474 323.858Z" fill="black"/>
<path d="M672.69 281.674C674.225 281.703 675.751 281.427 677.179 280.862C677.807 280.62 678.46 280.421 679.087 280.178C684.625 278.037 688.274 272.136 688.405 266.197C688.535 260.258 685.461 254.494 680.896 250.695C676.331 246.896 670.419 244.945 664.498 244.494C658.121 244.009 650.94 245.627 647.376 250.94C646.428 252.355 645.764 254.071 646.326 255.778C646.495 256.294 646.795 256.756 647.198 257.118C648.79 258.535 650.376 257.47 651.999 257.376C654.229 257.246 656.231 259.052 656.951 261.168C657.671 263.283 657.354 265.612 656.773 267.77C656.33 269.068 656.051 270.417 655.942 271.784C655.895 272.47 656.024 273.156 656.317 273.778C656.609 274.4 657.056 274.937 657.614 275.338C659.007 276.181 660.837 275.693 662.231 274.852C663.625 274.01 664.83 272.841 666.336 272.221C667.842 271.602 669.866 271.74 670.742 273.112C671.021 273.612 671.209 274.157 671.299 274.721C672.085 278.303 671.904 278.092 672.69 281.674L672.69 281.674Z" fill="#2F2E41"/>
<path d="M161.804 162.04H588.357C589.982 162.041 591.539 162.688 592.688 163.837C593.837 164.986 594.483 166.545 594.485 168.17V457.351C594.483 458.976 593.837 460.535 592.688 461.684C591.539 462.833 589.982 463.48 588.357 463.481H161.804C160.918 463.481 160.043 463.289 159.238 462.917C158.434 462.546 157.72 462.004 157.145 461.33C157.096 461.277 157.052 461.221 157.012 461.161C156.646 460.714 156.35 460.214 156.133 459.678C155.825 458.941 155.667 458.149 155.67 457.351V277.334H157.419V457.351C157.419 458.206 157.67 459.042 158.143 459.755C158.563 460.382 159.133 460.894 159.802 461.245C160.421 461.565 161.107 461.732 161.804 461.731H588.357C589.518 461.729 590.63 461.267 591.451 460.446C592.272 459.625 592.734 458.512 592.735 457.351V168.17C592.734 167.009 592.272 165.896 591.451 165.075C590.63 164.254 589.518 163.792 588.357 163.79H161.804C160.642 163.79 159.528 164.252 158.706 165.073C157.884 165.894 157.421 167.008 157.419 168.17V207.028H155.67V168.17C155.671 166.544 156.318 164.985 157.469 163.835C158.619 162.685 160.178 162.04 161.804 162.04V162.04Z" fill="#3F3D56"/>
<path d="M156.549 186.614H593.613V188.366H156.549V186.614Z" fill="#3F3D56"/>
<path d="M578.723 180.445C575.82 180.445 573.467 178.091 573.467 175.187C573.467 172.283 575.82 169.929 578.723 169.929C581.625 169.929 583.978 172.283 583.978 175.187C583.978 178.091 581.625 180.445 578.723 180.445Z" fill="#CCCCCC"/>
<path d="M563.614 180.445C560.711 180.445 558.358 178.091 558.358 175.187C558.358 172.283 560.711 169.929 563.614 169.929C566.516 169.929 568.869 172.283 568.869 175.187C568.869 178.091 566.516 180.445 563.614 180.445Z" fill="#CCCCCC"/>
<path d="M548.505 180.445C545.602 180.445 543.25 178.091 543.25 175.187C543.25 172.283 545.602 169.929 548.505 169.929C551.407 169.929 553.76 172.283 553.76 175.187C553.76 178.091 551.407 180.445 548.505 180.445Z" fill="#CCCCCC"/>
<path d="M442.948 428.036C444.757 428.028 446.536 427.568 448.122 426.699C449.709 425.83 451.054 424.578 452.035 423.058C453.017 421.537 453.604 419.796 453.743 417.991C453.882 416.187 453.569 414.376 452.833 412.723L440.313 384.776C450.173 376.051 458.064 365.325 463.461 353.313C468.857 341.301 471.636 328.276 471.613 315.107C471.613 263.654 429.773 221.792 378.343 221.792C326.913 221.792 285.073 263.654 285.073 315.107C285.073 366.559 326.913 408.421 378.343 408.421C387.34 408.412 396.287 407.093 404.904 404.506L436.857 426.148C438.652 427.374 440.774 428.032 442.948 428.036V428.036ZM378.343 234.813C394.988 234.803 411.223 239.975 424.799 249.61C438.374 259.245 448.618 272.867 454.108 288.587C459.599 304.308 460.066 321.348 455.444 337.345C450.821 353.343 441.339 367.505 428.311 377.87L424.367 381.017L437.838 411.089L406.924 390.151L403.872 391.176C392.845 394.883 381.144 396.146 369.581 394.878C358.018 393.61 346.868 389.842 336.905 383.835C326.942 377.828 318.404 369.725 311.883 360.088C305.361 350.451 301.012 339.51 299.137 328.025C297.261 316.539 297.905 304.783 301.022 293.57C304.14 282.358 309.657 271.958 317.192 263.091C324.727 254.225 334.098 247.103 344.657 242.22C355.216 237.337 366.71 234.81 378.343 234.813Z" fill="#3F3D56"/>
<path d="M378.343 323.787C371.155 323.787 365.328 317.957 365.328 310.766C365.328 303.575 371.155 297.746 378.343 297.746C385.531 297.746 391.357 303.575 391.357 310.766C391.357 317.957 385.531 323.787 378.343 323.787Z" fill="#3F3D56"/>
<path d="M415.217 323.787C408.029 323.787 402.203 317.957 402.203 310.766C402.203 303.575 408.029 297.746 415.217 297.746C422.405 297.746 428.232 303.575 428.232 310.766C428.232 317.957 422.405 323.787 415.217 323.787Z" fill="#3F3D56"/>
<path d="M341.469 323.787C334.281 323.787 328.454 317.957 328.454 310.766C328.454 303.575 334.281 297.746 341.469 297.746C348.656 297.746 354.483 303.575 354.483 310.766C354.483 317.957 348.656 323.787 341.469 323.787Z" fill="#3F3D56"/>
<path d="M121.622 259.231H245.301C246.792 259.231 248.222 258.639 249.276 257.584C250.331 256.529 250.923 255.099 250.923 253.607C250.923 252.115 250.331 250.685 249.276 249.63C248.222 248.575 246.792 247.982 245.301 247.982H121.622C120.131 247.982 118.701 248.575 117.647 249.63C116.592 250.685 116 252.115 116 253.607C116 255.099 116.592 256.529 117.647 257.584C118.701 258.639 120.131 259.231 121.622 259.231Z" fill="#CCCCCC"/>
<path d="M121.622 236.249H164.488C165.979 236.249 167.409 235.656 168.463 234.602C169.517 233.547 170.11 232.116 170.11 230.624C170.11 229.133 169.517 227.702 168.463 226.647C167.409 225.593 165.979 225 164.488 225H121.622C120.131 225 118.701 225.593 117.647 226.647C116.592 227.702 116 229.133 116 230.624C116 232.116 116.592 233.547 117.647 234.602C118.701 235.656 120.131 236.249 121.622 236.249Z" fill="#CCCCCC"/>
<path d="M76.8926 264.808C63.6971 264.808 53 254.106 53 240.904C53 227.702 63.6971 217 76.8926 217C90.0881 217 100.785 227.702 100.785 240.904C100.785 254.106 90.0881 264.808 76.8926 264.808Z" fill="#6C63FF"/>
<path d="M38.6732 205.622H261.436C264.603 205.627 267.639 206.887 269.879 209.128C272.118 211.368 273.378 214.406 273.383 217.574V266.788C273.378 269.956 272.118 272.994 269.879 275.234C267.639 277.475 264.603 278.735 261.436 278.74H38.6732C35.5062 278.735 32.4702 277.475 30.2309 275.234C27.9915 272.994 26.7314 269.956 26.7269 266.788V217.574C26.7314 214.406 27.9915 211.368 30.2309 209.128C32.4702 206.887 35.5062 205.627 38.6732 205.622V205.622ZM28.1324 266.788C28.1358 269.584 29.2474 272.264 31.2234 274.241C33.1995 276.218 35.8787 277.33 38.6732 277.334H261.436C264.231 277.33 266.91 276.218 268.886 274.241C270.862 272.264 271.974 269.584 271.977 266.788V217.574C271.974 214.778 270.862 212.098 268.886 210.121C266.91 208.144 264.231 207.032 261.436 207.028H38.6732C35.8787 207.032 33.1995 208.144 31.2234 210.121C29.2474 212.098 28.1358 214.778 28.1324 217.574V266.788Z" fill="#3F3D56"/>
<path d="M268.132 225.308C259.206 225.308 251.97 218.068 251.97 209.137C251.97 200.207 259.206 192.967 268.132 192.967C277.059 192.967 284.295 200.207 284.295 209.137C284.295 218.068 277.059 225.308 268.132 225.308Z" fill="#6C63FF"/>
<path d="M268.629 218.231C268.695 218.166 268.747 218.089 268.782 218.003C268.817 217.918 268.835 217.827 268.835 217.734V199.837C268.835 199.651 268.761 199.472 268.629 199.34C268.498 199.209 268.319 199.135 268.132 199.135C267.946 199.135 267.767 199.209 267.636 199.34C267.504 199.472 267.43 199.651 267.43 199.837V217.734C267.43 217.873 267.471 218.009 267.548 218.125C267.625 218.24 267.735 218.331 267.863 218.384C267.992 218.437 268.133 218.451 268.27 218.424C268.406 218.397 268.531 218.33 268.629 218.231V218.231Z" fill="white"/>
<path d="M277.573 209.283C277.672 209.185 277.739 209.059 277.766 208.923C277.793 208.787 277.779 208.645 277.726 208.517C277.673 208.388 277.582 208.279 277.467 208.201C277.351 208.124 277.216 208.083 277.077 208.083H259.188C259.002 208.083 258.823 208.157 258.691 208.289C258.56 208.421 258.486 208.599 258.486 208.786C258.486 208.972 258.56 209.151 258.691 209.283C258.823 209.415 259.002 209.489 259.188 209.489H277.077C277.169 209.489 277.26 209.471 277.346 209.436C277.431 209.4 277.508 209.348 277.573 209.283V209.283Z" fill="white"/>
<path d="M8.78403 424.066H42.5216C42.5216 425.036 77.2923 425.823 77.2923 425.823C77.8381 426.234 78.3355 426.706 78.775 427.229C80.0957 428.805 80.8175 430.797 80.8132 432.854V434.26C80.8123 436.59 79.8865 438.825 78.2394 440.473C76.5923 442.121 74.3585 443.047 72.0291 443.048H8.78403C6.45498 443.046 4.22196 442.119 2.57508 440.472C0.92819 438.824 0.00202286 436.59 1.56044e-07 434.26V432.854C0.00322379 430.524 0.92974 428.291 2.57636 426.643C4.22299 424.996 6.45536 424.069 8.78403 424.066Z" fill="#3F3D56"/>
<path d="M35.4909 442.699H44.6263V501.755H35.4909V442.699Z" fill="#3F3D56"/>
<path d="M9.49017 501.434C9.49017 502.422 23.3334 501.816 40.41 501.816C57.4865 501.816 71.3298 502.422 71.3298 501.434C71.3298 500.447 57.4865 492.616 40.41 492.616C23.3334 492.616 9.49017 500.447 9.49017 501.434Z" fill="#3F3D56"/>
<path d="M37.1277 344.924C26.2608 344.924 17.4515 336.111 17.4515 325.239C17.4515 314.367 26.2608 305.553 37.1277 305.553C47.9946 305.553 56.804 314.367 56.804 325.239C56.804 336.111 47.9946 344.924 37.1277 344.924Z" fill="#2F2E41"/>
<path d="M86.0935 493.667L94.7088 493.666L98.8078 460.42L86.0921 460.421L86.0935 493.667Z" fill="#FFB8B8"/>
<path d="M100.863 491.203H84.2477V501.67H111.324C111.324 498.894 110.222 496.232 108.26 494.269C106.298 492.306 103.637 491.203 100.863 491.203V491.203Z" fill="#2F2E41"/>
<path d="M99.5421 488.856L107.762 486.275L101.724 453.326L89.5923 457.135L99.5421 488.856Z" fill="#FFB8B8"/>
<path d="M112.896 482.082L97.0436 487.059L100.176 497.045L126.01 488.934C125.179 486.286 123.331 484.076 120.872 482.791C118.412 481.506 115.544 481.251 112.896 482.082V482.082Z" fill="#2F2E41"/>
<path d="M31.857 418.302C32.0559 416.627 32.4136 414.975 32.9251 413.367L34.5344 411.342L38.7226 406.083L38.9051 406.09C39.2146 406.104 40.5007 406.175 42.4891 406.329H42.5104C43.7401 406.428 45.2441 406.554 46.9515 406.716C47.4013 406.765 47.8721 406.807 48.3569 406.857V414.197H39.5729C39.146 414.197 38.7339 414.353 38.4133 414.635C38.0927 414.917 37.8854 415.306 37.8301 415.729C37.8233 415.807 37.8161 415.877 37.8161 415.954C37.8162 416.42 38.0014 416.867 38.3308 417.197C38.6603 417.526 39.107 417.712 39.5729 417.712H90.5907C91.2407 418.144 91.8649 418.613 92.46 419.118C94.2574 420.51 95.5525 422.45 96.1493 424.644C99.1287 437.749 104.561 462.187 106.163 469.365C106.279 469.906 106.253 470.468 106.087 470.995C105.92 471.523 105.62 471.998 105.214 472.374C104.915 472.653 104.564 472.871 104.181 473.014L97.8427 475.39C97.5822 475.487 97.3108 475.551 97.0346 475.58C96.9996 475.58 96.9715 475.587 96.9361 475.587C96.8708 475.593 96.8051 475.595 96.7395 475.594C96.0986 475.592 95.4733 475.396 94.9455 475.032C94.4177 474.668 94.0119 474.154 93.781 473.555L88.7776 460.422L81.0685 440.174L78.0188 432.167C74.4843 432.996 44.8292 439.563 34.8998 428.982C33.9203 427.939 33.1476 426.72 32.6228 425.389C31.7872 423.126 31.5241 420.692 31.857 418.302Z" fill="#2F2E41"/>
<path d="M23.2558 420.215C23.4102 419.589 23.5859 418.942 23.7897 418.288L29.5872 411.005L29.7697 411.012C30.1355 411.033 31.871 411.124 34.5344 411.342C37.5559 411.595 41.7795 412.003 46.5229 412.643C46.6632 412.657 46.8107 412.678 46.9513 412.699C47.4153 412.762 47.886 412.826 48.3568 412.896V414.197H39.5728C39.1459 414.197 38.7338 414.353 38.4132 414.635C38.0925 414.917 37.8853 415.306 37.83 415.729C37.8232 415.807 37.8159 415.877 37.8159 415.954C37.8161 416.42 38.0013 416.867 38.3307 417.197C38.6601 417.526 39.1069 417.712 39.5728 417.712H70.6192C71.9753 418.155 73.2826 418.619 74.5333 419.118C81.0966 421.719 86.0088 425.129 87.0138 429.565C87.3511 431.056 87.7234 432.694 88.117 434.437C89.5787 440.92 91.3564 448.857 92.9657 456.07V456.078C93.2961 457.568 93.6262 459.016 93.9426 460.422C95.2849 466.469 96.423 471.594 97.0276 474.287C97.0417 474.364 97.0554 474.434 97.0698 474.512V474.526C97.1399 475.07 97.0721 475.624 96.8728 476.136L96.866 476.143V476.15C96.6727 476.64 96.3583 477.073 95.9522 477.408C95.6808 477.632 95.3746 477.81 95.0457 477.935L88.7072 480.312C88.3542 480.444 87.9808 480.513 87.604 480.516C87.0758 480.517 86.5559 480.384 86.0932 480.129C85.4289 479.769 84.9154 479.183 84.6456 478.477L70.9987 442.649L68.8834 437.088C65.3488 437.918 35.6938 444.477 25.7644 433.903C23.8028 431.779 22.6833 429.012 22.6161 426.12C22.5468 424.131 22.7623 422.143 23.2558 420.215V420.215Z" fill="#2F2E41"/>
<path d="M24.0358 358.191C24.148 358.058 24.2677 357.924 24.3939 357.798C26.2657 355.829 28.5769 354.332 31.1383 353.429C33.6996 352.526 36.4384 352.242 39.1303 352.602C41.4784 352.911 43.8045 353.369 46.0944 353.973C49.0518 354.734 51.7596 356.253 53.9506 358.381C55.6572 360.037 57.0014 362.029 57.8978 364.232C58.7942 366.434 59.2233 368.799 59.1579 371.177C59.1298 372.14 59.1229 373.124 59.1366 374.122C59.1366 374.586 59.1438 375.058 59.1507 375.529H52.2219C51.9213 375.528 51.6216 375.563 51.3294 375.634C50.4839 375.836 49.7309 376.317 49.1917 376.999C48.6526 377.682 48.3585 378.526 48.3569 379.395V412.101C47.8861 412.235 47.4153 412.369 46.9514 412.509C46.8039 412.558 46.6632 412.601 46.5229 412.643C46.3612 412.692 46.1996 412.741 46.0449 412.79C44.6185 413.233 43.2248 413.702 41.8639 414.196H39.5728C39.146 414.197 38.7338 414.353 38.4132 414.635C38.0926 414.917 37.8854 415.306 37.8301 415.729C37.3521 415.919 36.8886 416.109 36.4319 416.299C34.8085 416.974 33.2696 417.648 31.8569 418.302C29.9526 419.174 28.2589 420.004 26.8394 420.728C26.3931 420.955 25.8999 421.076 25.399 421.079C24.7412 421.077 24.1011 420.865 23.5718 420.475C23.462 420.394 23.3565 420.307 23.2558 420.215C22.8797 419.862 22.5954 419.423 22.4276 418.935C22.2598 418.447 22.2136 417.926 22.293 417.416C23.0184 411.894 23.2301 406.316 22.9253 400.754C22.7287 396.079 22.307 391.284 21.7587 386.651C21.4636 384.141 21.1335 381.68 20.789 379.311C20.4586 377.047 20.1073 374.875 19.7631 372.822C19.3113 370.219 19.4615 367.546 20.2021 365.01C20.9428 362.474 22.2542 360.142 24.0358 358.191V358.191Z" fill="#6C63FF"/>
<path d="M52.8403 358.768C53.2008 358.613 53.5718 358.484 53.9506 358.381C55.8233 357.877 57.8149 358.063 59.5617 358.906C61.3086 359.749 62.6942 361.192 63.4655 362.972L68.2933 374.123L68.8975 375.529H52.2218C51.9212 375.528 51.6216 375.563 51.3294 375.634L50.7674 374.333L48.6311 369.398C47.7826 367.43 47.7492 365.205 48.5383 363.212C49.3274 361.219 50.8746 359.621 52.8403 358.768V358.768Z" fill="#6C63FF"/>
<path d="M37.847 347.112C28.3148 347.112 20.5874 339.381 20.5874 329.845C20.5874 320.308 28.3148 312.577 37.847 312.577C47.3793 312.577 55.1066 320.308 55.1066 329.845C55.1066 339.381 47.3793 347.112 37.847 347.112Z" fill="#FFB8B8"/>
<path d="M55.4174 321.361C47.242 326.354 38.0254 329.392 28.4846 330.239L31.3236 326.836C29.2565 327.601 27.0813 328.033 24.8791 328.116C22.6794 328.082 20.3747 327.235 19.1263 325.422C18.5695 324.521 18.2387 323.499 18.1622 322.443C18.0857 321.386 18.2656 320.327 18.6868 319.355C19.552 317.417 20.8986 315.732 22.5985 314.462C25.6115 312.077 29.1675 310.475 32.9493 309.799C36.7312 309.123 40.6215 309.393 44.2736 310.586C46.7788 311.335 49.0223 312.775 50.7474 314.741C52.3836 316.76 55.5336 318.56 54.6958 321.02L55.4174 321.361Z" fill="#2F2E41"/>
<path d="M34.9449 307.426C40.3886 301.903 46.9762 297.641 54.2438 294.94C58.909 293.211 63.9868 292.142 68.8641 293.124C73.7413 294.106 78.3537 297.482 79.7144 302.27C80.827 306.184 79.6781 310.4 77.9515 314.085C76.2248 317.77 73.9196 321.187 72.5232 325.01C71.0985 328.911 70.67 333.105 71.2767 337.214C71.8834 341.322 73.506 345.214 75.9973 348.535C78.4886 351.857 81.7697 354.504 85.5427 356.235C89.3157 357.966 93.4611 358.727 97.6027 358.449C92.8105 359.092 88.3934 361.345 83.7093 362.544C79.0252 363.743 73.4967 363.662 70.0159 360.305C66.3329 356.753 66.2592 350.977 66.4373 345.862C66.702 338.259 66.9667 330.655 67.2314 323.052C67.3664 319.174 67.4816 315.172 66.0839 311.553C64.6861 307.934 61.3643 304.764 57.4863 304.797C54.5471 304.822 51.9457 306.604 49.5886 308.36C47.2315 310.117 44.7367 311.992 41.809 312.253C38.8814 312.514 35.5387 310.347 35.7577 307.414L34.9449 307.426Z" fill="#2F2E41"/>
<path d="M20.7891 379.311L30.6413 379.578L31.3581 386.503L31.5197 388.106L46.9515 395.038L48.357 395.671V407.996L46.9515 407.595L42.5105 406.329H42.4892L22.9255 400.754L22.7007 400.691C21.1199 400.234 19.7286 399.279 18.7334 397.969C17.7383 396.658 17.1925 395.06 17.1771 393.414L17.128 385.238L17.0858 379.213L20.7891 379.311Z" fill="#FFB8B8"/>
<path d="M17.5846 365.616C17.716 363.475 18.692 361.474 20.2978 360.054C21.9036 358.633 24.0077 357.909 26.1473 358.04C28.2869 358.172 30.2865 359.148 31.7065 360.755C33.1265 362.361 33.8504 364.466 33.719 366.607L32.6441 384.155C32.615 384.617 32.4847 385.067 32.2625 385.472C32.0402 385.878 31.7315 386.23 31.3581 386.503C30.764 386.946 30.0316 387.163 29.2921 387.115L21.7587 386.651L19.4749 386.51C19.0589 386.49 18.6515 386.385 18.277 386.203C17.9026 386.02 17.569 385.764 17.2965 385.449C17.2361 385.382 17.1798 385.311 17.128 385.238C16.6813 384.64 16.4621 383.902 16.5097 383.157L17.5846 365.616Z" fill="#6C63FF"/>
<path d="M46.0449 412.79H46.9514V412.699C47.4153 412.762 47.8861 412.826 48.3569 412.896V414.197H41.8639C43.2272 413.704 44.6208 413.236 46.0449 412.79ZM46.0449 412.79H46.9514V412.699C47.4153 412.762 47.8861 412.826 48.3569 412.896V414.197H41.8639C43.2272 413.704 44.6208 413.236 46.0449 412.79ZM39.5728 412.79H46.9514V379.395C46.954 378.252 47.3274 377.141 48.0155 376.228C48.7036 375.315 49.6693 374.65 50.7673 374.333C51.239 374.191 51.7292 374.12 52.2219 374.123H114.764C116.162 374.124 117.501 374.68 118.489 375.669C119.477 376.657 120.033 377.998 120.035 379.395V413.845C120.034 415.243 119.479 416.584 118.49 417.573C117.502 418.562 116.162 419.117 114.764 419.118H39.5728C38.7944 419.117 38.0438 418.828 37.4643 418.308C36.8849 417.788 36.5173 417.073 36.4319 416.299C36.4175 416.184 36.4104 416.069 36.4106 415.954C36.4118 415.116 36.7455 414.312 37.3382 413.718C37.931 413.125 38.7345 412.792 39.5728 412.79V412.79ZM37.816 415.954C37.8162 416.42 38.0014 416.867 38.3308 417.197C38.6602 417.526 39.107 417.712 39.5728 417.712H114.764C115.789 417.711 116.772 417.304 117.497 416.579C118.221 415.854 118.629 414.87 118.629 413.845V379.395C118.629 378.37 118.221 377.387 117.497 376.662C116.772 375.937 115.789 375.529 114.764 375.529H52.2219C51.9212 375.528 51.6216 375.563 51.3294 375.634C50.4838 375.836 49.7309 376.317 49.1917 376.999C48.6525 377.682 48.3585 378.526 48.3569 379.395V414.197H39.5728C39.146 414.197 38.7339 414.353 38.4132 414.635C38.0926 414.917 37.8854 415.306 37.8301 415.729C37.8233 415.807 37.816 415.877 37.816 415.954V415.954ZM46.0449 412.79H46.9514V412.699C47.4153 412.762 47.8861 412.826 48.3569 412.896V414.197H41.8639C43.2272 413.704 44.6208 413.236 46.0449 412.79Z" fill="#3F3D56"/>
<path d="M83.4952 400.84C81.1666 400.84 79.2789 398.951 79.2789 396.621C79.2789 394.292 81.1666 392.403 83.4952 392.403C85.8238 392.403 87.7115 394.292 87.7115 396.621C87.7115 398.951 85.8238 400.84 83.4952 400.84Z" fill="#6C63FF"/>
<path d="M460.096 50.1755C460.112 50.4967 460.102 50.8187 460.067 51.1384L482.134 69.6667L488.715 67.2829L493.608 76.7486L479.221 83.6002L455.097 56.5159C453.879 56.737 452.622 56.5818 451.494 56.071C450.366 55.5602 449.421 54.718 448.783 53.6563C448.145 52.5947 447.846 51.364 447.924 50.1278C448.002 48.8917 448.455 47.7087 449.222 46.7362C449.989 45.7637 451.033 45.0478 452.216 44.6837C453.4 44.3196 454.666 44.3246 455.846 44.698C457.027 45.0713 458.066 45.7954 458.825 46.7738C459.584 47.7523 460.027 48.9388 460.096 50.1755L460.096 50.1755Z" fill="#FFB8B8"/>
<path d="M489.692 81.289L511.001 73.5938C512.957 72.8874 514.553 71.4323 515.437 69.5488C516.321 67.6653 516.421 65.5076 515.715 63.5504C515.008 61.5932 513.554 59.9968 511.672 59.1124C509.789 58.2279 507.632 58.128 505.676 58.8344L484.367 66.5296C484.044 66.6461 483.747 66.8252 483.493 67.0565C483.24 67.2878 483.034 67.5668 482.888 67.8777C482.742 68.1885 482.659 68.5251 482.643 68.8682C482.627 69.2112 482.679 69.554 482.796 69.877L486.345 79.717C486.582 80.3688 487.066 80.9003 487.694 81.195C488.321 81.4897 489.039 81.5235 489.692 81.289V81.289Z" fill="#CCCCCC"/>
<path d="M505.298 156.255L498.176 156.254L494.789 128.772L505.299 128.773L505.298 156.255Z" fill="#FFB8B8"/>
<path d="M484.442 162.87L506.824 162.871L506.824 154.219L493.09 154.219C490.796 154.219 488.597 155.13 486.975 156.752C485.353 158.375 484.442 160.575 484.442 162.87V162.87L484.442 162.87Z" fill="#2F2E41"/>
<path d="M522.898 147.051L517.073 151.149L498.501 130.618L507.099 124.57L522.898 147.051Z" fill="#FFB8B8"/>
<path d="M510.343 163.058L528.653 150.179L523.679 143.101L512.444 151.005C510.567 152.324 509.292 154.336 508.898 156.596C508.504 158.857 509.024 161.181 510.343 163.058V163.058L510.343 163.058Z" fill="#2F2E41"/>
<path d="M489.715 106.749C489.715 106.749 471.942 104.651 475.132 116.189C478.322 127.727 513.867 137.692 513.867 137.692L489.715 106.749Z" fill="#FFB8B8"/>
<path d="M501.947 47.8757C494.068 47.8757 487.68 41.4849 487.68 33.6016C487.68 25.7183 494.068 19.3275 501.947 19.3275C509.827 19.3275 516.215 25.7183 516.215 33.6016C516.215 41.4849 509.827 47.8757 501.947 47.8757Z" fill="#FFB8B8"/>
<path d="M547.447 135.33C555.565 125.872 558.406 111.357 545.459 99.2847C542.262 96.3765 538.641 93.971 534.722 92.1507L524.287 62.9561C523.204 59.9075 521.216 57.262 518.591 55.3725C515.965 53.483 512.826 52.4395 509.593 52.381C506.453 52.2454 503.349 53.0856 500.705 54.7863C498.062 56.4869 496.01 58.9646 494.831 61.8789C493.557 64.8438 493.411 68.1727 494.421 71.2377C497.527 80.9154 501.606 90.253 506.596 99.1071L506.056 103.426L479.682 105.771L479.928 106.171C480.056 106.38 492.964 126.056 509.477 139.116C515.124 143.582 520.962 145.432 526.473 145.432C534.829 145.431 542.429 141.175 547.447 135.33Z" fill="#CCCCCC"/>
<path d="M549.936 38.0798C547.412 35.0706 546.329 31.1346 545.458 27.304C544.08 21.2431 543.014 14.976 539.952 9.56731C536.891 4.15871 531.265 -0.322856 525.061 0.0182732C518.893 0.357454 513.907 5.3222 511.26 10.9711C510.619 10.722 509.932 10.6105 509.246 10.6436C508.559 10.6767 507.887 10.8538 507.272 11.1634C505.365 12.2086 504.651 15.1794 506.239 16.6667C504.569 15.871 502.75 15.436 500.901 15.3898C499.052 15.3437 497.214 15.6875 495.506 16.399C493.31 17.3343 491.414 18.8574 490.028 20.8009C488.641 22.7444 487.817 25.0329 487.647 27.4146C487.58 28.3812 487.713 29.3512 488.037 30.2645C488.36 31.1778 488.868 32.0149 489.528 32.724C492.265 35.5433 496.137 34.5708 499.579 33.8526C502.831 33.1742 506.791 32.9911 508.623 36.0907C509.345 37.3822 509.547 38.9007 509.188 40.3362C508.486 43.4304 506.197 45.5856 503.975 47.6483L503.612 48.3236C511.455 49.8538 520.02 44.4946 522.078 36.7692C524.135 29.0438 519.371 20.1315 511.807 17.5543C512.31 17.57 512.809 17.4509 513.251 17.2093C513.693 16.9678 514.062 16.6125 514.321 16.1802C514.58 15.748 514.719 15.2544 514.723 14.7504C514.728 14.2465 514.598 13.7506 514.346 13.3138C516.44 12.1402 518.81 11.5487 521.21 11.6007C525.117 11.8571 528.499 14.6399 530.532 17.9879C532.566 21.3359 533.486 25.2219 534.419 29.0268C535.352 32.8317 536.361 36.7095 538.536 39.9677C540.042 42.2245 542.054 44.0978 544.412 45.4382C546.77 46.7787 549.409 47.5491 552.118 47.6881C554.826 47.8271 557.53 47.3308 560.013 46.2388C562.496 45.1468 564.689 43.4893 566.418 41.3986C563.686 42.724 560.595 43.1172 557.618 42.5178C554.641 41.9184 551.943 40.3595 549.936 38.0798Z" fill="#2F2E41"/>
<path d="M445.146 76.9799C433.692 76.9799 424.407 67.6905 424.407 56.2315C424.407 44.7725 433.692 35.4831 445.146 35.4831C456.599 35.4831 465.884 44.7725 465.884 56.2315C465.884 67.6905 456.599 76.9799 445.146 76.9799Z" fill="#6C63FF"/>
<path d="M445.783 67.9003C445.867 67.8166 445.934 67.7172 445.979 67.6077C446.024 67.4982 446.048 67.3809 446.047 67.2624V44.2985C446.047 44.0593 445.952 43.8299 445.783 43.6607C445.614 43.4915 445.385 43.3965 445.146 43.3965C444.907 43.3965 444.677 43.4915 444.508 43.6607C444.339 43.8299 444.244 44.0593 444.244 44.2985V67.2624C444.244 67.4408 444.297 67.6152 444.396 67.7635C444.495 67.9118 444.636 68.0274 444.801 68.0957C444.966 68.164 445.147 68.1819 445.322 68.1471C445.497 68.1123 445.657 68.0264 445.783 67.9003H445.783Z" fill="white"/>
<path d="M457.26 56.4183C457.386 56.2922 457.472 56.1314 457.507 55.9565C457.541 55.7815 457.523 55.6001 457.455 55.4353C457.387 55.2705 457.271 55.1296 457.123 55.0305C456.975 54.9314 456.801 54.8785 456.622 54.8784H433.669C433.43 54.8784 433.201 54.9735 433.032 55.1427C432.863 55.3118 432.768 55.5412 432.768 55.7805C432.768 56.0197 432.863 56.2491 433.032 56.4183C433.201 56.5875 433.43 56.6825 433.669 56.6825H456.622C456.741 56.6827 456.858 56.6594 456.967 56.6141C457.077 56.5688 457.176 56.5022 457.26 56.4183Z" fill="white"/>
<path d="M459.381 70.1094C459.532 70.3935 459.66 70.6891 459.764 70.9933L487.61 78.381L492.554 73.425L501.005 79.9121L490.893 92.2319L457.55 77.9745C456.541 78.6926 455.338 79.0865 454.1 79.1037C452.862 79.121 451.648 78.7607 450.62 78.071C449.591 77.3812 448.797 76.3946 448.343 75.2423C447.889 74.09 447.796 72.8267 448.077 71.6204C448.358 70.4141 448.999 69.3219 449.916 68.4891C450.832 67.6563 451.98 67.1225 453.207 66.9584C454.435 66.7944 455.683 67.008 456.785 67.5709C457.888 68.1337 458.794 69.0192 459.381 70.1094L459.381 70.1094Z" fill="#FFB8B8"/>
<path d="M499.389 85.6875L515.408 69.6605C516.138 68.9324 516.718 68.0674 517.113 67.115C517.509 66.1626 517.713 65.1414 517.714 64.11C517.715 63.0786 517.513 62.0571 517.119 61.104C516.724 60.1509 516.146 59.2849 515.417 58.5555C514.688 57.8262 513.823 57.2478 512.87 56.8535C511.918 56.4592 510.897 56.2567 509.866 56.2576C508.835 56.2585 507.814 56.4627 506.862 56.8587C505.91 57.2546 505.045 57.8345 504.318 58.565L488.298 74.592C488.056 74.8348 487.863 75.123 487.732 75.4403C487.6 75.7576 487.533 76.0976 487.533 76.441C487.533 76.7845 487.6 77.1245 487.732 77.4418C487.863 77.759 488.056 78.0473 488.298 78.2901L495.692 85.6875C496.182 86.1771 496.847 86.452 497.54 86.452C498.233 86.452 498.898 86.1771 499.389 85.6875V85.6875Z" fill="#CCCCCC"/>
</g>
<defs>
<clipPath id="clip0">
<rect width="694" height="502" fill="white" transform="matrix(-1 0 0 1 694 0)"/>
</clipPath>
</defs>
</svg>
